DBRep_DrawableShape

CASCADE Topology V3, (c) Open Cascade
Locations 0
Curve2ds 32
1 0 0 1 0 
6 0 1 3.1415926535897931 0  3.1415926535897931 292.72683512107324  
1 0 292.72683512107324 1 0 
6 0 1 0 0  0 292.72683512107324  
1 0 0 0 1 
7 0 0  1 2 2  0 0  1.6925365878919985 0 
 0 2 1.5565091258295563 2
1 1.6925365878919985 0 0 1 
1 0 0 0 1 
1 0 1 1 0 
1 0 0 1 0 
1 3.1415926535897931 0 0 1 
1 0 0 0 1 
1 0 1 1 0 
7 0 0  1 2 2  0 0  1.6925365878919985 0 
 0 2 1.5565091258295567 2
1 1.6925365878919985 0 0 1 
1 0 1 1 0 
6 0 1 0 0  0 292.72683512107324  
1 0 0 1 0 
6 0 1 3.1415926535897931 0  3.1415926535897931 292.72683512107324  
1 0 292.72683512107324 1 0 
1 0 0 0 1 
7 0 0  1 2 2  0 0  1.6925365878919985 0 
 0 2 1.5565091258295563 2
1 1.6925365878919985 0 0 1 
1 0 0 0 1 
1 0 1 1 0 
1 0 0 1 0 
1 3.1415926535897931 0 0 1 
1 0 0 0 1 
1 0 1 1 0 
7 0 0  1 2 2  0 0  1.6925365878919985 0 
 0 2 1.5565091258295567 2
1 1.6925365878919985 0 0 1 
1 0 1 1 0 
Curves 36
2 -1600 1.7053025658242404e-13 -120 0 0 -1 0 -1 0 -1 -0 -0 1667
6 0 1 -1600.0000000000002 1667.0000000000002 -120  -1600.0000000000002 1400 1.4210854715202004e-14  
2 -1600 1.1368683772161603e-13 1.4210854715202004e-14 0 0 -1 0 -1 0 -1 -0 -0 1400
6 0 1 -1600 -1666.9999999999998 -120  -1600 -1400 1.4210854715202004e-14  
1 -1600.0000000000002 1667.0000000000002 -120 1 -1.6240976817373716e-16 0 
6 0 1 -200 1667 -120  -200 1400 1.4210854715202004e-14  
1 -1600.0000000000002 1400 1.4210854715202004e-14 1 0 0 
2 -200.71951219512198 1566.280487804878 -120 0 0 -1 0.0071435397252793808 0.99997448459457883 0 0.99997448459457883 -0.0071435397252793808 0 100.72208215988316
7 0 0  1 2 2  -99.999999999999972 1567.0000000000002 -120.00000000000001  -100 1300 1.4210854715202004e-14 
 0 2 1 2
2 -194.25555555555556 1305.7444444444445 1.4210854715202004e-14 0 0 -1 -0.060832548453031661 0.99814798554558515 0 0.99814798554558515 0.060832548453031661 0 94.430442099260134
2 1.0658141036401503e-14 1567 -120 -0 0 1 -1 0 -0 -0 -1 0 100
7 0 0  1 2 2  100.00000000000003 1567 -120.00000000000001  100 1300 1.4210854715202004e-14 
 0 2 1 2
2 -1.7763568394002505e-14 1300 1.4210854715202004e-14 -0 0 1 -1 0 -0 -0 -1 0 100.00000000000001
2 200.71951219512192 1566.280487804878 -120 0 0 -1 -0.99997448459457872 0.007143539725279386 0 0.007143539725279386 0.99997448459457872 0 100.72208215988313
7 0 0  1 2 2  200 1667.0000000000002 -120  200 1399.9999999999998 1.4210854715202004e-14 
 0 2 1 2
2 194.25555555555556 1305.7444444444445 1.4210854715202004e-14 0 0 -1 -0.99814798554558504 -0.060832548453032501 -0 -0.060832548453032501 0.99814798554558504 0 94.430442099260134
1 200 1667 -120 1 0 0 
6 0 1 1600 1667 -120  1600 1400 1.4210854715202004e-14  
1 200 1400 1.4210854715202004e-14 1 0 0 
2 1600 -1.7053025658242404e-13 -120 0 -0 -1 0 1 0 1 -0 0 1667
6 0 1 1600.0000000000002 -1667.0000000000002 -120  1600.0000000000002 -1400 1.4210854715202004e-14  
2 1600 -1.1368683772161603e-13 1.4210854715202004e-14 0 -0 -1 0 1 0 1 -0 0 1400
1 1600.0000000000002 -1667.0000000000002 -120 -1 1.6240976817373716e-16 0 
6 0 1 200 -1667 -120  200 -1400 1.4210854715202004e-14  
1 1600.0000000000002 -1400 1.4210854715202004e-14 -1 0 0 
2 200.71951219512198 -1566.280487804878 -120 0 0 -1 -0.0071435397252793808 -0.99997448459457883 -0 -0.99997448459457883 0.0071435397252793808 0 100.72208215988316
7 0 0  1 2 2  99.999999999999972 -1567.0000000000002 -120.00000000000001  100 -1300 1.4210854715202004e-14 
 0 2 1 2
2 194.25555555555556 -1305.7444444444445 1.4210854715202004e-14 0 0 -1 0.060832548453031661 -0.99814798554558515 0 -0.99814798554558515 -0.060832548453031661 -0 94.430442099260134
2 -1.0658141036401503e-14 -1567 -120 0 0 1 1 0 -0 -0 1 0 100
7 0 0  1 2 2  -100.00000000000003 -1567 -120.00000000000001  -100 -1300 1.4210854715202004e-14 
 0 2 1 2
2 1.7763568394002505e-14 -1300 1.4210854715202004e-14 0 0 1 1 0 -0 -0 1 0 100.00000000000001
2 -200.71951219512192 -1566.280487804878 -120 0 0 -1 0.99997448459457872 -0.007143539725279386 0 -0.007143539725279386 -0.99997448459457872 -0 100.72208215988313
7 0 0  1 2 2  -200 -1667.0000000000002 -120  -200 -1399.9999999999998 1.4210854715202004e-14 
 0 2 1 2
2 -194.25555555555556 -1305.7444444444445 1.4210854715202004e-14 0 0 -1 0.99814798554558504 0.060832548453032501 0 0.060832548453032501 -0.99814798554558504 0 94.430442099260134
1 -200 -1667 -120 -1 1.6240976817373719e-16 0 
1 -200 -1400 1.4210854715202004e-14 -1 0 0 
Polygon3D 0
PolygonOnTriangulations 0
Surfaces 14
10 0 3.1415926535897931 0 292.72683512107324
3 -1600 1.7053025658242404e-13 -120 -0 -0 1 0 -1 0 -1 -0 -0 1667
-1.1484096903475696
1 -1600 1.7053025658242404e-13 -120 0 0 -1 0 -1 0 -1 -0 -0 
1 -1600.0000000000002 1400 1.4210854715202004e-14 0 -0.40993850102730539 -0.9121131647857551 1 0 0 0 -0.9121131647857551 0.40993850102730539 
1 -1600 1.1368683772161603e-13 1.4210854715202004e-14 0 0 -1 0 -1 0 -1 -0 -0 
1 -200 -1400 1.4210854715202004e-14 0 0.40993850102730567 -0.91211316478575499 -1 0 0 0 0.91211316478575499 0.40993850102730567 
9 0 0 0 0 9 1 10 2 2 2 -200 1667 -120  -199.99999999999997 1400 1.4210854715202004e-14  
-182.58101779101918 1666.8755636335497 -119.99999999999899  -182.27433595668131 1401.0802980443655 1.421085471520192e-14  
-165.18624614443891 1663.3620269255209 -120.00000000000469  -164.3201159228754 1398.4104297739343 1.4210854715202376e-14  
-148.56928215109988 1656.4647711459957 -119.99999999998967  -147.04410045581491 1391.9351277566082 1.4210854715201226e-14  
-133.48231631429545 1646.384685523115 -120.00000000001415  -131.36861765127165 1381.8549363050583 1.4210854715202887e-14  
-120.61531447716253 1633.51768368544 -119.99999999998626  -118.14506369496675 1368.6313823487333 1.4210854715201393e-14  
-110.53522885380313 1618.4307178490776 -120.00000000000985  -108.06487224335271 1352.9558995441648 1.4210854715202237e-14  
-103.63797307456866 1601.8137538554804 -119.99999999999515  -101.58957022608936 1335.6798840771396 1.4210854715201986e-14  
-100.12443636643015 1584.4189822090018 -120.00000000000138  -98.919701955629137 1317.725664043315 1.421085471520199e-14  
-99.999999999999972 1567.0000000000002 -120.00000000000001  -100 1300 1.4210854715202004e-14  

0 10
1.6925365878919985 10

0 2
1 2

9 0 0 0 0 11 1 12 2 2 2 -99.999999999999986 1567 -120  -100 1300 1.4210854715202004e-14  
-99.999999999997286 1538.44006678547 -119.99999999999461  -99.999999999996632 1271.4400667854613 1.4210854715201248e-14  
-91.027632178295576 1509.8801358040789 -120.00000000002035  -91.027632178298177 1242.8801358041108 1.4210854715204979e-14  
-73.082898645170175 1484.45213251163 -119.99999999995764  -73.08289864516496 1217.4521325115591 1.4210854715195455e-14  
-47.395699705018991 1465.2881085588403 -120.00000000006006  -47.395699705026708 1198.2881085589363 1.4210854715212025e-14  
-16.42591203877814 1454.9676929393356 -119.99999999993599  -16.425912038769983 1187.9676929392547 1.4210854715190341e-14  
16.425912038783942 1454.9676929416546 -120.00000000005419  16.425912038777486 1187.9676929416833 1.421085471521265e-14  
47.395699705005207 1465.288108556997 -119.99999999996264  47.395699705008994 1198.2881085570141 1.4210854715194339e-14  
73.082898645184045 1484.4521325127569 -120.0000000000208  73.082898645182041 1217.4521325127323 1.4210854715206289e-14  
91.027632178287746 1509.8801358035892 -119.9999999999914  91.027632178288712 1242.8801358035998 1.4210854715200238e-14  
99.999999999999488 1538.4400667855923 -120.00000000000216  99.999999999999176 1271.4400667855912 1.4210854715202442e-14  
100.00000000000003 1567 -120.00000000000001  100 1300 1.4210854715202004e-14  

0 12
3.1415926535897931 12

0 2
1 2

9 0 0 0 0 9 1 10 2 2 2 99.999999999999986 1567.0000000000002 -120  100.00000000000006 1299.9999999999998 1.4210854715202004e-14  
100.12443636643005 1584.4189822090038 -120.00000000000075  98.919701955628796 1317.7256640433163 1.421085471520192e-14  
103.63797307457013 1601.8137538554881 -119.99999999999829  101.58957022609063 1335.6798840771394 1.4210854715202376e-14  
110.5352288537988 1618.430717849041 -120.00000000000225  108.0648722433496 1352.955899544153 1.4210854715201226e-14  
120.61531447717012 1633.5176836855105 -119.99999999999791  118.14506369497158 1368.6313823487574 1.4210854715202887e-14  
133.48231631428709 1646.3846855230368 -120.00000000000162  131.36861765126565 1381.8549363050208 1.4210854715201393e-14  
148.56928215110582 1656.4647711460484 -119.99999999999896  147.04410045582054 1391.9351277566432 1.4210854715202237e-14  
165.18624614443684 1663.3620269255048 -120.0000000000004  164.32011592287242 1398.4104297739188 1.4210854715201986e-14  
182.58101779101952 1666.8755636335511 -120.00000000000004  182.27433595668205 1401.0802980443677 1.421085471520199e-14  
200 1667.0000000000002 -120  200 1399.9999999999998 1.4210854715202004e-14  

0 10
1.6925365878919985 10

0 2
1 2

1 200 1400 1.4210854715202004e-14 0 -0.40993850102730567 -0.91211316478575499 1 0 0 0 -0.91211316478575499 0.40993850102730567 
10 0 3.1415926535897931 0 292.72683512107324
3 1600 -1.7053025658242404e-13 -120 -0 -0 1 0 1 0 1 -0 0 1667
-1.1484096903475696
1 1600.0000000000002 -1400 1.4210854715202004e-14 0 0.40993850102730539 -0.9121131647857551 -1 0 0 0 0.9121131647857551 0.40993850102730539 
9 0 0 0 0 9 1 10 2 2 2 200 -1667 -120  199.99999999999997 -1400 1.4210854715202004e-14  
182.58101779101918 -1666.8755636335497 -119.99999999999899  182.27433595668131 -1401.0802980443655 1.421085471520192e-14  
165.18624614443891 -1663.3620269255209 -120.00000000000469  164.3201159228754 -1398.4104297739343 1.4210854715202376e-14  
148.56928215109988 -1656.4647711459957 -119.99999999998967  147.04410045581491 -1391.9351277566082 1.4210854715201226e-14  
133.48231631429545 -1646.384685523115 -120.00000000001415  131.36861765127165 -1381.8549363050583 1.4210854715202887e-14  
120.61531447716253 -1633.51768368544 -119.99999999998626  118.14506369496675 -1368.6313823487333 1.4210854715201393e-14  
110.53522885380313 -1618.4307178490776 -120.00000000000985  108.06487224335271 -1352.9558995441648 1.4210854715202237e-14  
103.63797307456866 -1601.8137538554804 -119.99999999999515  101.58957022608936 -1335.6798840771396 1.4210854715201986e-14  
100.12443636643015 -1584.4189822090018 -120.00000000000138  98.919701955629137 -1317.725664043315 1.421085471520199e-14  
99.999999999999972 -1567.0000000000002 -120.00000000000001  100 -1300 1.4210854715202004e-14  

0 10
1.6925365878919985 10

0 2
1 2

9 0 0 0 0 11 1 12 2 2 2 99.999999999999986 -1567 -120  100 -1300 1.4210854715202004e-14  
99.999999999997286 -1538.44006678547 -119.99999999999461  99.999999999996632 -1271.4400667854613 1.4210854715201248e-14  
91.027632178295576 -1509.8801358040789 -120.00000000002035  91.027632178298177 -1242.8801358041108 1.4210854715204979e-14  
73.082898645170175 -1484.45213251163 -119.99999999995764  73.08289864516496 -1217.4521325115591 1.4210854715195455e-14  
47.395699705018991 -1465.2881085588403 -120.00000000006006  47.395699705026708 -1198.2881085589363 1.4210854715212025e-14  
16.42591203877814 -1454.9676929393356 -119.99999999993599  16.425912038769983 -1187.9676929392547 1.4210854715190341e-14  
-16.425912038783942 -1454.9676929416546 -120.00000000005419  -16.425912038777486 -1187.9676929416833 1.421085471521265e-14  
-47.395699705005207 -1465.288108556997 -119.99999999996264  -47.395699705008994 -1198.2881085570141 1.4210854715194339e-14  
-73.082898645184045 -1484.4521325127569 -120.0000000000208  -73.082898645182041 -1217.4521325127323 1.4210854715206289e-14  
-91.027632178287746 -1509.8801358035892 -119.9999999999914  -91.027632178288712 -1242.8801358035998 1.4210854715200238e-14  
-99.999999999999488 -1538.4400667855923 -120.00000000000216  -99.999999999999176 -1271.4400667855912 1.4210854715202442e-14  
-100.00000000000003 -1567 -120.00000000000001  -100 -1300 1.4210854715202004e-14  

0 12
3.1415926535897931 12

0 2
1 2

9 0 0 0 0 9 1 10 2 2 2 -99.999999999999986 -1567.0000000000002 -120  -100.00000000000006 -1299.9999999999998 1.4210854715202004e-14  
-100.12443636643005 -1584.4189822090038 -120.00000000000075  -98.919701955628796 -1317.7256640433163 1.421085471520192e-14  
-103.63797307457013 -1601.8137538554881 -119.99999999999829  -101.58957022609063 -1335.6798840771394 1.4210854715202376e-14  
-110.5352288537988 -1618.430717849041 -120.00000000000225  -108.0648722433496 -1352.955899544153 1.4210854715201226e-14  
-120.61531447717012 -1633.5176836855105 -119.99999999999791  -118.14506369497158 -1368.6313823487574 1.4210854715202887e-14  
-133.48231631428709 -1646.3846855230368 -120.00000000000162  -131.36861765126565 -1381.8549363050208 1.4210854715201393e-14  
-148.56928215110582 -1656.4647711460484 -119.99999999999896  -147.04410045582054 -1391.9351277566432 1.4210854715202237e-14  
-165.18624614443684 -1663.3620269255048 -120.0000000000004  -164.32011592287242 -1398.4104297739188 1.4210854715201986e-14  
-182.58101779101952 -1666.8755636335511 -120.00000000000004  -182.27433595668205 -1401.0802980443677 1.421085471520199e-14  
-200 -1667.0000000000002 -120  -200 -1399.9999999999998 1.4210854715202004e-14  

0 10
1.6925365878919985 10

0 2
1 2

Triangulations 0

TShapes 90
Ve
1e-07
-1600 -1667 -120
0 0

0101101
*
Ve
1e-07
-1600 1667 -120
0 0

0101101
*
Ed
 1e-07 1 1 0
1  1 0 0 3.14159265358979
2  1 1 0 0 3.14159265358979
4 C0 1 0 2 0
0

0101000
+90 0 -89 0 *
Ve
1e-07
-1600 1400 1.4210854715202e-14
0 0

0101101
*
Ed
 1e-07 1 1 0
1  2 0 0 1
2  2 1 0 0 1
4 G1 1 0 3 0
0

0101000
+89 0 -87 0 *
Ve
1e-07
-1600 -1400 1.4210854715202e-14
0 0

0101101
*
Ed
 1e-07 1 1 0
1  3 0 0 3.14159265358979
2  3 1 0 0 3.14159265358979
4 C0 1 0 4 0
0

0101000
+85 0 -87 0 *
Ed
 1e-07 1 1 0
1  4 0 0 1
2  4 1 0 0 1
4 G1 1 0 5 0
0

0101000
+90 0 -85 0 *
Wi

0101000
+88 0 +86 0 -84 0 -83 0 *
Fa
0  1e-07 1 0

0101000
+82 0 *
Ve
1e-07
-200 1667 -120
0 0

0101101
*
Ed
 1e-07 1 1 0
1  5 0 0 1400
4 C0 3 0 2 0
0

0101000
+89 0 -80 0 *
Ve
1e-07
-200 1400 1.4210854715202e-14
0 0

0101101
*
Ed
 1e-07 1 1 0
1  6 0 0 1
2  5 6 0 0 1
4 C0 3 0 6 0
0

0101000
+80 0 -78 0 *
Ed
 1e-07 1 1 0
1  7 0 0 1400
4 C0 3 0 4 0
0

0101000
+87 0 -78 0 *
Wi

0101000
+79 0 +77 0 -76 0 -86 0 *
Fa
0  1e-07 3 0

0101000
+75 0 *
Ve
1e-07
-100 1567 -120
0 0

0101101
*
Ed
 1e-07 1 1 0
1  8 0 0 1.55650912582956
2  6 6 0 0 1.55650912582956
4 C0 6 0 2 0
0

0101000
+80 0 -73 0 *
Ve
1.00000007105427e-07
-100 1300 1.4210854715202e-14
0 0

0101101
*
Ed
 1e-07 1 1 0
1  9 0 0 1
2  7 6 0 0 1
2  8 7 0 0 1
4 C0 6 0 7 0
0

0101000
+73 0 -71 0 *
Ed
 1e-07 1 1 0
1  10 0 0 1.692536587892
2  9 6 0 0 1.692536587892
4 C0 6 0 4 0
0

0101000
+78 0 -71 0 *
Wi

0101000
+72 0 +70 0 -69 0 -77 0 *
Fa
0  1e-07 6 0

0101000
+68 0 *
Ve
1.00000021316282e-07
100 1567 -120
0 0

0101101
*
Ed
 1e-07 1 1 0
1  11 0 0 3.14159265358979
2  10 7 0 0 3.14159265358979
4 C0 7 0 2 0
0

0101000
+73 0 -66 0 *
Ve
1.00000028421709e-07
100 1300 1.4210854715202e-14
0 0

0101101
*
Ed
 1e-07 1 1 0
1  12 0 0 1
2  11 7 0 0 1
2  12 8 0 0 1
4 C0 7 0 8 0
0

0101000
+66 0 -64 0 *
Ed
 1e-07 1 1 0
1  13 0 0 3.14159265358979
2  13 7 0 0 3.14159265358979
4 C0 7 0 4 0
0

0101000
+71 0 -64 0 *
Wi

0101000
+65 0 +63 0 -62 0 -70 0 *
Fa
0  1e-07 7 0

0101000
+61 0 *
Ve
1e-07
200 1667 -120
0 0

0101101
*
Ed
 1e-07 1 1 0
1  14 0 0 1.55650912582956
2  14 8 0 0 1.55650912582956
4 C0 8 0 2 0
0

0101000
+66 0 -59 0 *
Ve
1e-07
200 1400 1.4210854715202e-14
0 0

0101101
*
Ed
 1e-07 1 1 0
1  15 0 0 1
2  15 8 0 0 1
4 C0 8 0 9 0
0

0101000
+59 0 -57 0 *
Ed
 1e-07 1 1 0
1  16 0 0 1.692536587892
2  16 8 0 0 1.692536587892
4 C0 8 0 4 0
0

0101000
+64 0 -57 0 *
Wi

0101000
+58 0 +56 0 -55 0 -63 0 *
Fa
0  1e-07 8 0

0101000
+54 0 *
Ve
1.00000113686838e-07
1600 1667 -120
0 0

0101101
*
Ed
 1e-07 1 1 0
1  17 0 0 1400
4 C0 9 0 2 0
0

0101000
+59 0 -52 0 *
Ve
1e-07
1600 1400 1.4210854715202e-14
0 0

0101101
*
Ed
 1e-07 1 1 0
1  18 0 0 1
2  17 10 0 0 1
4 G1 9 0 10 0
0

0101000
+52 0 -50 0 *
Ed
 1e-07 1 1 0
1  19 0 0 1400
4 C0 9 0 4 0
0

0101000
+57 0 -50 0 *
Wi

0101000
+51 0 +49 0 -48 0 -56 0 *
Fa
0  1e-07 9 0

0101000
+47 0 *
Ve
1e-07
1600 -1667 -120
0 0

0101101
*
Ed
 1e-07 1 1 0
1  20 0 0 3.14159265358979
2  18 10 0 0 3.14159265358979
4 C0 10 0 2 0
0

0101000
+52 0 -45 0 *
Ve
1e-07
1600 -1400 1.4210854715202e-14
0 0

0101101
*
Ed
 1e-07 1 1 0
1  21 0 0 1
2  19 10 0 0 1
4 G1 10 0 11 0
0

0101000
+45 0 -43 0 *
Ed
 1e-07 1 1 0
1  22 0 0 3.14159265358979
2  20 10 0 0 3.14159265358979
4 C0 10 0 4 0
0

0101000
+50 0 -43 0 *
Wi

0101000
+44 0 +42 0 -41 0 -49 0 *
Fa
0  1e-07 10 0

0101000
+40 0 *
Ve
1e-07
200 -1667 -120
0 0

0101101
*
Ed
 1e-07 1 1 0
1  23 0 0 1400
4 C0 11 0 2 0
0

0101000
+45 0 -38 0 *
Ve
1e-07
200 -1400 1.4210854715202e-14
0 0

0101101
*
Ed
 1e-07 1 1 0
1  24 0 0 1
2  21 12 0 0 1
4 C0 11 0 12 0
0

0101000
+38 0 -36 0 *
Ed
 1e-07 1 1 0
1  25 0 0 1400
4 C0 11 0 4 0
0

0101000
+43 0 -36 0 *
Wi

0101000
+37 0 +35 0 -34 0 -42 0 *
Fa
0  1e-07 11 0

0101000
+33 0 *
Ve
1e-07
100 -1567 -120
0 0

0101101
*
Ed
 1e-07 1 1 0
1  26 0 0 1.55650912582956
2  22 12 0 0 1.55650912582956
4 C0 12 0 2 0
0

0101000
+38 0 -31 0 *
Ve
1.00000007105427e-07
100 -1300 1.4210854715202e-14
0 0

0101101
*
Ed
 1e-07 1 1 0
1  27 0 0 1
2  23 12 0 0 1
2  24 13 0 0 1
4 C0 12 0 13 0
0

0101000
+31 0 -29 0 *
Ed
 1e-07 1 1 0
1  28 0 0 1.692536587892
2  25 12 0 0 1.692536587892
4 C0 12 0 4 0
0

0101000
+36 0 -29 0 *
Wi

0101000
+30 0 +28 0 -27 0 -35 0 *
Fa
0  1e-07 12 0

0101000
+26 0 *
Ve
1.00000021316282e-07
-100 -1567 -120
0 0

0101101
*
Ed
 1e-07 1 1 0
1  29 0 0 3.14159265358979
2  26 13 0 0 3.14159265358979
4 C0 13 0 2 0
0

0101000
+31 0 -24 0 *
Ve
1.00000028421709e-07
-100 -1300 1.4210854715202e-14
0 0

0101101
*
Ed
 1e-07 1 1 0
1  30 0 0 1
2  27 13 0 0 1
2  28 14 0 0 1
4 C0 13 0 14 0
0

0101000
+24 0 -22 0 *
Ed
 1e-07 1 1 0
1  31 0 0 3.14159265358979
2  29 13 0 0 3.14159265358979
4 C0 13 0 4 0
0

0101000
+29 0 -22 0 *
Wi

0101000
+23 0 +21 0 -20 0 -28 0 *
Fa
0  1e-07 13 0

0101000
+19 0 *
Ve
1e-07
-200 -1667 -120
0 0

0101101
*
Ed
 1e-07 1 1 0
1  32 0 0 1.55650912582956
2  30 14 0 0 1.55650912582956
4 C0 14 0 2 0
0

0101000
+24 0 -17 0 *
Ve
1e-07
-200 -1400 1.4210854715202e-14
0 0

0101101
*
Ed
 1e-07 1 1 0
1  33 0 0 1
2  31 14 0 0 1
4 C0 14 0 5 0
0

0101000
+17 0 -15 0 *
Ed
 1e-07 1 1 0
1  34 0 0 1.692536587892
2  32 14 0 0 1.692536587892
4 C0 14 0 4 0
0

0101000
+22 0 -15 0 *
Wi

0101000
+16 0 +14 0 -13 0 -21 0 *
Fa
0  1e-07 14 0

0101000
+12 0 *
Ed
 1e-07 1 1 0
1  35 0 0 1400
4 C0 5 0 2 0
0

0101000
+17 0 -90 0 *
Ed
 1e-07 1 1 0
1  36 0 0 1400
4 C0 5 0 4 0
0

0101000
+15 0 -85 0 *
Wi

0101000
+10 0 +83 0 -9 0 -14 0 *
Fa
0  1e-07 5 0

0101000
+8 0 *
Wi

0101100
+88 0 +10 0 +79 0 +16 0 +72 0 +23 0 +65 0 +30 0 +58 0 +37 0 
+51 0 +44 0 *
Fa
0  1e-07 2 0

0101000
+6 0 *
Wi

0101100
+84 0 +76 0 +69 0 +62 0 +55 0 +48 0 +41 0 +34 0 +27 0 +20 0 
+13 0 +9 0 *
Fa
0  1e-07 4 0

0101000
+4 0 *
Sh

0101100
+81 0 +74 0 +67 0 +60 0 +53 0 +46 0 +39 0 +32 0 +25 0 +18 0 
+11 0 +7 0 -5 0 +3 0 *
So

1100100
-2 0 *

+1 0 