DBRep_DrawableShape

CASCADE Topology V3, (c) Open Cascade
Locations 0
Curve2ds 266
1 0 0 0 -1 
1 -2092.1125171281401 2700 0 -1 
1 2592.4633073584664 0 0 -1 
1 -2092.1125171281401 -2700 0 1 
1 2592.4633073584664 0 0 -1 
1 -2092.1125171281401 -2700 0.97011980569268064 -0.24262638480345769 
1 0 0 1 0 
1 -2092.1125171281401 -2700 0.97011980569268064 -0.24262638480345769 
1 0 -31500 1 0 
1 422.8874828718599 -3329 0.10046522088031733 -0.99494057078474252 
1 422.8874828718599 3329 -0.97011980569268064 -0.24262638480345769 
1 0 0 1 0 
1 722.8874828718599 -6300 1 0 
1 722.8874828718599 6300 -0.10046522088031733 -0.99494057078474252 
1 939.8874828718599 -6300 0 1 
1 939.8874828718599 6300 -1 0 
8 -1548 1548
1 -1492.1125171281401 -3.9341272936444207e-14 0 -1 
8 -1548 1548
1 -3.9341272936444207e-14 0 1 0 
8 19.759209061069662 726.86599024761722
1 -1506.0843878461051 -1534.028129282035 0.70710678118654757 -0.70710678118654757 
8 19.759209061069662 726.86599024761722
1 -19.759209061069662 0 1 0 
8 -233.52029063974464 621.90299639422437
1 -765.53247872045131 -2104.5085156028813 0.97027987498198731 -0.24198546279671249 
8 -233.52029063974464 621.90299639422437
1 233.52029063974464 0 1 0 
8 -1012.6842704996789 31.777313284042748
1 351.76245127468974 -1382.3821291272695 0.50743848144227 0.86168798735479823 
8 -1012.6842704996789 31.777313284042748
1 1012.6842704996789 0 1 0 
8 -677.5 2032.5
1 367.8874828718599 -677.50000000000011 0 1 
8 -677.5 2032.5
1 677.5 0 1 0 
8 490.45347860781783 1534.9150623915393
1 616.76245127468974 932.38212912726965 -0.50743848144227 0.86168798735479823 
8 490.45347860781783 1534.9150623915393
1 -490.45347860781783 0 1 0 
8 -194.19135287723984 661.23193415672915
1 -350.53247872045131 2208.0085156028813 -0.97027987498198731 -0.24198546279671249 
8 -194.19135287723984 661.23193415672915
1 194.19135287723984 0 1 0 
8 -373.31259965434344 333.79418153220411
1 -1256.0843878461051 1784.028129282035 -0.70710678118654757 -0.70710678118654757 
8 -373.31259965434344 333.79418153220411
1 373.31259965434344 0 1 0 
1 0 0 0 -1 
1 422.8874828718599 3329 -0.97011980569268064 -0.24262638480345769 
1 0 -31500 1 0 
1 422.8874828718599 -3329 0.10046522088031733 -0.99494057078474252 
1 722.8874828718599 6300 -0.10046522088031733 -0.99494057078474252 
1 722.8874828718599 -6300 1 0 
1 939.8874828718599 6300 -1 0 
1 939.8874828718599 -6300 0 1 
8 -1548 1548
1 -1492.1125171281401 -3.9341272936444207e-14 0 -1 
8 -1548 1548
1 -3.9341272936444207e-14 3.637978807091713e-12 1 0 
8 19.759209061069662 726.86599024761722
1 -1506.0843878461051 -1534.028129282035 0.70710678118654757 -0.70710678118654757 
8 19.759209061069662 726.86599024761722
1 -19.759209061069662 3.637978807091713e-12 1 0 
8 -233.52029063974464 621.90299639422437
1 -765.53247872045131 -2104.5085156028813 0.97027987498198731 -0.24198546279671249 
8 -233.52029063974464 621.90299639422437
1 233.52029063974464 3.637978807091713e-12 1 0 
8 -1012.6842704996789 31.777313284042748
1 351.76245127468974 -1382.3821291272695 0.50743848144227 0.86168798735479823 
8 -1012.6842704996789 31.777313284042748
1 1012.6842704996789 3.637978807091713e-12 1 0 
8 -677.5 2032.5
1 367.8874828718599 -677.50000000000011 0 1 
8 -677.5 2032.5
1 677.5 3.637978807091713e-12 1 0 
8 490.45347860781783 1534.9150623915393
1 616.76245127468974 932.38212912726965 -0.50743848144227 0.86168798735479823 
8 490.45347860781783 1534.9150623915393
1 -490.45347860781783 3.637978807091713e-12 1 0 
8 -194.19135287723984 661.23193415672915
1 -350.53247872045131 2208.0085156028813 -0.97027987498198731 -0.24198546279671249 
8 -194.19135287723984 661.23193415672915
1 194.19135287723984 3.637978807091713e-12 1 0 
8 -373.31259965434344 333.79418153220411
1 -1256.0843878461051 1784.028129282035 -0.70710678118654757 -0.70710678118654757 
8 -373.31259965434344 333.79418153220411
1 373.31259965434344 3.637978807091713e-12 1 0 
1 -1548 1300 0 -1 
1 707.10678118654755 1300 0 -1 
7 0 0  1 2 2  0 0  1760 0 
 0 2 1548 2
1 -1548 1300 1 0 
7 0 0  1 2 2  0 0  1760 0 
 0 2 1548 2
1 0 1300 1 0 
1 1548 -10 0 1 
1 0 -10 0 1 
1 0 0 1 0 
1 0 1300 1 0 
1 707.10678118654755 -10 0 1 
1 0 -10 0 1 
7 0 0  1 2 2  0 0  1042.1756090026288 0 
 0 2 855.4232870339689 2
1 0 1300 1 0 
1 855.42328703396902 -10 0 1 
1 0 -10 0 1 
1 0 0 1 0 
1 0 1300 1 0 
1 1044.4615837837214 -10 0 1 
1 0 -10 0 1 
7 0 0  1 2 2  0 0  3458 0 
 0 2 2710 2
1 0 1300 1 0 
1 2710 -10 0 1 
1 -0 -10 0 1 
1 0 0 1 0 
1 0 1300 1 0 
1 1044.4615837837214 -10 0 1 
1 0 -10 0 1 
7 0 0  1 2 2  0 0  1042.1756090026288 0 
 0 2 855.4232870339689 2
1 0 1300 1 0 
1 855.42328703396902 -10 0 1 
1 0 -10 0 1 
1 0 0 1 0 
1 0 1300 1 0 
7 0 0  1 2 2  0 1  1760 1 
 0 2 1548 2
1 -1548 -1299.9999999999964 1 0 
1 -1548 9.999999999992724 0 -1 
1 707.10678118654755 9.999999999992724 0 -1 
1 1548 -1299.9999999999964 0 1 
1 0 -1299.9999999999964 0 1 
7 0 0  1 2 2  0 1  1760 1 
 0 2 1548 2
1 0 -1299.9999999999964 1 0 
1 707.10678118654755 -1299.9999999999964 0 1 
1 0 -1299.9999999999964 0 1 
1 0 1 1 0 
1 0 -1299.9999999999964 1 0 
1 855.42328703396902 -1299.9999999999964 0 1 
1 0 -1299.9999999999964 0 1 
7 0 0  1 2 2  0 1  1042.1756090026288 1 
 0 2 855.4232870339689 2
1 0 -1299.9999999999964 1 0 
1 1044.4615837837214 -1299.9999999999964 0 1 
1 0 -1299.9999999999964 0 1 
1 0 1 1 0 
1 0 -1299.9999999999964 1 0 
1 2710 -1299.9999999999964 0 1 
1 -0 -1299.9999999999964 0 1 
7 0 0  1 2 2  0 1  3458 1 
 0 2 2710 2
1 0 -1299.9999999999964 1 0 
1 1044.4615837837214 -1299.9999999999964 0 1 
1 0 -1299.9999999999964 0 1 
1 0 1 1 0 
1 -0 -1299.9999999999964 1 0 
1 855.42328703396902 -1299.9999999999964 0 1 
1 0 -1299.9999999999964 0 1 
7 0 0  1 2 2  0 1  1042.1756090026288 1 
 0 2 855.4232870339689 2
1 0 -1299.9999999999964 1 0 
1 0 1 1 0 
1 0 -1299.9999999999964 1 0 
1 0 0 0 1 
1 1760 0 0 1 
1 0 1 1 0 
7 0 0  1 2 2  0 0  2171 0 
 0 2 1760 2
1 707.10678118654755 0 0 1 
1 0 0 0 1 
1 1760 0 0 1 
1 0 0 0 1 
1 0 1 1 0 
7 0 0  1 2 2  0 0  2171 0 
 0 2 1760 2
1 707.10678118654755 0 0 1 
1 0 0 0 1 
7 0 0  1 2 2  0 1  707.10678118654755 1 
 0 2 610.94025894517711 2
1 0 0 1 0 
1 1042.1756090026288 0 0 1 
1 0 0 0 1 
1 0 1 1 0 
7 0 0  1 2 2  0 0  1401.8559127100045 0 
 0 2 1042.1756090026288 2
1 1044.4615837837216 0 0 1 
1 0 0 0 1 
7 0 0  1 2 2  0 1  1044.4615837837216 1 
 0 2 948.44082577670599 2
7 0 0  1 2 2  0 0  1029.5630140987 0 
 0 2 948.44082577670599 2
1 3458 0 0 1 
1 0 0 0 1 
1 0 1 1 0 
7 0 0  1 2 2  0 0  3822 0 
 0 2 3458 2
1 1044.4615837837216 0 0 1 
1 0 0 0 1 
7 0 0  1 2 2  0 1  1044.4615837837216 1 
 0 2 948.44082577670599 2
7 0 0  1 2 2  0 0  1029.5630140987 0 
 0 2 948.44082577670599 2
1 1042.1756090026288 0 0 1 
1 0 0 0 1 
1 0 1 1 0 
7 0 0  1 2 2  0 0  1401.8559127100045 0 
 0 2 1042.1756090026288 2
7 0 0  1 2 2  0 1  707.10678118654755 1 
 0 2 610.94025894517711 2
1 0 0 1 0 
7 0 0  1 2 2  0 1  2171 1 
 0 2 1760 2
1 0 0 1 0 
1 0 0 0 1 
1 1760 0 0 1 
1 707.10678118654755 0 0 1 
1 0 0 0 1 
7 0 0  1 2 2  0 1  2171 1 
 0 2 1760 2
1 0 0 1 0 
1 1760 0 0 1 
1 0 0 0 1 
1 0 1 1 0 
7 0 0  1 2 2  0 0  707.10678118654755 0 
 0 2 610.94025894517711 2
1 707.10678118654755 0 0 1 
1 0 0 0 1 
7 0 0  1 2 2  0 1  1401.8559127100045 1 
 0 2 1042.1756090026288 2
1 0 0 1 0 
1 1042.1756090026288 0 0 1 
1 0 0 0 1 
7 0 0  1 2 2  0 1  1029.5630140987 1 
 0 2 948.44082577670599 2
7 0 0  1 2 2  0 0  1044.4615837837216 0 
 0 2 948.44082577670599 2
1 1044.4615837837216 0 0 1 
1 0 0 0 1 
7 0 0  1 2 2  0 1  3822 1 
 0 2 3458 2
1 0 0 1 0 
1 3458 0 0 1 
1 0 0 0 1 
7 0 0  1 2 2  0 1  1029.5630140987 1 
 0 2 948.44082577670599 2
7 0 0  1 2 2  0 0  1044.4615837837216 0 
 0 2 948.44082577670599 2
1 1044.4615837837216 0 0 1 
1 0 0 0 1 
7 0 0  1 2 2  0 1  1401.8559127100045 1 
 0 2 1042.1756090026288 2
1 0 0 1 0 
1 1042.1756090026288 0 0 1 
1 0 0 0 1 
1 0 1 1 0 
7 0 0  1 2 2  0 0  707.10678118654755 0 
 0 2 610.94025894517711 2
1 0 0 0 1 
1 2171 0 0 1 
1 0 1 1 0 
1 610.94025894517711 0 0 1 
1 0 0 0 1 
1 2171 0 0 1 
1 0 0 0 1 
1 0 1 1 0 
1 610.94025894517711 0 0 1 
1 0 0 0 1 
7 0 0  1 2 2  0 1  610.94025894517711 1 
 0 2 424.26406871192853 2
1 1401.8559127100045 0 0 1 
1 0 0 0 1 
1 0 1 1 0 
1 0 -23900 1 0 
1 1029.5630140987 0 0 1 
1 0 0 0 1 
1 0 1 1 0 
1 0 -23900 1 0 
1 3822 0 0 1 
1 0 0 0 1 
1 0 1 1 0 
1 1029.5630140987 0 0 1 
1 0 0 0 1 
1 0 1 1 0 
1 -0 -23900 1 0 
1 1401.8559127100045 0 0 1 
1 0 0 0 1 
1 0 1 1 0 
1 0 -23900 1 0 
7 0 0  1 2 2  0 1  610.94025894517711 1 
 0 2 424.26406871192853 2
1 0 0 1 0 
1 0 0 0 1 
1 2171 0 0 1 
1 610.94025894517711 0 0 1 
1 0 0 0 1 
1 0 0 1 0 
1 2171 0 0 1 
1 0 0 0 1 
7 0 0  1 2 2  0 0  610.94025894517711 0 
 0 2 424.26406871192853 2
1 610.94025894517711 0 0 1 
1 0 0 0 1 
1 0 0 1 0 
1 0 0 1 0 
1 1401.8559127100045 0 0 1 
1 0 0 0 1 
1 0 0 1 0 
1 0 0 1 0 
1 1029.5630140987 0 0 1 
1 0 0 0 1 
1 0 0 1 0 
1 3822 0 0 1 
1 0 0 0 1 
1 0 0 1 0 
1 0 0 1 0 
1 1029.5630140987 0 0 1 
1 0 0 0 1 
1 0 0 1 0 
1 0 0 1 0 
1 1401.8559127100045 0 0 1 
1 0 0 0 1 
7 0 0  1 2 2  0 0  610.94025894517711 0 
 0 2 424.26406871192853 2
6 0 1 0 -23900  0 0  
6 0 1 1401.8559127100045 -23900  1401.8559127100045 0  
6 0 1 0 -23900  0 0  
6 0 1 1029.5630140987 -23900  1029.5630140987 0  
6 0 1 0 -23900  0 0  
6 0 1 1029.5630140987 -23900  1029.5630140987 0  
6 0 1 0 -23900  0 0  
6 0 1 1401.8559127100045 -23900  1401.8559127100045 0  
Curves 154
1 0 2700 0 1 0 0 
8 0 5400
1 0 -2700 0 0 1 0 
1 0 -2700 0 1 0 0 
8 0 5400
1 31500 2700 0 0 -1 0 
1 0 3329 2515 1 0 0 
1 0 2700 0 0 0.24262638480345769 0.97011980569268064 
1 31500 2700 0 0 0.24262638480345769 0.97011980569268064 
1 0 3329 2515 0 0.99494057078474241 0.10046522088031731 
1 0 -3329 2515 0 0.24262638480345769 -0.97011980569268064 
1 0 6300 2815 0 0 1 
1 0 -6300 2815 0 0.99494057078474241 -0.10046522088031731 
1 0 6300 3032 0 -1 0 
1 0 -6300 3032 0 0 -1 
1 0 -3.9341272936444207e-14 600 -0 1 0 
1 0 1534.028129282035 586.02812928203491 -0 0.70710678118654757 0.70710678118654757 
1 0 2104.5085156028813 1326.5800384076888 -0 0.24198546279671249 0.97027987498198731 
1 0 1382.3821291272695 2443.8749684028298 0 -0.86168798735479823 0.50743848144227 
1 0 677.5 2460 0 -1 0 
1 0 -932.38212912726976 2708.8749684028298 0 -0.86168798735479823 -0.50743848144227 
1 0 -2208.0085156028813 1741.5800384076888 0 0.24198546279671249 -0.97027987498198731 
1 0 -1784.028129282035 836.02812928203491 0 0.70710678118654757 -0.70710678118654757 
1 0 -3329 2515 1 0 0 
1 31500 -3329 2515 0 0.24262638480345769 -0.97011980569268064 
1 31500 3329 2515 0 0.99494057078474241 0.10046522088031731 
1 31500 -6300 2815 0 0.99494057078474241 -0.10046522088031731 
1 31500 6300 2815 0 0 1 
1 31500 -6300 3032 0 0 -1 
1 31500 6300 3032 0 -1 0 
1 31500 -3.9341272936444207e-14 600 -0 1 0 
1 31500 1534.028129282035 586.02812928203491 -0 0.70710678118654757 0.70710678118654757 
1 31500 2104.5085156028813 1326.5800384076888 -0 0.24198546279671249 0.97027987498198731 
1 31500 1382.3821291272695 2443.8749684028298 0 -0.86168798735479823 0.50743848144227 
1 31500 677.5 2460 0 -1 0 
1 31500 -932.38212912726976 2708.8749684028298 0 -0.86168798735479823 -0.50743848144227 
1 31500 -2208.0085156028813 1741.5800384076888 0 0.24198546279671249 -0.97027987498198731 
1 31500 -1784.028129282035 836.02812928203491 0 0.70710678118654757 -0.70710678118654757 
1 0 6300 2815 1 0 0 
1 0 6300 3032 1 0 0 
1 0 -6300 2815 1 0 0 
1 0 -6300 3032 1 0 0 
8 0 1310
1 1300 -1548 600 -1 0 0 
1 1300 -1548 600 0 1 0 
1 1300 0 600 0 1 0 
8 0 1310
1 -10 1548 600 1 0 0 
1 1300 1548 600 0 0.70710678118654746 0.70710678118654746 
8 0 1310
1 -10 2048 1100 1 0 0 
1 1300 2048 1100 0 0.24198546279671249 0.97027987498198731 
8 0 1310
1 -10 2255 1930 1 0 0 
1 1300 2255 1930 0 -0.86168798735479823 0.50743848144227 
8 0 1310
1 -10 1355 2460 1 0 0 
1 1300 1355 2460 0 -1 0 
8 0 1310
1 -10 -1355 2460 1 0 0 
1 1300 -1355 2460 0 -0.86168798735479823 -0.50743848144227 
8 0 1310
1 -10 -2255 1930 1 0 0 
1 1300 -2255 1930 0 0.24198546279671249 -0.97027987498198731 
8 0 1310
1 -10 -2048 1100 1 0 0 
1 1300 -2048 1100 0 0.70710678118654746 -0.70710678118654746 
1 30200 -1548 600 0 1 0 
8 0 1309.9999999999891
1 31509.999999999989 -1548 600 -1 0 0 
8 0 1309.9999999999891
1 30200 1548 600 1 0 0 
1 30200 0 600 0 1 0 
8 0 1309.9999999999891
1 30200 2048 1100 1 0 0 
1 30200 1548 600 0 0.70710678118654746 0.70710678118654746 
8 0 1309.9999999999891
1 30200 2255 1930 1 0 0 
1 30200 2048 1100 0 0.24198546279671249 0.97027987498198731 
8 0 1309.9999999999891
1 30200 1355 2460 1 0 0 
1 30200 2255 1930 0 -0.86168798735479823 0.50743848144227 
8 0 1309.9999999999891
1 30200 -1355 2460 1 0 0 
1 30200 1355 2460 0 -1 0 
8 0 1309.9999999999891
1 30200 -2255 1930 1 0 0 
1 30200 -1355 2460 0 -0.86168798735479823 -0.50743848144227 
8 0 1309.9999999999891
1 30200 -2048 1100 1 0 0 
1 30200 -2255 1930 0 0.24198546279671249 -0.97027987498198731 
1 30200 -2048 1100 0 0.70710678118654746 -0.70710678118654746 
7 0 0  1 2 2  1300 0 600  2154 0 487 
 0 2 1 2
1 2154 -1760 487 0 1 0 
7 0 0  1 2 2  1300 -1548 600  2154 -1760 487 
 0 2 1 2
7 0 0  1 2 2  1300 1548 600  2154 1760 487 
 0 2 1 2
1 2154 0 487 0 1 0 
7 0 0  1 2 2  1300 2048 1100  2154 2192 919 
 0 2 1 2
1 2154 1760 487 0 0.70710678118654746 0.70710678118654746 
7 0 0  1 2 2  1300 2255 1930  2154 2445 1930 
 0 2 1 2
1 2154 2192 919 0 0.24276139051279777 0.9700860308633934 
7 0 0  1 2 2  1300 1355 2460  2154 1729 2552 
 0 2 1 2
1 2154 2445 1930 0 -0.75492321770696302 0.65581318633202657 
7 0 0  1 2 2  1300 -1355 2460  2154 -1729 2552 
 0 2 1 2
1 2154 1729 2552 0 -1 0 
7 0 0  1 2 2  1300 -2255 1930  2154 -2445 1930 
 0 2 1 2
1 2154 -1729 2552 0 -0.75492321770696302 -0.65581318633202657 
7 0 0  1 2 2  1300 -2048 1100  2154 -2192 919 
 0 2 1 2
1 2154 -2445 1930 0 0.24276139051279777 -0.9700860308633934 
1 2154 -2192 919 0 0.70710678118654746 -0.70710678118654746 
1 29346 -1760 487 0 1 0 
7 0 0  1 2 2  29346 0 487  30200 0 600 
 0 2 1 2
7 0 0  1 2 2  29346 -1760 487  30200 -1548 600 
 0 2 1 2
1 29346 0 487 0 1 0 
7 0 0  1 2 2  29346 1760 487  30200 1548 600 
 0 2 1 2
1 29346 1760 487 0 0.70710678118654746 0.70710678118654746 
7 0 0  1 2 2  29346 2192 919  30200 2048 1100 
 0 2 1 2
1 29346 2192 919 0 0.24276139051279777 0.9700860308633934 
7 0 0  1 2 2  29346 2445 1930  30200 2255 1930 
 0 2 1 2
1 29346 2445 1930 0 -0.75492321770696302 0.65581318633202657 
7 0 0  1 2 2  29346 1729 2552  30200 1355 2460 
 0 2 1 2
1 29346 1729 2552 0 -1 0 
7 0 0  1 2 2  29346 -1729 2552  30200 -1355 2460 
 0 2 1 2
1 29346 -1729 2552 0 -0.75492321770696302 -0.65581318633202657 
7 0 0  1 2 2  29346 -2445 1930  30200 -2255 1930 
 0 2 1 2
1 29346 -2445 1930 0 0.24276139051279777 -0.9700860308633934 
7 0 0  1 2 2  29346 -2192 919  30200 -2048 1100 
 0 2 1 2
1 29346 -2192 919 0 0.70710678118654746 -0.70710678118654746 
7 0 0  1 2 2  2154 0 487  3800 0 270 
 0 2 1 2
1 3800 -2171 270 0 1 0 
7 0 0  1 2 2  2154 -1760 487  3800 -2171 270 
 0 2 1 2
7 0 0  1 2 2  2154 1760 487  3800 2171 270 
 0 2 1 2
1 3800 0 270 0 1 0 
7 0 0  1 2 2  2154 2192 919  3800 2471 570 
 0 2 1 2
1 3800 2171 270 0 0.70710678118654746 0.70710678118654746 
7 0 0  1 2 2  2154 2445 1930  3800 2811 1930 
 0 2 1 2
1 3800 2471 570 0 0.242535625036333 0.97014250014533199 
7 0 0  1 2 2  2154 1729 2552  3800 1911 2430 
 0 2 1 2
1 3800 2811 1930 0 -0.87415727612153782 0.48564293117863211 
7 0 0  1 2 2  2154 -1729 2552  3800 -1911 2430 
 0 2 1 2
1 3800 1911 2430 0 -1 0 
7 0 0  1 2 2  2154 -2445 1930  3800 -2811 1930 
 0 2 1 2
1 3800 -1911 2430 0 -0.87415727612153782 -0.48564293117863211 
7 0 0  1 2 2  2154 -2192 919  3800 -2471 570 
 0 2 1 2
1 3800 -2811 1930 0 0.242535625036333 -0.97014250014533199 
1 3800 -2471 570 0 0.70710678118654746 -0.70710678118654746 
1 27700 -2171 270 0 1 0 
7 0 0  1 2 2  27700 0 270  29346 0 487 
 0 2 1 2
7 0 0  1 2 2  27700 -2171 270  29346 -1760 487 
 0 2 1 2
1 27700 0 270 0 1 0 
7 0 0  1 2 2  27700 2171 270  29346 1760 487 
 0 2 1 2
1 27700 2171 270 0 0.70710678118654746 0.70710678118654746 
7 0 0  1 2 2  27700 2471 570  29346 2192 919 
 0 2 1 2
1 27700 2471 570 0 0.242535625036333 0.97014250014533199 
7 0 0  1 2 2  27700 2811 1930  29346 2445 1930 
 0 2 1 2
1 27700 2811 1930 0 -0.87415727612153782 0.48564293117863211 
7 0 0  1 2 2  27700 1911 2430  29346 1729 2552 
 0 2 1 2
1 27700 1911 2430 0 -1 0 
7 0 0  1 2 2  27700 -1911 2430  29346 -1729 2552 
 0 2 1 2
1 27700 -1911 2430 0 -0.87415727612153782 -0.48564293117863211 
7 0 0  1 2 2  27700 -2811 1930  29346 -2445 1930 
 0 2 1 2
1 27700 -2811 1930 0 0.242535625036333 -0.97014250014533199 
7 0 0  1 2 2  27700 -2471 570  29346 -2192 919 
 0 2 1 2
1 27700 -2471 570 0 0.70710678118654746 -0.70710678118654746 
6 0 1 3800 2171 270  27700 2171 270  
6 0 1 3800 -2171 270  27700 -2171 270  
6 0 1 3800 2471 570  27700 2471 570  
6 0 1 3800 2811 1930  27700 2811 1930  
6 0 1 3800 1911 2430  27700 1911 2430  
6 0 1 3800 -1911 2430  27700 -1911 2430  
6 0 1 3800 -2811 1930  27700 -2811 1930  
6 0 1 3800 -2471 570  27700 -2471 570  
Polygon3D 0
PolygonOnTriangulations 0
Surfaces 90
1 0 0 0 0 0 1 0 1 0 -1 0 0 
1 0 2700 0 0 -0.97011980569268064 0.24262638480345769 0 0.24262638480345769 0.97011980569268064 -1 0 0 
1 0 -7.8682545872888414e-14 2092.1125171281401 1 0 0 -0 0 1 0 -1 0 
1 0 -3329 2515 -0 0.97011980569268064 0.24262638480345769 0 0.24262638480345769 -0.97011980569268064 -1 0 -0 
1 31500 -7.8682545872888414e-14 2092.1125171281401 1 0 0 -0 0 1 0 -1 0 
1 0 0 600 0 0 -1 0 1 0 1 -0 0 
1 0 1548 600 0 0.70710678118654757 -0.70710678118654757 0 0.70710678118654757 0.70710678118654757 1 -0 0 
1 0 2048 1100 0 0.97027987498198731 -0.24198546279671249 0 0.24198546279671249 0.97027987498198731 1 -0 0 
1 0 2255 1930 -0 0.50743848144227 0.86168798735479823 0 -0.86168798735479823 0.50743848144227 1 0 0 
1 0 1355 2460 -0 0 1 0 -1 0 1 0 0 
1 0 -1355 2460 0 -0.50743848144227 0.86168798735479823 0 -0.86168798735479823 -0.50743848144227 1 0 0 
1 0 -2255 1930 0 -0.97027987498198731 -0.24198546279671249 0 0.24198546279671249 -0.97027987498198731 1 0 0 
1 0 -2048 1100 0 -0.70710678118654757 -0.70710678118654757 0 0.70710678118654757 -0.70710678118654757 1 0 0 
1 31499.999999999996 0 600 0 0 -1 0 1 0 1 -0 0 
1 31499.999999999996 1548 600 0 0.70710678118654757 -0.70710678118654757 0 0.70710678118654757 0.70710678118654757 1 -0 0 
1 31499.999999999996 2048 1100 0 0.97027987498198731 -0.24198546279671249 0 0.24198546279671249 0.97027987498198731 1 -0 0 
1 31499.999999999996 2255 1930 -0 0.50743848144227 0.86168798735479823 0 -0.86168798735479823 0.50743848144227 1 0 0 
1 31499.999999999996 1355 2460 -0 0 1 0 -1 0 1 0 0 
1 31499.999999999996 -1355 2460 0 -0.50743848144227 0.86168798735479823 0 -0.86168798735479823 -0.50743848144227 1 0 0 
1 31499.999999999996 -2255 1930 0 -0.97027987498198731 -0.24198546279671249 0 0.24198546279671249 -0.97027987498198731 1 0 0 
1 31499.999999999996 -2048 1100 0 -0.70710678118654757 -0.70710678118654757 0 0.70710678118654757 -0.70710678118654757 1 0 0 
1 0 3329 2515 0 -0.10046522088031733 0.99494057078474252 0 0.99494057078474252 0.10046522088031733 -1 0 0 
1 0 6300 2815 0 -1 0 0 0 1 -1 0 0 
1 0 -6300 2815 -0 0.10046522088031733 0.99494057078474252 0 0.99494057078474252 -0.10046522088031733 -1 0 -0 
1 0 6300 3032 0 0 -1 0 -1 0 -1 -0 -0 
1 0 -6300 3032 -0 1 0 0 0 -1 -1 0 -0 
9 0 0 0 0 1 1 2 2 2 2 1300 -1548 600  2154 -1760 487  
1300 0 600  2154 0 487  

0 2
1760 2

0 2
1 2

1 1300 -1548 600 0 0 -1 0 1 0 1 -0 0 
9 0 0 0 0 1 1 2 2 2 2 1300 0 600  2154 0 487  
1300 1548 600  2154 1760 487  

0 2
1760 2

0 2
1 2

1 1300 0 600 0 0 -1 0 1 0 1 -0 0 
9 0 0 0 0 1 1 2 2 2 2 1300 1548 600  2154 1760 487  
1300 2048 1100  2154 2192 919  

0 2
707.10678118654755 2

0 2
1 2

1 1300 1548 600 0 0.70710678118654757 -0.70710678118654757 0 0.70710678118654757 0.70710678118654757 1 -0 0 
9 0 0 0 0 1 1 2 2 2 2 1300 2048 1100  2154 2192 919  
1300 2255 1930  2154 2445 1930  

0 2
1042.1756090026288 2

0 2
1 2

1 1300 2048 1100 0 0.97027987498198731 -0.24198546279671249 0 0.24198546279671249 0.97027987498198731 1 -0 0 
9 0 0 0 0 1 1 2 2 2 2 1300 2255 1930  2154 2445 1930  
1300 1355 2460  2154 1729 2552  

0 2
1044.4615837837216 2

0 2
1 2

1 1300 2255 1930 -0 0.50743848144227 0.86168798735479823 0 -0.86168798735479823 0.50743848144227 1 0 0 
9 0 0 0 0 1 1 2 2 2 2 1300 1355 2460  2154 1729 2552  
1300 -1355 2460  2154 -1729 2552  

0 2
3458 2

0 2
1 2

1 1300 1355 2460 -0 0 1 0 -1 0 1 0 0 
9 0 0 0 0 1 1 2 2 2 2 1300 -1355 2460  2154 -1729 2552  
1300 -2255 1930  2154 -2445 1930  

0 2
1044.4615837837216 2

0 2
1 2

1 1300 -1355 2460 0 -0.50743848144227 0.86168798735479823 0 -0.86168798735479823 -0.50743848144227 1 0 0 
9 0 0 0 0 1 1 2 2 2 2 1300 -2255 1930  2154 -2445 1930  
1300 -2048 1100  2154 -2192 919  

0 2
1042.1756090026288 2

0 2
1 2

1 1300 -2255 1930 0 -0.97027987498198731 -0.24198546279671249 0 0.24198546279671249 -0.97027987498198731 1 0 0 
9 0 0 0 0 1 1 2 2 2 2 1300 -2048 1100  2154 -2192 919  
1300 -1548 600  2154 -1760 487  

0 2
707.10678118654755 2

0 2
1 2

1 1300 -2048 1100 0 -0.70710678118654757 -0.70710678118654757 0 0.70710678118654757 -0.70710678118654757 1 0 0 
9 0 0 0 0 1 1 2 2 2 2 29346 -1760 487  30200 -1548 600  
29346 0 487  30200 0 600  

0 2
1760 2

0 2
1 2

1 31499.999999999996 -1548 600 0 0 -1 0 1 0 1 -0 0 
9 0 0 0 0 1 1 2 2 2 2 29346 0 487  30200 0 600  
29346 1760 487  30200 1548 600  

0 2
1760 2

0 2
1 2

1 31499.999999999996 0 600 0 0 -1 0 1 0 1 -0 0 
9 0 0 0 0 1 1 2 2 2 2 29346 1760 487  30200 1548 600  
29346 2192 919  30200 2048 1100  

0 2
707.10678118654755 2

0 2
1 2

1 31499.999999999996 1548 600 0 0.70710678118654757 -0.70710678118654757 0 0.70710678118654757 0.70710678118654757 1 -0 0 
9 0 0 0 0 1 1 2 2 2 2 29346 2192 919  30200 2048 1100  
29346 2445 1930  30200 2255 1930  

0 2
1042.1756090026288 2

0 2
1 2

1 31499.999999999996 2048 1100 0 0.97027987498198731 -0.24198546279671249 0 0.24198546279671249 0.97027987498198731 1 -0 0 
9 0 0 0 0 1 1 2 2 2 2 29346 2445 1930  30200 2255 1930  
29346 1729 2552  30200 1355 2460  

0 2
1044.4615837837216 2

0 2
1 2

1 31499.999999999996 2255 1930 -0 0.50743848144227 0.86168798735479823 0 -0.86168798735479823 0.50743848144227 1 0 0 
9 0 0 0 0 1 1 2 2 2 2 29346 1729 2552  30200 1355 2460  
29346 -1729 2552  30200 -1355 2460  

0 2
3458 2

0 2
1 2

1 31499.999999999996 1355 2460 -0 0 1 0 -1 0 1 0 0 
9 0 0 0 0 1 1 2 2 2 2 29346 -1729 2552  30200 -1355 2460  
29346 -2445 1930  30200 -2255 1930  

0 2
1044.4615837837216 2

0 2
1 2

1 31499.999999999996 -1355 2460 0 -0.50743848144227 0.86168798735479823 0 -0.86168798735479823 -0.50743848144227 1 0 0 
9 0 0 0 0 1 1 2 2 2 2 29346 -2445 1930  30200 -2255 1930  
29346 -2192 919  30200 -2048 1100  

0 2
1042.1756090026288 2

0 2
1 2

1 31499.999999999996 -2255 1930 0 -0.97027987498198731 -0.24198546279671249 0 0.24198546279671249 -0.97027987498198731 1 0 0 
9 0 0 0 0 1 1 2 2 2 2 29346 -2192 919  30200 -2048 1100  
29346 -1760 487  30200 -1548 600  

0 2
707.10678118654755 2

0 2
1 2

1 31499.999999999996 -2048 1100 0 -0.70710678118654757 -0.70710678118654757 0 0.70710678118654757 -0.70710678118654757 1 0 0 
9 0 0 0 0 1 1 2 2 2 2 2154 -1760 487  3800 -2171 270  
2154 0 487  3800 0 270  

0 2
2171 2

0 2
1 2

9 0 0 0 0 1 1 2 2 2 2 2154 0 487  3800 0 270  
2154 1760 487  3800 2171 270  

0 2
2171 2

0 2
1 2

9 0 0 0 0 1 1 2 2 2 2 2154 1760 487  3800 2171 270  
2154 2192 919  3800 2471 570  

0 2
610.94025894517711 2

0 2
1 2

9 0 0 0 0 1 1 2 2 2 2 2154 2192 919  3800 2471 570  
2154 2445 1930  3800 2811 1930  

0 2
1401.8559127100045 2

0 2
1 2

9 0 0 0 0 1 1 2 2 2 2 2154 2445 1930  3800 2811 1930  
2154 1729 2552  3800 1911 2430  

0 2
1029.5630140987 2

0 2
1 2

9 0 0 0 0 1 1 2 2 2 2 2154 1729 2552  3800 1911 2430  
2154 -1729 2552  3800 -1911 2430  

0 2
3822 2

0 2
1 2

9 0 0 0 0 1 1 2 2 2 2 2154 -1729 2552  3800 -1911 2430  
2154 -2445 1930  3800 -2811 1930  

0 2
1029.5630140987 2

0 2
1 2

9 0 0 0 0 1 1 2 2 2 2 2154 -2445 1930  3800 -2811 1930  
2154 -2192 919  3800 -2471 570  

0 2
1401.8559127100045 2

0 2
1 2

9 0 0 0 0 1 1 2 2 2 2 2154 -2192 919  3800 -2471 570  
2154 -1760 487  3800 -2171 270  

0 2
610.94025894517711 2

0 2
1 2

9 0 0 0 0 1 1 2 2 2 2 27700 -2171 270  29346 -1760 487  
27700 0 270  29346 0 487  

0 2
2171 2

0 2
1 2

9 0 0 0 0 1 1 2 2 2 2 27700 0 270  29346 0 487  
27700 2171 270  29346 1760 487  

0 2
2171 2

0 2
1 2

9 0 0 0 0 1 1 2 2 2 2 27700 2171 270  29346 1760 487  
27700 2471 570  29346 2192 919  

0 2
610.94025894517711 2

0 2
1 2

9 0 0 0 0 1 1 2 2 2 2 27700 2471 570  29346 2192 919  
27700 2811 1930  29346 2445 1930  

0 2
1401.8559127100045 2

0 2
1 2

9 0 0 0 0 1 1 2 2 2 2 27700 2811 1930  29346 2445 1930  
27700 1911 2430  29346 1729 2552  

0 2
1029.5630140987 2

0 2
1 2

9 0 0 0 0 1 1 2 2 2 2 27700 1911 2430  29346 1729 2552  
27700 -1911 2430  29346 -1729 2552  

0 2
3822 2

0 2
1 2

9 0 0 0 0 1 1 2 2 2 2 27700 -1911 2430  29346 -1729 2552  
27700 -2811 1930  29346 -2445 1930  

0 2
1029.5630140987 2

0 2
1 2

9 0 0 0 0 1 1 2 2 2 2 27700 -2811 1930  29346 -2445 1930  
27700 -2471 570  29346 -2192 919  

0 2
1401.8559127100045 2

0 2
1 2

9 0 0 0 0 1 1 2 2 2 2 27700 -2471 570  29346 -2192 919  
27700 -2171 270  29346 -1760 487  

0 2
610.94025894517711 2

0 2
1 2

1 27700 -2171 270 0 0 -1 0 1 0 1 -0 0 
1 27700 0 270 0 0 -1 0 1 0 1 -0 0 
1 27700 2171 270 0 0.70710678118654757 -0.70710678118654757 0 0.70710678118654757 0.70710678118654757 1 -0 0 
1 27700 2471 570 0 0.97014250014533199 -0.242535625036333 0 0.242535625036333 0.97014250014533199 1 -0 0 
1 27700 2811 1930 -0 0.48564293117863211 0.87415727612153782 0 -0.87415727612153782 0.48564293117863211 1 0 0 
1 27700 1911 2430 -0 0 1 0 -1 0 1 0 0 
1 27700 -1911 2430 0 -0.48564293117863211 0.87415727612153782 0 -0.87415727612153782 -0.48564293117863211 1 0 0 
1 27700 -2811 1930 0 -0.97014250014533199 -0.242535625036333 0 0.242535625036333 -0.97014250014533199 1 0 0 
1 27700 -2471 570 0 -0.70710678118654757 -0.70710678118654757 0 0.70710678118654757 -0.70710678118654757 1 0 0 
1 27700 0 270 0 0 -1 0 1 0 1 -0 0 
Triangulations 0

TShapes 385
Ve
1e-07
0 2700 0
0 0

0101101
*
Ve
1e-07
31500 2700 0
0 0

0101101
*
Ed
 1e-07 1 1 0
1  1 0 0 31500
2  1 2 0 0 31500
0

0101000
+385 0 -384 0 *
Ve
1e-07
0 -2700 0
0 0

0101101
*
Ed
 1e-07 1 1 0
1  2 0 0 5400
2  2 3 0 0 5400
0

0101000
+382 0 -385 0 *
Ve
1e-07
31500 -2700 0
0 0

0101101
*
Ed
 1e-07 1 1 0
1  3 0 0 31500
2  3 4 0 0 31500
0

0101000
+382 0 -380 0 *
Ed
 1e-07 1 1 0
1  4 0 0 5400
2  4 5 0 0 5400
0

0101000
+384 0 -380 0 *
Wi

0101100
-383 0 -381 0 +379 0 -378 0 *
Fa
0  0 1 0

0111000
+377 0 *
Ve
1e-07
0 3329 2515
0 0

0101101
*
Ve
1e-07
31500 3329 2515
0 0

0101101
*
Ed
 1e-07 1 1 0
1  5 0 0 31500
2  5 2 0 0 31500
0

0101000
+375 0 -374 0 *
Ed
 1e-07 1 1 0
1  6 0 0 2592.46330735847
2  6 3 0 0 2592.46330735847
2  7 2 0 0 2592.46330735847
0

0101000
+385 0 -375 0 *
Ed
 1e-07 1 1 0
1  7 0 0 2592.46330735847
2  8 5 0 0 2592.46330735847
2  9 2 0 0 2592.46330735847
0

0101000
+384 0 -374 0 *
Wi

0101100
+383 0 -373 0 -372 0 +371 0 *
Fa
0  1e-07 2 0

0101000
+370 0 *
Ve
1e-07
0 6300 2815
0 0

0101101
*
Ed
 1e-07 1 1 0
1  8 0 0 2986.10800206556
2  10 3 0 0 2986.10800206556
0

0101000
+375 0 -368 0 *
Ve
1e-07
0 -3329 2515
0 0

0101101
*
Ed
 1e-07 1 1 0
1  9 0 0 2592.46330735847
2  11 3 0 0 2592.46330735847
2  12 4 0 0 2592.46330735847
0

0101000
+366 0 -382 0 *
Ve
1e-07
0 6300 3032
0 0

0101101
*
Ed
 1e-07 1 1 0
1  10 0 0 217
2  13 3 0 0 217
0

0101000
+368 0 -364 0 *
Ve
1e-07
0 -6300 2815
0 0

0101101
*
Ed
 1e-07 1 1 0
1  11 0 0 2986.10800206556
2  14 3 0 0 2986.10800206556
0

0101000
+362 0 -366 0 *
Ve
1e-07
0 -6300 3032
0 0

0101101
*
Ed
 1e-07 1 1 0
1  12 0 0 12600
2  15 3 0 0 12600
0

0101000
+364 0 -360 0 *
Ed
 1e-07 1 1 0
1  13 0 0 217
2  16 3 0 0 217
0

0101000
+360 0 -362 0 *
Wi

0101100
+372 0 +381 0 +367 0 +365 0 +363 0 +361 0 +359 0 +358 0 *
Ve
1.50000113686838e-07
0 -1548 600
0 0

0101101
*
Ve
1.5e-07
0 1548 600
0 0

0101101
*
Ed
 1.5e-07 1 1 0
1  14 0 -1548 1548
2  17 3 0 -1548 1548
2  18 6 0 -1548 1548
0

0101000
+356 0 -355 0 *
Ve
1.50000227373675e-07
0 2048 1100
0 0

0101101
*
Ed
 1.5e-07 1 1 0
1  15 0 19.7592090610697 726.865990247617
2  19 3 0 19.7592090610697 726.865990247617
2  20 7 0 19.7592090610697 726.865990247617
0

0101000
+355 0 -353 0 *
Ve
1.50000227373675e-07
0 2255 1930
0 0

0101101
*
Ed
 1.5e-07 1 1 0
1  16 0 -233.520290639745 621.902996394224
2  21 3 0 -233.520290639745 621.902996394224
2  22 8 0 -233.520290639745 621.902996394224
0

0101000
+353 0 -351 0 *
Ve
1.50000508422995e-07
0 1355 2460
0 0

0101101
*
Ed
 1.5e-07 1 1 0
1  17 0 -1012.68427049968 31.7773132840427
2  23 3 0 -1012.68427049968 31.7773132840427
2  24 9 0 -1012.68427049968 31.7773132840427
0

0101000
+351 0 -349 0 *
Ve
1.5e-07
0 -1355 2460
0 0

0101101
*
Ed
 1.5e-07 1 1 0
1  18 0 -677.5 2032.5
2  25 3 0 -677.5 2032.5
2  26 10 0 -677.5 2032.5
0

0101000
+349 0 -347 0 *
Ve
1.5e-07
0 -2255 1930
0 0

0101101
*
Ed
 1.5e-07 1 1 0
1  19 0 490.453478607818 1534.91506239154
2  27 3 0 490.453478607818 1534.91506239154
2  28 11 0 490.453478607818 1534.91506239154
0

0101000
+347 0 -345 0 *
Ve
1.50000227373675e-07
0 -2048 1100
0 0

0101101
*
Ed
 1.5e-07 1 1 0
1  20 0 -194.19135287724 661.231934156729
2  29 3 0 -194.19135287724 661.231934156729
2  30 12 0 -194.19135287724 661.231934156729
0

0101000
+345 0 -343 0 *
Ed
 1.5e-07 1 1 0
1  21 0 -373.312599654343 333.794181532204
2  31 3 0 -373.312599654343 333.794181532204
2  32 13 0 -373.312599654343 333.794181532204
0

0101000
+343 0 -356 0 *
Wi

0101100
-354 0 -352 0 -350 0 -348 0 -346 0 -344 0 -342 0 -341 0 *
Fa
0  1e-07 3 0

0101000
+357 0 +340 0 *
Ve
1e-07
31500 -3329 2515
0 0

0101101
*
Ed
 1e-07 1 1 0
1  22 0 0 31500
2  33 4 0 0 31500
0

0101000
+366 0 -338 0 *
Ed
 1e-07 1 1 0
1  23 0 0 2592.46330735847
2  34 5 0 0 2592.46330735847
2  35 4 0 0 2592.46330735847
0

0101000
+338 0 -380 0 *
Wi

0101100
+337 0 -379 0 -365 0 +336 0 *
Fa
0  1e-07 4 0

0101000
+335 0 *
Ve
1e-07
31500 6300 2815
0 0

0101101
*
Ed
 1e-07 1 1 0
1  24 0 0 2986.10800206556
2  36 5 0 0 2986.10800206556
0

0101000
+374 0 -333 0 *
Ve
1e-07
31500 -6300 2815
0 0

0101101
*
Ed
 1e-07 1 1 0
1  25 0 0 2986.10800206556
2  37 5 0 0 2986.10800206556
0

0101000
+331 0 -338 0 *
Ve
1e-07
31500 6300 3032
0 0

0101101
*
Ed
 1e-07 1 1 0
1  26 0 0 217
2  38 5 0 0 217
0

0101000
+333 0 -329 0 *
Ve
1e-07
31500 -6300 3032
0 0

0101101
*
Ed
 1e-07 1 1 0
1  27 0 0 217
2  39 5 0 0 217
0

0101000
+327 0 -331 0 *
Ed
 1e-07 1 1 0
1  28 0 0 12600
2  40 5 0 0 12600
0

0101000
+329 0 -327 0 *
Wi

0101100
-378 0 +371 0 +336 0 +332 0 +330 0 +328 0 +326 0 +325 0 *
Ve
1.50000113686838e-07
31500 -1548 600
0 0

0101101
*
Ve
1.5e-07
31500 1548 600
0 0

0101101
*
Ed
 1.5e-07 1 1 0
1  29 0 -1548 1548
2  41 5 0 -1548 1548
2  42 14 0 -1548 1548
0

0101000
+323 0 -322 0 *
Ve
1.50000227373675e-07
31500 2048 1100
0 0

0101101
*
Ed
 1.5e-07 1 1 0
1  30 0 19.7592090610697 726.865990247617
2  43 5 0 19.7592090610697 726.865990247617
2  44 15 0 19.7592090610697 726.865990247617
0

0101000
+322 0 -320 0 *
Ve
1.50000227373675e-07
31500 2255 1930
0 0

0101101
*
Ed
 1.5e-07 1 1 0
1  31 0 -233.520290639745 621.902996394224
2  45 5 0 -233.520290639745 621.902996394224
2  46 16 0 -233.520290639745 621.902996394224
0

0101000
+320 0 -318 0 *
Ve
1.50000508422995e-07
31500 1355 2460
0 0

0101101
*
Ed
 1.5e-07 1 1 0
1  32 0 -1012.68427049968 31.7773132840427
2  47 5 0 -1012.68427049968 31.7773132840427
2  48 17 0 -1012.68427049968 31.7773132840427
0

0101000
+318 0 -316 0 *
Ve
1.5e-07
31500 -1355 2460
0 0

0101101
*
Ed
 1.5e-07 1 1 0
1  33 0 -677.5 2032.5
2  49 5 0 -677.5 2032.5
2  50 18 0 -677.5 2032.5
0

0101000
+316 0 -314 0 *
Ve
1.5e-07
31500 -2255 1930
0 0

0101101
*
Ed
 1.5e-07 1 1 0
1  34 0 490.453478607818 1534.91506239154
2  51 5 0 490.453478607818 1534.91506239154
2  52 19 0 490.453478607818 1534.91506239154
0

0101000
+314 0 -312 0 *
Ve
1.50000227373675e-07
31500 -2048 1100
0 0

0101101
*
Ed
 1.5e-07 1 1 0
1  35 0 -194.19135287724 661.231934156729
2  53 5 0 -194.19135287724 661.231934156729
2  54 20 0 -194.19135287724 661.231934156729
0

0101000
+312 0 -310 0 *
Ed
 1.5e-07 1 1 0
1  36 0 -373.312599654343 333.794181532204
2  55 5 0 -373.312599654343 333.794181532204
2  56 21 0 -373.312599654343 333.794181532204
0

0101000
+310 0 -323 0 *
Wi

0101100
-321 0 -319 0 -317 0 -315 0 -313 0 -311 0 -309 0 -308 0 *
Fa
0  1e-07 5 0

0101000
+324 0 +307 0 *
Ed
 1e-07 1 1 0
1  37 0 0 31500
0

0101000
+368 0 -333 0 *
Wi

0101100
+373 0 -305 0 -367 0 +332 0 *
Fa
0  1e-07 22 0

0101000
+304 0 *
Ed
 1e-07 1 1 0
1  38 0 0 31500
0

0101000
+364 0 -329 0 *
Wi

0101100
+305 0 -302 0 -363 0 +328 0 *
Fa
0  1e-07 23 0

0101000
+301 0 *
Ed
 1e-07 1 1 0
1  39 0 0 31500
0

0101000
+362 0 -331 0 *
Wi

0101100
+299 0 -337 0 -361 0 +330 0 *
Fa
0  1e-07 24 0

0101000
+298 0 *
Ed
 1e-07 1 1 0
1  40 0 0 31500
0

0101000
+360 0 -327 0 *
Wi

0101100
+302 0 -296 0 -359 0 +325 0 *
Fa
0  1e-07 25 0

0101000
+295 0 *
Wi

0101100
+296 0 -299 0 -358 0 +326 0 *
Fa
0  1e-07 26 0

0101000
+293 0 *
Ve
1e-07
1300 -1548 600
0 0

0101101
*
Ed
 1e-07 1 1 0
1  41 0 0 1300
2  57 6 0 0 1300
2  58 13 0 0 1300
0

0101000
+291 0 -356 0 *
Ve
1e-07
1300 0 600
0 0

0101101
*
Ed
 1e-07 1 1 0
1  42 0 0 1548
2  59 27 0 0 1548
4 C0 28 0 27 0
2  60 6 0 0 1548
0

0101000
+291 0 -289 0 *
Ve
1e-07
1300 1548 600
0 0

0101101
*
Ed
 1e-07 1 1 0
1  43 0 0 1548
2  61 29 0 0 1548
4 C0 30 0 29 0
2  62 6 0 0 1548
0

0101000
+289 0 -287 0 *
Ed
 1e-07 1 1 0
1  44 0 10 1310
2  63 6 0 10 1310
2  64 7 0 10 1310
0

0101000
+355 0 -287 0 *
Wi

0101100
+354 0 +290 0 -288 0 -286 0 +285 0 *
Fa
0  1e-07 6 0

0101000
+284 0 *
Ve
1e-07
1300 2048 1100
0 0

0101101
*
Ed
 1e-07 1 1 0
1  45 0 0 707.106781186548
2  65 31 0 0 707.106781186548
4 C0 32 0 31 0
2  66 7 0 0 707.106781186548
0

0101000
+287 0 -282 0 *
Ed
 1e-07 1 1 0
1  46 0 10 1310
2  67 7 0 10 1310
2  68 8 0 10 1310
0

0101000
+353 0 -282 0 *
Wi

0101100
-285 0 -281 0 +280 0 +352 0 *
Fa
0  1e-07 7 0

0101000
+279 0 *
Ve
1e-07
1300 2255 1930
0 0

0101101
*
Ed
 1e-07 1 1 0
1  47 0 0 855.423287033969
2  69 33 0 0 855.423287033969
4 C0 34 0 33 0
2  70 8 0 0 855.423287033969
0

0101000
+282 0 -277 0 *
Ed
 1e-07 1 1 0
1  48 0 10 1310
2  71 8 0 10 1310
2  72 9 0 10 1310
0

0101000
+351 0 -277 0 *
Wi

0101100
-280 0 -276 0 +275 0 +350 0 *
Fa
0  1e-07 8 0

0101000
+274 0 *
Ve
1e-07
1300 1355 2460
0 0

0101101
*
Ed
 1e-07 1 1 0
1  49 0 0 1044.46158378372
2  73 35 0 0 1044.46158378372
4 C0 36 0 35 0
2  74 9 0 0 1044.46158378372
0

0101000
+277 0 -272 0 *
Ed
 1e-07 1 1 0
1  50 0 10 1310
2  75 9 0 10 1310
2  76 10 0 10 1310
0

0101000
+349 0 -272 0 *
Wi

0101100
-275 0 -271 0 +270 0 +348 0 *
Fa
0  1e-07 9 0

0101000
+269 0 *
Ve
1e-07
1300 -1355 2460
0 0

0101101
*
Ed
 1e-07 1 1 0
1  51 0 0 2710
2  77 37 0 0 2710
4 C0 38 0 37 0
2  78 10 0 0 2710
0

0101000
+272 0 -267 0 *
Ed
 1e-07 1 1 0
1  52 0 10 1310
2  79 10 0 10 1310
2  80 11 0 10 1310
0

0101000
+347 0 -267 0 *
Wi

0101100
-270 0 -266 0 +265 0 +346 0 *
Fa
0  1e-07 10 0

0101000
+264 0 *
Ve
1e-07
1300 -2255 1930
0 0

0101101
*
Ed
 1e-07 1 1 0
1  53 0 0 1044.46158378372
2  81 39 0 0 1044.46158378372
4 C0 40 0 39 0
2  82 11 0 0 1044.46158378372
0

0101000
+267 0 -262 0 *
Ed
 1e-07 1 1 0
1  54 0 10 1310
2  83 11 0 10 1310
2  84 12 0 10 1310
0

0101000
+345 0 -262 0 *
Wi

0101100
-265 0 -261 0 +260 0 +344 0 *
Fa
0  1e-07 11 0

0101000
+259 0 *
Ve
1e-07
1300 -2048 1100
0 0

0101101
*
Ed
 1e-07 1 1 0
1  55 0 0 855.423287033969
2  85 41 0 0 855.423287033969
4 C0 42 0 41 0
2  86 12 0 0 855.423287033969
0

0101000
+262 0 -257 0 *
Ed
 1e-07 1 1 0
1  56 0 10 1310
2  87 12 0 10 1310
2  88 13 0 10 1310
0

0101000
+343 0 -257 0 *
Wi

0101100
-260 0 -256 0 +255 0 +342 0 *
Fa
0  1e-07 12 0

0101000
+254 0 *
Ed
 1e-07 1 1 0
1  57 0 0 707.106781186548
2  89 43 0 0 707.106781186548
4 C0 44 0 43 0
2  90 13 0 0 707.106781186548
0

0101000
+257 0 -291 0 *
Wi

0101100
-255 0 -252 0 -290 0 +341 0 *
Fa
0  1e-07 13 0

0101000
+251 0 *
Ve
1e-07
30200 -1548 600
0 0

0101101
*
Ve
1e-07
30200 0 600
0 0

0101101
*
Ed
 1e-07 1 1 0
1  58 0 0 1548
2  91 45 0 0 1548
4 C0 45 0 46 0
2  92 14 0 0 1548
0

0101000
+249 0 -248 0 *
Ed
 1e-07 1 1 0
1  59 0 9.99999999998909 1309.99999999999
2  93 14 0 9.99999999998909 1309.99999999999
2  94 21 0 9.99999999998909 1309.99999999999
0

0101000
+323 0 -249 0 *
Ve
1e-07
30200 1548 600
0 0

0101101
*
Ed
 1e-07 1 1 0
1  60 0 0 1300
2  95 14 0 0 1300
2  96 15 0 0 1300
0

0101000
+245 0 -322 0 *
Ed
 1e-07 1 1 0
1  61 0 0 1548
2  97 47 0 0 1548
4 C0 47 0 48 0
2  98 14 0 0 1548
0

0101000
+248 0 -245 0 *
Wi

0101100
+247 0 +246 0 -321 0 +244 0 +243 0 *
Fa
0  1e-07 14 0

0101000
+242 0 *
Ve
1e-07
30200 2048 1100
0 0

0101101
*
Ed
 1e-07 1 1 0
1  62 0 0 1300
2  99 15 0 0 1300
2  100 16 0 0 1300
0

0101000
+240 0 -320 0 *
Ed
 1e-07 1 1 0
1  63 0 0 707.106781186548
2  101 49 0 0 707.106781186548
4 C0 49 0 50 0
2  102 15 0 0 707.106781186548
0

0101000
+245 0 -240 0 *
Wi

0101100
-244 0 -319 0 +239 0 +238 0 *
Fa
0  1e-07 15 0

0101000
+237 0 *
Ve
1e-07
30200 2255 1930
0 0

0101101
*
Ed
 1e-07 1 1 0
1  64 0 0 1300
2  103 16 0 0 1300
2  104 17 0 0 1300
0

0101000
+235 0 -318 0 *
Ed
 1e-07 1 1 0
1  65 0 0 855.423287033969
2  105 51 0 0 855.423287033969
4 C0 51 0 52 0
2  106 16 0 0 855.423287033969
0

0101000
+240 0 -235 0 *
Wi

0101100
-239 0 -317 0 +234 0 +233 0 *
Fa
0  1e-07 16 0

0101000
+232 0 *
Ve
1e-07
30200 1355 2460
0 0

0101101
*
Ed
 1e-07 1 1 0
1  66 0 0 1300
2  107 17 0 0 1300
2  108 18 0 0 1300
0

0101000
+230 0 -316 0 *
Ed
 1e-07 1 1 0
1  67 0 0 1044.46158378372
2  109 53 0 0 1044.46158378372
4 C0 53 0 54 0
2  110 17 0 0 1044.46158378372
0

0101000
+235 0 -230 0 *
Wi

0101100
-234 0 -315 0 +229 0 +228 0 *
Fa
0  1e-07 17 0

0101000
+227 0 *
Ve
1e-07
30200 -1355 2460
0 0

0101101
*
Ed
 1e-07 1 1 0
1  68 0 0 1300
2  111 18 0 0 1300
2  112 19 0 0 1300
0

0101000
+225 0 -314 0 *
Ed
 1e-07 1 1 0
1  69 0 0 2710
2  113 55 0 0 2710
4 C0 55 0 56 0
2  114 18 0 0 2710
0

0101000
+230 0 -225 0 *
Wi

0101100
-229 0 -313 0 +224 0 +223 0 *
Fa
0  1e-07 18 0

0101000
+222 0 *
Ve
1e-07
30200 -2255 1930
0 0

0101101
*
Ed
 1e-07 1 1 0
1  70 0 0 1300
2  115 19 0 0 1300
2  116 20 0 0 1300
0

0101000
+220 0 -312 0 *
Ed
 1e-07 1 1 0
1  71 0 0 1044.46158378372
2  117 57 0 0 1044.46158378372
4 C0 57 0 58 0
2  118 19 0 0 1044.46158378372
0

0101000
+225 0 -220 0 *
Wi

0101100
-224 0 -311 0 +219 0 +218 0 *
Fa
0  1e-07 19 0

0101000
+217 0 *
Ve
1e-07
30200 -2048 1100
0 0

0101101
*
Ed
 1e-07 1 1 0
1  72 0 0 1300
2  119 20 0 0 1300
2  120 21 0 0 1300
0

0101000
+215 0 -310 0 *
Ed
 1e-07 1 1 0
1  73 0 0 855.423287033969
2  121 59 0 0 855.423287033969
4 C0 59 0 60 0
2  122 20 0 0 855.423287033969
0

0101000
+220 0 -215 0 *
Wi

0101100
-219 0 -309 0 +214 0 +213 0 *
Fa
0  1e-07 20 0

0101000
+212 0 *
Ed
 1e-07 1 1 0
1  74 0 0 707.106781186548
2  123 61 0 0 707.106781186548
4 C0 61 0 62 0
2  124 21 0 0 707.106781186548
0

0101000
+215 0 -249 0 *
Wi

0101100
-214 0 -308 0 -246 0 +210 0 *
Fa
0  1e-07 21 0

0101000
+209 0 *
Ve
1e-07
2154 0 487
0 0

0101101
*
Ed
 1e-07 1 1 0
1  75 0 0 1
2  125 29 0 0 1
2  126 27 0 0 1
4 C2 29 0 27 0
0

0101000
+289 0 -207 0 *
Ve
1e-07
2154 -1760 487
0 0

0101101
*
Ed
 1e-07 1 1 0
1  76 0 0 1760
2  127 27 0 0 1760
2  128 63 0 0 1760
4 C0 27 0 63 0
0

0101000
+205 0 -207 0 *
Ed
 1e-07 1 1 0
1  77 0 0 1
2  129 43 0 0 1
2  130 27 0 0 1
4 C0 43 0 27 0
0

0101000
+291 0 -205 0 *
Wi

0101100
+288 0 +206 0 -204 0 -203 0 *
Fa
0  1e-07 27 0

0101000
+202 0 *
Ve
1e-07
2154 1760 487
0 0

0101101
*
Ed
 1e-07 1 1 0
1  78 0 0 1
2  131 29 0 0 1
2  132 31 0 0 1
4 C0 29 0 31 0
0

0101000
+287 0 -200 0 *
Ed
 1e-07 1 1 0
1  79 0 0 1760
2  133 29 0 0 1760
2  134 64 0 0 1760
4 C0 29 0 64 0
0

0101000
+207 0 -200 0 *
Wi

0101100
+286 0 +199 0 -198 0 -206 0 *
Fa
0  1e-07 29 0

0101000
+197 0 *
Ve
1e-07
2154 2192 919
0 0

0101101
*
Ed
 1e-07 1 1 0
1  80 0 0 1
2  135 31 0 0 1
2  136 33 0 0 1
4 C0 31 0 33 0
0

0101000
+282 0 -195 0 *
Ed
 1e-07 1 1 0
1  81 0 0 610.940258945177
2  137 31 0 0 610.940258945177
2  138 65 0 0 610.940258945177
4 C0 31 0 65 0
0

0101000
+200 0 -195 0 *
Wi

0101100
+281 0 +194 0 -193 0 -199 0 *
Fa
0  1e-07 31 0

0101000
+192 0 *
Ve
1e-07
2154 2445 1930
0 0

0101101
*
Ed
 1e-07 1 1 0
1  82 0 0 1
2  139 33 0 0 1
2  140 35 0 0 1
4 C0 33 0 35 0
0

0101000
+277 0 -190 0 *
Ed
 1e-07 1 1 0
1  83 0 0 1042.17560900263
2  141 33 0 0 1042.17560900263
2  142 66 0 0 1042.17560900263
4 C0 33 0 66 0
0

0101000
+195 0 -190 0 *
Wi

0101100
+276 0 +189 0 -188 0 -194 0 *
Fa
0  1e-07 33 0

0101000
+187 0 *
Ve
1e-07
2154 1729 2552
0 0

0101101
*
Ed
 1e-07 1 1 0
1  84 0 0 1
2  143 35 0 0 1
2  144 37 0 0 1
4 C0 35 0 37 0
0

0101000
+272 0 -185 0 *
Ed
 1e-07 1 1 0
1  85 0 0 948.440825776706
2  145 35 0 0 948.440825776706
2  146 67 0 0 948.440825776706
4 C0 35 0 67 0
0

0101000
+190 0 -185 0 *
Wi

0101100
+271 0 +184 0 -183 0 -189 0 *
Fa
0  1e-07 35 0

0101000
+182 0 *
Ve
1e-07
2154 -1729 2552
0 0

0101101
*
Ed
 1e-07 1 1 0
1  86 0 0 1
2  147 37 0 0 1
2  148 39 0 0 1
4 C0 37 0 39 0
0

0101000
+267 0 -180 0 *
Ed
 1e-07 1 1 0
1  87 0 0 3458
2  149 37 0 0 3458
2  150 68 0 0 3458
4 C0 37 0 68 0
0

0101000
+185 0 -180 0 *
Wi

0101100
+266 0 +179 0 -178 0 -184 0 *
Fa
0  1e-07 37 0

0101000
+177 0 *
Ve
1e-07
2154 -2445 1930
0 0

0101101
*
Ed
 1e-07 1 1 0
1  88 0 0 1
2  151 39 0 0 1
2  152 41 0 0 1
4 C0 39 0 41 0
0

0101000
+262 0 -175 0 *
Ed
 1e-07 1 1 0
1  89 0 0 948.440825776706
2  153 39 0 0 948.440825776706
2  154 69 0 0 948.440825776706
4 C0 39 0 69 0
0

0101000
+180 0 -175 0 *
Wi

0101100
+261 0 +174 0 -173 0 -179 0 *
Fa
0  1e-07 39 0

0101000
+172 0 *
Ve
1e-07
2154 -2192 919
0 0

0101101
*
Ed
 1e-07 1 1 0
1  90 0 0 1
2  155 41 0 0 1
2  156 43 0 0 1
4 C0 41 0 43 0
0

0101000
+257 0 -170 0 *
Ed
 1e-07 1 1 0
1  91 0 0 1042.17560900263
2  157 41 0 0 1042.17560900263
2  158 70 0 0 1042.17560900263
4 C0 41 0 70 0
0

0101000
+175 0 -170 0 *
Wi

0101100
+256 0 +169 0 -168 0 -174 0 *
Fa
0  1e-07 41 0

0101000
+167 0 *
Ed
 1e-07 1 1 0
1  92 0 0 610.940258945177
2  159 43 0 0 610.940258945177
2  160 71 0 0 610.940258945177
4 C0 43 0 71 0
0

0101000
+170 0 -205 0 *
Wi

0101100
+252 0 +203 0 -165 0 -169 0 *
Fa
0  1e-07 43 0

0101000
+164 0 *
Ve
1e-07
29346 -1760 487
0 0

0101101
*
Ve
1e-07
29346 0 487
0 0

0101101
*
Ed
 1e-07 1 1 0
1  93 0 0 1760
2  161 72 0 0 1760
2  162 45 0 0 1760
4 C0 72 0 45 0
0

0101000
+162 0 -161 0 *
Ed
 1e-07 1 1 0
1  94 0 0 1
2  163 47 0 0 1
2  164 45 0 0 1
4 C2 47 0 45 0
0

0101000
+161 0 -248 0 *
Ed
 1e-07 1 1 0
1  95 0 0 1
2  165 61 0 0 1
2  166 45 0 0 1
4 C0 61 0 45 0
0

0101000
+162 0 -249 0 *
Wi

0101100
+160 0 +159 0 -247 0 -158 0 *
Fa
0  1e-07 45 0

0101000
+157 0 *
Ve
1e-07
29346 1760 487
0 0

0101101
*
Ed
 1e-07 1 1 0
1  96 0 0 1760
2  167 73 0 0 1760
2  168 47 0 0 1760
4 C0 73 0 47 0
0

0101000
+161 0 -155 0 *
Ed
 1e-07 1 1 0
1  97 0 0 1
2  169 47 0 0 1
2  170 49 0 0 1
4 C0 47 0 49 0
0

0101000
+155 0 -245 0 *
Wi

0101100
+154 0 +153 0 -243 0 -159 0 *
Fa
0  1e-07 47 0

0101000
+152 0 *
Ve
1e-07
29346 2192 919
0 0

0101101
*
Ed
 1e-07 1 1 0
1  98 0 0 610.940258945177
2  171 74 0 0 610.940258945177
2  172 49 0 0 610.940258945177
4 C0 74 0 49 0
0

0101000
+155 0 -150 0 *
Ed
 1e-07 1 1 0
1  99 0 0 1
2  173 49 0 0 1
2  174 51 0 0 1
4 C0 49 0 51 0
0

0101000
+150 0 -240 0 *
Wi

0101100
+149 0 +148 0 -238 0 -153 0 *
Fa
0  1e-07 49 0

0101000
+147 0 *
Ve
1e-07
29346 2445 1930
0 0

0101101
*
Ed
 1e-07 1 1 0
1  100 0 0 1042.17560900263
2  175 75 0 0 1042.17560900263
2  176 51 0 0 1042.17560900263
4 C0 75 0 51 0
0

0101000
+150 0 -145 0 *
Ed
 1e-07 1 1 0
1  101 0 0 1
2  177 51 0 0 1
2  178 53 0 0 1
4 C0 51 0 53 0
0

0101000
+145 0 -235 0 *
Wi

0101100
+144 0 +143 0 -233 0 -148 0 *
Fa
0  1e-07 51 0

0101000
+142 0 *
Ve
1e-07
29346 1729 2552
0 0

0101101
*
Ed
 1e-07 1 1 0
1  102 0 0 948.440825776706
2  179 76 0 0 948.440825776706
2  180 53 0 0 948.440825776706
4 C0 76 0 53 0
0

0101000
+145 0 -140 0 *
Ed
 1e-07 1 1 0
1  103 0 0 1
2  181 53 0 0 1
2  182 55 0 0 1
4 C0 53 0 55 0
0

0101000
+140 0 -230 0 *
Wi

0101100
+139 0 +138 0 -228 0 -143 0 *
Fa
0  1e-07 53 0

0101000
+137 0 *
Ve
1e-07
29346 -1729 2552
0 0

0101101
*
Ed
 1e-07 1 1 0
1  104 0 0 3458
2  183 77 0 0 3458
2  184 55 0 0 3458
4 C0 77 0 55 0
0

0101000
+140 0 -135 0 *
Ed
 1e-07 1 1 0
1  105 0 0 1
2  185 55 0 0 1
2  186 57 0 0 1
4 C0 55 0 57 0
0

0101000
+135 0 -225 0 *
Wi

0101100
+134 0 +133 0 -223 0 -138 0 *
Fa
0  1e-07 55 0

0101000
+132 0 *
Ve
1e-07
29346 -2445 1930
0 0

0101101
*
Ed
 1e-07 1 1 0
1  106 0 0 948.440825776706
2  187 78 0 0 948.440825776706
2  188 57 0 0 948.440825776706
4 C0 78 0 57 0
0

0101000
+135 0 -130 0 *
Ed
 1e-07 1 1 0
1  107 0 0 1
2  189 57 0 0 1
2  190 59 0 0 1
4 C0 57 0 59 0
0

0101000
+130 0 -220 0 *
Wi

0101100
+129 0 +128 0 -218 0 -133 0 *
Fa
0  1e-07 57 0

0101000
+127 0 *
Ve
1e-07
29346 -2192 919
0 0

0101101
*
Ed
 1e-07 1 1 0
1  108 0 0 1042.17560900263
2  191 79 0 0 1042.17560900263
2  192 59 0 0 1042.17560900263
4 C0 79 0 59 0
0

0101000
+130 0 -125 0 *
Ed
 1e-07 1 1 0
1  109 0 0 1
2  193 59 0 0 1
2  194 61 0 0 1
4 C0 59 0 61 0
0

0101000
+125 0 -215 0 *
Wi

0101100
+124 0 +123 0 -213 0 -128 0 *
Fa
0  1e-07 59 0

0101000
+122 0 *
Ed
 1e-07 1 1 0
1  110 0 0 610.940258945177
2  195 80 0 0 610.940258945177
2  196 61 0 0 610.940258945177
4 C0 80 0 61 0
0

0101000
+125 0 -162 0 *
Wi

0101100
+120 0 +158 0 -210 0 -123 0 *
Fa
0  1e-07 61 0

0101000
+119 0 *
Ve
1e-07
3800 0 270
0 0

0101101
*
Ed
 1e-07 1 1 0
1  111 0 0 1
2  197 64 0 0 1
2  198 63 0 0 1
4 C2 64 0 63 0
0

0101000
+207 0 -117 0 *
Ve
1e-07
3800 -2171 270
0 0

0101101
*
Ed
 1e-07 1 1 0
1  112 0 0 2171
2  199 63 0 0 2171
4 C0 63 0 81 0
0

0101000
+115 0 -117 0 *
Ed
 1e-07 1 1 0
1  113 0 0 1
2  200 71 0 0 1
2  201 63 0 0 1
4 C0 71 0 63 0
0

0101000
+205 0 -115 0 *
Wi

0101000
+204 0 +116 0 -114 0 -113 0 *
Fa
0  1e-07 63 0

0101000
+112 0 *
Ve
1e-07
3800 2171 270
0 0

0101101
*
Ed
 1e-07 1 1 0
1  114 0 0 1
2  202 64 0 0 1
2  203 65 0 0 1
4 C0 64 0 65 0
0

0101000
+200 0 -110 0 *
Ed
 1e-07 1 1 0
1  115 0 0 2171
2  204 64 0 0 2171
4 C0 64 0 82 0
0

0101000
+117 0 -110 0 *
Wi

0101000
+198 0 +109 0 -108 0 -116 0 *
Fa
0  1e-07 64 0

0101000
+107 0 *
Ve
1e-07
3800 2471 570
0 0

0101101
*
Ed
 1e-07 1 1 0
1  116 0 0 1
2  205 65 0 0 1
2  206 66 0 0 1
4 C0 65 0 66 0
0

0101000
+195 0 -105 0 *
Ed
 1e-07 1 1 0
1  117 0 0 424.264068711929
2  207 65 0 0 424.264068711929
4 C0 65 0 83 0
0

0101000
+110 0 -105 0 *
Wi

0101000
+193 0 +104 0 -103 0 -109 0 *
Fa
0  1e-07 65 0

0101000
+102 0 *
Ve
1e-07
3800 2811 1930
0 0

0101101
*
Ed
 1e-07 1 1 0
1  118 0 0 1
2  208 66 0 0 1
2  209 67 0 0 1
4 C0 66 0 67 0
0

0101000
+190 0 -100 0 *
Ed
 1e-07 1 1 0
1  119 0 0 1401.85591271
2  210 66 0 0 1401.85591271
4 C0 66 0 84 0
2  211 84 0 0 1401.85591271
0

0101000
+105 0 -100 0 *
Wi

0101000
+188 0 +99 0 -98 0 -104 0 *
Fa
0  1e-07 66 0

0101000
+97 0 *
Ve
1e-07
3800 1911 2430
0 0

0101101
*
Ed
 1e-07 1 1 0
1  120 0 0 1
2  212 67 0 0 1
2  213 68 0 0 1
4 C0 67 0 68 0
0

0101000
+185 0 -95 0 *
Ed
 1e-07 1 1 0
1  121 0 0 1029.5630140987
2  214 67 0 0 1029.5630140987
4 C0 67 0 85 0
2  215 85 0 0 1029.5630140987
0

0101000
+100 0 -95 0 *
Wi

0101000
+183 0 +94 0 -93 0 -99 0 *
Fa
0  1e-07 67 0

0101000
+92 0 *
Ve
1e-07
3800 -1911 2430
0 0

0101101
*
Ed
 1e-07 1 1 0
1  122 0 0 1
2  216 68 0 0 1
2  217 69 0 0 1
4 C0 68 0 69 0
0

0101000
+180 0 -90 0 *
Ed
 1e-07 1 1 0
1  123 0 0 3822
2  218 68 0 0 3822
4 C0 68 0 86 0
0

0101000
+95 0 -90 0 *
Wi

0101000
+178 0 +89 0 -88 0 -94 0 *
Fa
0  1e-07 68 0

0101000
+87 0 *
Ve
1e-07
3800 -2811 1930
0 0

0101101
*
Ed
 1e-07 1 1 0
1  124 0 0 1
2  219 69 0 0 1
2  220 70 0 0 1
4 C0 69 0 70 0
0

0101000
+175 0 -85 0 *
Ed
 1e-07 1 1 0
1  125 0 0 1029.5630140987
2  221 69 0 0 1029.5630140987
4 C0 69 0 87 0
2  222 87 0 0 1029.5630140987
0

0101000
+90 0 -85 0 *
Wi

0101000
+173 0 +84 0 -83 0 -89 0 *
Fa
0  1e-07 69 0

0101000
+82 0 *
Ve
1e-07
3800 -2471 570
0 0

0101101
*
Ed
 1e-07 1 1 0
1  126 0 0 1
2  223 70 0 0 1
2  224 71 0 0 1
4 C0 70 0 71 0
0

0101000
+170 0 -80 0 *
Ed
 1e-07 1 1 0
1  127 0 0 1401.85591271
2  225 70 0 0 1401.85591271
4 C0 70 0 88 0
2  226 88 0 0 1401.85591271
0

0101000
+85 0 -80 0 *
Wi

0101000
+168 0 +79 0 -78 0 -84 0 *
Fa
0  1e-07 70 0

0101000
+77 0 *
Ed
 1e-07 1 1 0
1  128 0 0 424.264068711929
2  227 71 0 0 424.264068711929
4 C0 71 0 89 0
0

0101000
+80 0 -115 0 *
Wi

0101000
+165 0 +113 0 -75 0 -79 0 *
Fa
0  1e-07 71 0

0101000
+74 0 *
Ve
1e-07
27700 -2171 270
0 0

0101101
*
Ve
1e-07
27700 0 270
0 0

0101101
*
Ed
 1e-07 1 1 0
1  129 0 0 2171
2  228 72 0 0 2171
4 C0 81 0 72 0
0

0101000
+72 0 -71 0 *
Ed
 1e-07 1 1 0
1  130 0 0 1
2  229 73 0 0 1
2  230 72 0 0 1
4 C2 73 0 72 0
0

0101000
+71 0 -161 0 *
Ed
 1e-07 1 1 0
1  131 0 0 1
2  231 80 0 0 1
2  232 72 0 0 1
4 C0 80 0 72 0
0

0101000
+72 0 -162 0 *
Wi

0101000
+70 0 +69 0 -160 0 -68 0 *
Fa
0  1e-07 72 0

0101000
+67 0 *
Ve
1e-07
27700 2171 270
0 0

0101101
*
Ed
 1e-07 1 1 0
1  132 0 0 2171
2  233 73 0 0 2171
4 C0 82 0 73 0
0

0101000
+71 0 -65 0 *
Ed
 1e-07 1 1 0
1  133 0 0 1
2  234 73 0 0 1
2  235 74 0 0 1
4 C0 73 0 74 0
0

0101000
+65 0 -155 0 *
Wi

0101000
+64 0 +63 0 -154 0 -69 0 *
Fa
0  1e-07 73 0

0101000
+62 0 *
Ve
1e-07
27700 2471 570
0 0

0101101
*
Ed
 1e-07 1 1 0
1  134 0 0 424.264068711929
2  236 74 0 0 424.264068711929
4 C0 83 0 74 0
0

0101000
+65 0 -60 0 *
Ed
 1e-07 1 1 0
1  135 0 0 1
2  237 74 0 0 1
2  238 75 0 0 1
4 C0 74 0 75 0
0

0101000
+60 0 -150 0 *
Wi

0101000
+59 0 +58 0 -149 0 -63 0 *
Fa
0  1e-07 74 0

0101000
+57 0 *
Ve
1e-07
27700 2811 1930
0 0

0101101
*
Ed
 1e-07 1 1 0
1  136 0 0 1401.85591271
2  239 75 0 0 1401.85591271
4 C0 84 0 75 0
2  240 84 0 0 1401.85591271
0

0101000
+60 0 -55 0 *
Ed
 1e-07 1 1 0
1  137 0 0 1
2  241 75 0 0 1
2  242 76 0 0 1
4 C0 75 0 76 0
0

0101000
+55 0 -145 0 *
Wi

0101000
+54 0 +53 0 -144 0 -58 0 *
Fa
0  1e-07 75 0

0101000
+52 0 *
Ve
1e-07
27700 1911 2430
0 0

0101101
*
Ed
 1e-07 1 1 0
1  138 0 0 1029.5630140987
2  243 76 0 0 1029.5630140987
4 C0 85 0 76 0
2  244 85 0 0 1029.5630140987
0

0101000
+55 0 -50 0 *
Ed
 1e-07 1 1 0
1  139 0 0 1
2  245 76 0 0 1
2  246 77 0 0 1
4 C0 76 0 77 0
0

0101000
+50 0 -140 0 *
Wi

0101000
+49 0 +48 0 -139 0 -53 0 *
Fa
0  1e-07 76 0

0101000
+47 0 *
Ve
1e-07
27700 -1911 2430
0 0

0101101
*
Ed
 1e-07 1 1 0
1  140 0 0 3822
2  247 77 0 0 3822
4 C0 86 0 77 0
0

0101000
+50 0 -45 0 *
Ed
 1e-07 1 1 0
1  141 0 0 1
2  248 77 0 0 1
2  249 78 0 0 1
4 C0 77 0 78 0
0

0101000
+45 0 -135 0 *
Wi

0101000
+44 0 +43 0 -134 0 -48 0 *
Fa
0  1e-07 77 0

0101000
+42 0 *
Ve
1e-07
27700 -2811 1930
0 0

0101101
*
Ed
 1e-07 1 1 0
1  142 0 0 1029.5630140987
2  250 78 0 0 1029.5630140987
4 C0 87 0 78 0
2  251 87 0 0 1029.5630140987
0

0101000
+45 0 -40 0 *
Ed
 1e-07 1 1 0
1  143 0 0 1
2  252 78 0 0 1
2  253 79 0 0 1
4 C0 78 0 79 0
0

0101000
+40 0 -130 0 *
Wi

0101000
+39 0 +38 0 -129 0 -43 0 *
Fa
0  1e-07 78 0

0101000
+37 0 *
Ve
1e-07
27700 -2471 570
0 0

0101101
*
Ed
 1e-07 1 1 0
1  144 0 0 1401.85591271
2  254 79 0 0 1401.85591271
4 C0 88 0 79 0
2  255 88 0 0 1401.85591271
0

0101000
+40 0 -35 0 *
Ed
 1e-07 1 1 0
1  145 0 0 1
2  256 79 0 0 1
2  257 80 0 0 1
4 C0 79 0 80 0
0

0101000
+35 0 -125 0 *
Wi

0101000
+34 0 +33 0 -124 0 -38 0 *
Fa
0  1e-07 79 0

0101000
+32 0 *
Ed
 1e-07 1 1 0
1  146 0 0 424.264068711929
2  258 80 0 0 424.264068711929
4 C0 89 0 80 0
0

0101000
+35 0 -72 0 *
Wi

0101000
+30 0 +68 0 -120 0 -33 0 *
Fa
0  1e-07 80 0

0101000
+29 0 *
Ed
 1e-07 1 1 0
1  147 0 0 1
4 C0 82 0 83 0
0

0101000
+110 0 -65 0 *
Ed
 1e-07 1 1 0
1  148 0 0 1
4 C0 89 0 81 0
0

0101000
+115 0 -72 0 *
Wi

0101100
+108 0 +27 0 -64 0 -70 0 -26 0 +114 0 *
Fa
0  0 90 0

0101000
+25 0 *
Ed
 1e-07 1 1 0
1  149 0 0 1
4 C0 83 0 84 0
2  259 84 0 0 1
0

0101000
+105 0 -60 0 *
Wi

0101000
+103 0 +23 0 -59 0 -27 0 *
Fa
0  1e-07 83 0

0101000
+22 0 *
Ed
 1e-07 1 1 0
1  150 0 0 1
4 C0 84 0 85 0
2  260 84 0 0 1
2  261 85 0 0 1
0

0101000
+100 0 -55 0 *
Wi

0101000
+98 0 +20 0 -54 0 -23 0 *
Fa
0  1e-07 84 0

0101000
+19 0 *
Ed
 1e-07 1 1 0
1  151 0 0 1
4 C0 85 0 86 0
2  262 85 0 0 1
0

0101000
+95 0 -50 0 *
Wi

0101000
+93 0 +17 0 -49 0 -20 0 *
Fa
0  1e-07 85 0

0101000
+16 0 *
Ed
 1e-07 1 1 0
1  152 0 0 1
4 C0 86 0 87 0
2  263 87 0 0 1
0

0101000
+90 0 -45 0 *
Wi

0101000
+88 0 +14 0 -44 0 -17 0 *
Fa
0  1e-07 86 0

0101000
+13 0 *
Ed
 1e-07 1 1 0
1  153 0 0 1
4 C0 87 0 88 0
2  264 87 0 0 1
2  265 88 0 0 1
0

0101000
+85 0 -40 0 *
Wi

0101000
+83 0 +11 0 -39 0 -14 0 *
Fa
0  1e-07 87 0

0101000
+10 0 *
Ed
 1e-07 1 1 0
1  154 0 0 1
4 C0 88 0 89 0
2  266 88 0 0 1
0

0101000
+80 0 -35 0 *
Wi

0101000
+78 0 +8 0 -34 0 -11 0 *
Fa
0  1e-07 88 0

0101000
+7 0 *
Wi

0101000
+75 0 +26 0 -30 0 -8 0 *
Fa
0  1e-07 89 0

0101000
+5 0 *
Sh

0101100
-376 0 -369 0 -339 0 -334 0 +306 0 -303 0 -300 0 -297 0 -294 0 -292 0 
-283 0 -278 0 -273 0 -268 0 -263 0 -258 0 -253 0 -250 0 -241 0 -236 0 
-231 0 -226 0 -221 0 -216 0 -211 0 -208 0 -201 0 -196 0 -191 0 -186 0 
-181 0 -176 0 -171 0 -166 0 -163 0 -156 0 -151 0 -146 0 -141 0 -136 0 
-131 0 -126 0 -121 0 -118 0 -111 0 -106 0 -101 0 -96 0 -91 0 -86 0 
-81 0 -76 0 -73 0 -66 0 -61 0 -56 0 -51 0 -46 0 -41 0 -36 0 
-31 0 -28 0 -24 0 -21 0 -18 0 -15 0 -12 0 -9 0 -6 0 -4 0 
*
So

0100000
+3 0 *
Co

1100000
+2 0 *

+1 0 