DBRep_DrawableShape

CASCADE Topology V3, (c) Open Cascade
Locations 3
1
              1              -0               0              -0 
              0               1               0              -0 
             -0               0               1          -13500 
1
              1              -0               0              -0 
              0               1               0              -0 
             -0               0               1          -12500 
2  1 1 2 -1 0
Curve2ds 52
1 0 0 1 0 
1 0 0 1 0 
1 1000 0 0 -1 
1 0 0 0 1 
1 0 -5905 1 0 
1 0 0 1 0 
1 0 0 0 -1 
1 0 0 0 1 
1 0 0 0 1 
1 0 0 1 0 
1 0 0 1 0 
1 0 8959 1 0 
1 1000 0 0 1 
1 0 0 1 0 
1 1000 0 0 1 
1 0 5905 1 0 
1 1000 0 0 -1 
1 8959 0 0 1 
1 0 0 0 -1 
1 0 0 0 1 
1 638.5 730.5 0 1 
1 0 0 0 1 
1 0 0 1 0 
1 638.5 730.5 1 0 
1 0 0 0 -1 
1 7682 0 0 1 
1 8320.5 730.5 0 1 
1 0 0 0 1 
1 0 4444 1 0 
1 638.5 5174.5 1 0 
1 0 0 0 1 
1 0 5905 1 0 
1 0 -5905 1 0 
1 0 8959 1 0 
1 0 0 0 -1 
1 8959 0 0 1 
1 0 0 1 0 
1 0 0 1 0 
1 1000 0 0 -1 
1 0 0 0 1 
1 0 -4444 1 0 
1 0 0 1 0 
1 0 0 1 0 
1 0 7682 1 0 
1 1000 0 0 1 
1 0 0 1 0 
1 1000 0 0 -1 
1 7682 0 0 1 
1 0 -4444 1 0 
1 0 7682 1 0 
1 1000 0 0 1 
1 0 4444 1 0 
Curves 24
1 -4479.5 -2952.5 -500 0 0 1 
1 -4479.5 -2952.5 500 -0 1 0 
1 -4479.5 2952.5 -500 0 0 1 
1 -4479.5 -2952.5 -500 -0 1 0 
1 -4479.5 -2952.5 -500 1 0 -0 
1 4479.5 -2952.5 -500 0 0 1 
1 -4479.5 -2952.5 500 1 0 -0 
1 -4479.5 2952.5 500 1 0 -0 
1 4479.5 -2952.5 500 -0 1 0 
1 -3841 -2222 -500 -0 1 0 
1 -3841 -2222 -500 1 0 -0 
1 3841 -2222 -500 -0 1 0 
1 -3841 2222 -500 1 0 -0 
1 -4479.5 2952.5 -500 1 0 -0 
1 4479.5 2952.5 -500 0 0 1 
1 4479.5 -2952.5 -500 -0 1 0 
1 -3841 -2222 -500 0 0 1 
1 -3841 -2222 500 -0 1 0 
1 -3841 2222 -500 0 0 1 
1 3841 -2222 -500 0 0 1 
1 -3841 -2222 500 1 0 -0 
1 3841 -2222 500 -0 1 0 
1 3841 2222 -500 0 0 1 
1 -3841 2222 500 1 0 -0 
Polygon3D 0
PolygonOnTriangulations 0
Surfaces 12
1 -4479.5 -2952.5 -500 1 0 -0 0 0 1 0 -1 0 
1 -4479.5 -2952.5 -500 -0 1 0 0 0 1 1 0 -0 
1 -4479.5 -2952.5 500 0 0 1 1 0 -0 -0 1 0 
1 -4479.5 2952.5 -500 -0 1 0 0 0 1 1 0 -0 
1 -4479.5 -2952.5 -500 0 0 1 1 0 -0 -0 1 0 
1 4479.5 -2952.5 -500 1 0 -0 0 0 1 0 -1 0 
1 -3841 -2222 -500 1 0 -0 0 0 1 0 -1 0 
1 -3841 -2222 -500 0 0 1 1 0 -0 -0 1 0 
1 -3841 -2222 -500 -0 1 0 0 0 1 1 0 -0 
1 3841 -2222 -500 1 0 -0 0 0 1 0 -1 0 
1 -3841 2222 -500 -0 1 0 0 0 1 1 0 -0 
1 -3841 -2222 500 0 0 1 1 0 -0 -0 1 0 
Triangulations 0

TShapes 66
Ve
1e-07
-4479.5 -2952.5 500
0 0

0101101
*
Ve
1e-07
-4479.5 -2952.5 -500
0 0

0101101
*
Ed
 1e-07 1 1 0
1  1 0 0 1000
2  1 1 0 0 1000
2  2 2 0 0 1000
0

0101000
-66 0 +65 0 *
Ve
1e-07
-4479.5 2952.5 500
0 0

0101101
*
Ed
 1e-07 1 1 0
1  2 0 0 5905
2  3 1 0 0 5905
2  4 3 0 0 5905
0

0101000
-63 0 +66 0 *
Ve
1e-07
-4479.5 2952.5 -500
0 0

0101101
*
Ed
 1e-07 1 1 0
1  3 0 0 1000
2  5 1 0 0 1000
2  6 4 0 0 1000
0

0101000
-63 0 +61 0 *
Ed
 1e-07 1 1 0
1  4 0 0 5905
2  7 1 0 0 5905
2  8 5 0 0 5905
0

0101000
-61 0 +65 0 *
Wi

0101100
-64 0 -62 0 +60 0 +59 0 *
Fa
0  1e-07 1 0

0111000
+58 0 *
Ve
1e-07
4479.5 -2952.5 -500
0 0

0101101
*
Ed
 1e-07 1 1 0
1  5 0 0 8959
2  9 2 0 0 8959
2  10 5 0 0 8959
0

0101000
-56 0 +65 0 *
Ve
1e-07
4479.5 -2952.5 500
0 0

0101101
*
Ed
 1e-07 1 1 0
1  6 0 0 1000
2  11 6 0 0 1000
2  12 2 0 0 1000
0

0101000
-54 0 +56 0 *
Ed
 1e-07 1 1 0
1  7 0 0 8959
2  13 2 0 0 8959
2  14 3 0 0 8959
0

0101000
-54 0 +66 0 *
Wi

0101100
-55 0 -53 0 +52 0 +64 0 *
Fa
0  1e-07 2 0

0111000
+51 0 *
Ve
1e-07
4479.5 2952.5 500
0 0

0101101
*
Ed
 1e-07 1 1 0
1  8 0 0 8959
2  15 4 0 0 8959
2  16 3 0 0 8959
0

0101000
-49 0 +63 0 *
Ed
 1e-07 1 1 0
1  9 0 0 5905
2  17 6 0 0 5905
2  18 3 0 0 5905
0

0101000
-49 0 +54 0 *
Wi

0101100
-62 1 -48 1 +52 1 +47 1 *
Ve
1e-07
-3841 2222 -500
0 0

0101101
*
Ve
1e-07
-3841 -2222 -500
0 0

0101101
*
Ed
 1e-07 1 1 0
1  10 0 0 4444
2  19 7 0 0 4444
2  20 8 0 0 4444
2  21 3 3 0 4444
0

0101000
-45 0 +44 0 *
Ve
1e-07
3841 -2222 -500
0 0

0101101
*
Ed
 1e-07 1 1 0
1  11 0 0 7682
2  22 9 0 0 7682
2  23 8 0 0 7682
2  24 3 3 0 7682
0

0101000
-42 0 +44 0 *
Ve
1e-07
3841 2222 -500
0 0

0101101
*
Ed
 1e-07 1 1 0
1  12 0 0 4444
2  25 10 0 0 4444
2  26 8 0 0 4444
2  27 3 3 0 4444
0

0101000
-40 0 +42 0 *
Ed
 1e-07 1 1 0
1  13 0 0 7682
2  28 11 0 0 7682
2  29 8 0 0 7682
2  30 3 3 0 7682
0

0101000
-40 0 +45 0 *
Wi

0101100
+43 2 -41 2 -39 2 +38 2 *
Fa
0  1e-07 3 1

0101000
+46 0 +37 0 *
Ve
1e-07
4479.5 2952.5 -500
0 0

0101101
*
Ed
 1e-07 1 1 0
1  14 0 0 8959
2  31 4 0 0 8959
2  32 5 0 0 8959
0

0101000
-35 0 +61 0 *
Ed
 1e-07 1 1 0
1  15 0 0 1000
2  33 6 0 0 1000
2  34 4 0 0 1000
0

0101000
-49 0 +35 0 *
Wi

0101100
-34 0 -33 0 +48 0 +60 0 *
Fa
0  1e-07 4 0

0111000
+32 0 *
Ed
 1e-07 1 1 0
1  16 0 0 5905
2  35 6 0 0 5905
2  36 5 0 0 5905
0

0101000
-35 0 +56 0 *
Wi

0101100
-59 0 -34 0 +30 0 +55 0 *
Fa
0  1e-07 5 0

0111000
+29 0 *
Wi

0101100
-53 0 -47 0 +33 0 +30 0 *
Fa
0  1e-07 6 0

0111000
+27 0 *
Ve
1e-07
-3841 -2222 500
0 0

0101101
*
Ed
 1e-07 1 1 0
1  17 0 0 1000
2  37 7 0 0 1000
2  38 9 0 0 1000
0

0101000
-25 0 +44 0 *
Ve
1e-07
-3841 2222 500
0 0

0101101
*
Ed
 1e-07 1 1 0
1  18 0 0 4444
2  39 7 0 0 4444
2  40 12 0 0 4444
0

0101000
-23 0 +25 0 *
Ed
 1e-07 1 1 0
1  19 0 0 1000
2  41 7 0 0 1000
2  42 11 0 0 1000
0

0101000
-23 0 +45 0 *
Wi

0101100
-24 0 -22 0 +21 0 +43 0 *
Fa
0  1e-07 7 0

0111000
+20 0 *
Ve
1e-07
3841 -2222 500
0 0

0101101
*
Ed
 1e-07 1 1 0
1  20 0 0 1000
2  43 10 0 0 1000
2  44 9 0 0 1000
0

0101000
-18 0 +42 0 *
Ed
 1e-07 1 1 0
1  21 0 0 7682
2  45 9 0 0 7682
2  46 12 0 0 7682
0

0101000
-18 0 +25 0 *
Wi

0101100
-41 0 -17 0 +16 0 +24 0 *
Fa
0  1e-07 9 0

0111000
+15 0 *
Ve
1e-07
3841 2222 500
0 0

0101101
*
Ed
 1e-07 1 1 0
1  22 0 0 4444
2  47 10 0 0 4444
2  48 12 0 0 4444
0

0101000
-13 0 +18 0 *
Ed
 1e-07 1 1 0
1  23 0 0 1000
2  49 10 0 0 1000
2  50 11 0 0 1000
0

0101000
-13 0 +40 0 *
Wi

0101100
-17 0 -12 0 +11 0 +39 0 *
Fa
0  1e-07 10 0

0111000
+10 0 *
Ed
 1e-07 1 1 0
1  24 0 0 7682
2  51 11 0 0 7682
2  52 12 0 0 7682
0

0101000
-13 0 +23 0 *
Wi

0101100
-38 0 -11 0 +8 0 +21 0 *
Fa
0  1e-07 11 0

0111000
+7 0 *
Wi

0101100
-22 0 -8 0 +12 0 +16 0 *
Fa
0  1e-07 12 0

0111000
+5 0 *
Sh

0101100
-57 1 -50 1 +36 0 +31 1 -28 1 +26 1 -19 2 -14 2 +9 2 +6 2 
+4 2 *
So

0100000
+3 0 *
Co

1100000
+2 0 *

+1 0 