DBRep_DrawableShape

CASCADE Topology V3, (c) Open Cascade
Locations 11
1
              1              -0               0              -0 
              0               1               0              -0 
             -0               0               1           -2500 
1
              1              -0               0              -0 
              0               1               0              -0 
             -0               0               1           -1500 
2  1 1 2 -1 0
1
              1              -0               0          -647.5 
              0               1               0          -647.5 
             -0               0               1            -700 
1
              1              -0               0           647.5 
              0               1               0           647.5 
             -0               0               1            -700 
2  2 1 5 -1 0
1
              1              -0               0           647.5 
              0               1               0          -647.5 
             -0               0               1            -700 
2  2 1 7 -1 0
1
              1              -0               0          -647.5 
              0               1               0           647.5 
             -0               0               1            -700 
2  2 1 9 -1 0
2  2 1 4 -1 0
Curve2ds 92
1 0 0 1 0 
1 0 0 1 0 
1 1000 0 0 -1 
1 0 0 0 1 
1 0 -2700 1 0 
1 0 0 1 0 
1 0 0 0 -1 
1 0 0 0 1 
1 0 0 0 1 
1 0 0 1 0 
1 0 0 1 0 
1 0 2700 1 0 
1 1000 0 0 1 
1 0 0 1 0 
1 1000 0 0 1 
1 0 2700 1 0 
1 1000 0 0 -1 
1 2700 0 0 1 
1 0 0 0 -1 
1 0 0 0 1 
1 250 250 0 1 
1 0 0 0 1 
1 0 0 1 0 
1 250 250 1 0 
1 0 0 0 -1 
1 2200 0 0 1 
1 2450 250 0 1 
1 0 0 0 1 
1 0 2200 1 0 
1 250 2450 1 0 
1 0 0 0 1 
1 0 2700 1 0 
1 0 -2700 1 0 
1 0 2700 1 0 
1 0 0 0 -1 
1 2700 0 0 1 
1 0 0 1 0 
1 0 0 1 0 
1 800 0 0 -1 
1 0 0 0 1 
1 0 -2200 1 0 
1 0 0 1 0 
1 0 0 1 0 
1 0 2200 1 0 
1 800 0 0 1 
1 0 0 1 0 
1 800 0 0 -1 
1 2200 0 0 1 
1 0 -2200 1 0 
1 0 2200 1 0 
1 800 0 0 1 
1 0 2200 1 0 
1 0 0 0 -1 
1 0 0 0 1 
1 1497.5 1497.5 0 1 
1 1497.5 202.5 0 1 
1 202.5 1497.5 0 1 
1 202.5 202.5 0 1 
1 0 0 0 1 
1 0 0 1 0 
1 1497.5 1497.5 1 0 
1 1497.5 202.5 1 0 
1 202.5 1497.5 1 0 
1 202.5 202.5 1 0 
1 0 0 0 -1 
1 500 0 0 1 
1 1997.5 1497.5 0 1 
1 1997.5 202.5 0 1 
1 702.5 1497.5 0 1 
1 702.5 202.5 0 1 
1 0 0 0 1 
1 0 500 1 0 
1 1497.5 1997.5 1 0 
1 1497.5 702.5 1 0 
1 202.5 1997.5 1 0 
1 202.5 702.5 1 0 
1 0 0 1 0 
1 0 0 1 0 
1 900 0 0 -1 
1 0 0 0 1 
1 0 -500 1 0 
1 0 0 1 0 
1 0 0 1 0 
1 0 500 1 0 
1 900 0 0 1 
1 0 0 1 0 
1 900 0 0 -1 
1 500 0 0 1 
1 0 -500 1 0 
1 0 500 1 0 
1 900 0 0 1 
1 0 500 1 0 
Curves 36
1 -1350 -1350 0 0 0 1 
1 -1350 -1350 1000 -0 1 0 
1 -1350 1350 0 0 0 1 
1 -1350 -1350 0 -0 1 0 
1 -1350 -1350 0 1 0 -0 
1 1350 -1350 0 0 0 1 
1 -1350 -1350 1000 1 0 -0 
1 -1350 1350 1000 1 0 -0 
1 1350 -1350 1000 -0 1 0 
1 -1100 -1100 0 -0 1 0 
1 -1100 -1100 0 1 0 -0 
1 1100 -1100 0 -0 1 0 
1 -1100 1100 0 1 0 -0 
1 -1350 1350 0 1 0 -0 
1 1350 1350 0 0 0 1 
1 1350 -1350 0 -0 1 0 
1 -1100 -1100 0 0 0 1 
1 -1100 -1100 800 -0 1 0 
1 -1100 1100 0 0 0 1 
1 1100 -1100 0 0 0 1 
1 -1100 -1100 800 1 0 -0 
1 1100 -1100 800 -0 1 0 
1 1100 1100 0 0 0 1 
1 -1100 1100 800 1 0 -0 
1 -250 -250 0 -0 1 0 
1 -250 -250 0 1 0 -0 
1 250 -250 0 -0 1 0 
1 -250 250 0 1 0 -0 
1 -250 -250 0 0 0 1 
1 -250 -250 900 -0 1 0 
1 -250 250 0 0 0 1 
1 250 -250 0 0 0 1 
1 -250 -250 900 1 0 -0 
1 250 -250 900 -0 1 0 
1 250 250 0 0 0 1 
1 -250 250 900 1 0 -0 
Polygon3D 0
PolygonOnTriangulations 0
Surfaces 18
1 -1350 -1350 0 1 0 -0 0 0 1 0 -1 0 
1 -1350 -1350 0 -0 1 0 0 0 1 1 0 -0 
1 -1350 -1350 1000 0 0 1 1 0 -0 -0 1 0 
1 -1350 1350 0 -0 1 0 0 0 1 1 0 -0 
1 -1350 -1350 0 0 0 1 1 0 -0 -0 1 0 
1 1350 -1350 0 1 0 -0 0 0 1 0 -1 0 
1 -1100 -1100 0 1 0 -0 0 0 1 0 -1 0 
1 -1100 -1100 0 0 0 1 1 0 -0 -0 1 0 
1 -1100 -1100 0 -0 1 0 0 0 1 1 0 -0 
1 1100 -1100 0 1 0 -0 0 0 1 0 -1 0 
1 -1100 1100 0 -0 1 0 0 0 1 1 0 -0 
1 -1100 -1100 800 0 0 1 1 0 -0 -0 1 0 
1 -250 -250 0 1 0 -0 0 0 1 0 -1 0 
1 -250 -250 0 0 0 1 1 0 -0 -0 1 0 
1 -250 -250 0 -0 1 0 0 0 1 1 0 -0 
1 250 -250 0 1 0 -0 0 0 1 0 -1 0 
1 -250 250 0 -0 1 0 0 0 1 1 0 -0 
1 -250 -250 900 0 0 1 1 0 -0 -0 1 0 
Triangulations 0

TShapes 100
Ve
1e-07
-1350 -1350 1000
0 0

0101101
*
Ve
1e-07
-1350 -1350 0
0 0

0101101
*
Ed
 1e-07 1 1 0
1  1 0 0 1000
2  1 1 0 0 1000
2  2 2 0 0 1000
0

0101000
-100 0 +99 0 *
Ve
1e-07
-1350 1350 1000
0 0

0101101
*
Ed
 1e-07 1 1 0
1  2 0 0 2700
2  3 1 0 0 2700
2  4 3 0 0 2700
0

0101000
-97 0 +100 0 *
Ve
1e-07
-1350 1350 0
0 0

0101101
*
Ed
 1e-07 1 1 0
1  3 0 0 1000
2  5 1 0 0 1000
2  6 4 0 0 1000
0

0101000
-97 0 +95 0 *
Ed
 1e-07 1 1 0
1  4 0 0 2700
2  7 1 0 0 2700
2  8 5 0 0 2700
0

0101000
-95 0 +99 0 *
Wi

0101100
-98 0 -96 0 +94 0 +93 0 *
Fa
0  1e-07 1 0

0111000
+92 0 *
Ve
1e-07
1350 -1350 0
0 0

0101101
*
Ed
 1e-07 1 1 0
1  5 0 0 2700
2  9 2 0 0 2700
2  10 5 0 0 2700
0

0101000
-90 0 +99 0 *
Ve
1e-07
1350 -1350 1000
0 0

0101101
*
Ed
 1e-07 1 1 0
1  6 0 0 1000
2  11 6 0 0 1000
2  12 2 0 0 1000
0

0101000
-88 0 +90 0 *
Ed
 1e-07 1 1 0
1  7 0 0 2700
2  13 2 0 0 2700
2  14 3 0 0 2700
0

0101000
-88 0 +100 0 *
Wi

0101100
-89 0 -87 0 +86 0 +98 0 *
Fa
0  1e-07 2 0

0111000
+85 0 *
Ve
1e-07
1350 1350 1000
0 0

0101101
*
Ed
 1e-07 1 1 0
1  8 0 0 2700
2  15 4 0 0 2700
2  16 3 0 0 2700
0

0101000
-83 0 +97 0 *
Ed
 1e-07 1 1 0
1  9 0 0 2700
2  17 6 0 0 2700
2  18 3 0 0 2700
0

0101000
-83 0 +88 0 *
Wi

0101100
-96 1 -82 1 +86 1 +81 1 *
Ve
1e-07
-1100 1100 0
0 0

0101101
*
Ve
1e-07
-1100 -1100 0
0 0

0101101
*
Ed
 1e-07 1 1 0
1  10 0 0 2200
2  19 7 0 0 2200
2  20 8 0 0 2200
2  21 3 3 0 2200
0

0101000
-79 0 +78 0 *
Ve
1e-07
1100 -1100 0
0 0

0101101
*
Ed
 1e-07 1 1 0
1  11 0 0 2200
2  22 9 0 0 2200
2  23 8 0 0 2200
2  24 3 3 0 2200
0

0101000
-76 0 +78 0 *
Ve
1e-07
1100 1100 0
0 0

0101101
*
Ed
 1e-07 1 1 0
1  12 0 0 2200
2  25 10 0 0 2200
2  26 8 0 0 2200
2  27 3 3 0 2200
0

0101000
-74 0 +76 0 *
Ed
 1e-07 1 1 0
1  13 0 0 2200
2  28 11 0 0 2200
2  29 8 0 0 2200
2  30 3 3 0 2200
0

0101000
-74 0 +79 0 *
Wi

0101100
+77 2 -75 2 -73 2 +72 2 *
Fa
0  1e-07 3 1

0101000
+80 0 +71 0 *
Ve
1e-07
1350 1350 0
0 0

0101101
*
Ed
 1e-07 1 1 0
1  14 0 0 2700
2  31 4 0 0 2700
2  32 5 0 0 2700
0

0101000
-69 0 +95 0 *
Ed
 1e-07 1 1 0
1  15 0 0 1000
2  33 6 0 0 1000
2  34 4 0 0 1000
0

0101000
-83 0 +69 0 *
Wi

0101100
-68 0 -67 0 +82 0 +94 0 *
Fa
0  1e-07 4 0

0111000
+66 0 *
Ed
 1e-07 1 1 0
1  16 0 0 2700
2  35 6 0 0 2700
2  36 5 0 0 2700
0

0101000
-69 0 +90 0 *
Wi

0101100
-93 0 -68 0 +64 0 +89 0 *
Fa
0  1e-07 5 0

0111000
+63 0 *
Wi

0101100
-87 0 -81 0 +67 0 +64 0 *
Fa
0  1e-07 6 0

0111000
+61 0 *
Ve
1e-07
-1100 -1100 800
0 0

0101101
*
Ed
 1e-07 1 1 0
1  17 0 0 800
2  37 7 0 0 800
2  38 9 0 0 800
0

0101000
-59 0 +78 0 *
Ve
1e-07
-1100 1100 800
0 0

0101101
*
Ed
 1e-07 1 1 0
1  18 0 0 2200
2  39 7 0 0 2200
2  40 12 0 0 2200
0

0101000
-57 0 +59 0 *
Ed
 1e-07 1 1 0
1  19 0 0 800
2  41 7 0 0 800
2  42 11 0 0 800
0

0101000
-57 0 +79 0 *
Wi

0101100
-58 0 -56 0 +55 0 +77 0 *
Fa
0  1e-07 7 0

0111000
+54 0 *
Ve
1e-07
1100 -1100 800
0 0

0101101
*
Ed
 1e-07 1 1 0
1  20 0 0 800
2  43 10 0 0 800
2  44 9 0 0 800
0

0101000
-52 0 +76 0 *
Ed
 1e-07 1 1 0
1  21 0 0 2200
2  45 9 0 0 2200
2  46 12 0 0 2200
0

0101000
-52 0 +59 0 *
Wi

0101100
-75 0 -51 0 +50 0 +58 0 *
Fa
0  1e-07 9 0

0111000
+49 0 *
Ve
1e-07
1100 1100 800
0 0

0101101
*
Ed
 1e-07 1 1 0
1  22 0 0 2200
2  47 10 0 0 2200
2  48 12 0 0 2200
0

0101000
-47 0 +52 0 *
Ed
 1e-07 1 1 0
1  23 0 0 800
2  49 10 0 0 800
2  50 11 0 0 800
0

0101000
-47 0 +74 0 *
Wi

0101100
-51 0 -46 0 +45 0 +73 0 *
Fa
0  1e-07 10 0

0111000
+44 0 *
Ed
 1e-07 1 1 0
1  24 0 0 2200
2  51 11 0 0 2200
2  52 12 0 0 2200
0

0101000
-47 0 +57 0 *
Wi

0101100
-72 0 -45 0 +42 0 +55 0 *
Fa
0  1e-07 11 0

0111000
+41 0 *
Wi

0101100
-56 2 -42 2 +50 2 +46 2 *
Ve
1e-07
-250 250 0
0 0

0101101
*
Ve
1e-07
-250 -250 0
0 0

0101101
*
Ed
 1e-07 1 1 0
1  25 0 0 500
2  53 13 0 0 500
2  54 14 0 0 500
2  55 12 6 0 500
2  56 12 8 0 500
2  57 12 10 0 500
2  58 12 11 0 500
0

0101000
-38 0 +37 0 *
Ve
1e-07
250 -250 0
0 0

0101101
*
Ed
 1e-07 1 1 0
1  26 0 0 500
2  59 15 0 0 500
2  60 14 0 0 500
2  61 12 6 0 500
2  62 12 8 0 500
2  63 12 10 0 500
2  64 12 11 0 500
0

0101000
-35 0 +37 0 *
Ve
1e-07
250 250 0
0 0

0101101
*
Ed
 1e-07 1 1 0
1  27 0 0 500
2  65 16 0 0 500
2  66 14 0 0 500
2  67 12 6 0 500
2  68 12 8 0 500
2  69 12 10 0 500
2  70 12 11 0 500
0

0101000
-33 0 +35 0 *
Ed
 1e-07 1 1 0
1  28 0 0 500
2  71 17 0 0 500
2  72 14 0 0 500
2  73 12 6 0 500
2  74 12 8 0 500
2  75 12 10 0 500
2  76 12 11 0 500
0

0101000
-33 0 +38 0 *
Wi

0101100
+36 4 -34 4 -32 4 +31 4 *
Wi

0101100
+36 7 -34 7 -32 7 +31 7 *
Wi

0101100
+36 9 -34 9 -32 9 +31 9 *
Wi

0101100
+36 5 -34 5 -32 5 +31 5 *
Fa
0  1e-07 12 2

0101000
+39 0 +30 0 +29 0 +28 0 +27 0 *
Ve
1e-07
-250 -250 900
0 0

0101101
*
Ed
 1e-07 1 1 0
1  29 0 0 900
2  77 13 0 0 900
2  78 15 0 0 900
0

0101000
-25 0 +37 0 *
Ve
1e-07
-250 250 900
0 0

0101101
*
Ed
 1e-07 1 1 0
1  30 0 0 500
2  79 13 0 0 500
2  80 18 0 0 500
0

0101000
-23 0 +25 0 *
Ed
 1e-07 1 1 0
1  31 0 0 900
2  81 13 0 0 900
2  82 17 0 0 900
0

0101000
-23 0 +38 0 *
Wi

0101100
-24 0 -22 0 +21 0 +36 0 *
Fa
0  1e-07 13 0

0111000
+20 0 *
Ve
1e-07
250 -250 900
0 0

0101101
*
Ed
 1e-07 1 1 0
1  32 0 0 900
2  83 16 0 0 900
2  84 15 0 0 900
0

0101000
-18 0 +35 0 *
Ed
 1e-07 1 1 0
1  33 0 0 500
2  85 15 0 0 500
2  86 18 0 0 500
0

0101000
-18 0 +25 0 *
Wi

0101100
-34 0 -17 0 +16 0 +24 0 *
Fa
0  1e-07 15 0

0111000
+15 0 *
Ve
1e-07
250 250 900
0 0

0101101
*
Ed
 1e-07 1 1 0
1  34 0 0 500
2  87 16 0 0 500
2  88 18 0 0 500
0

0101000
-13 0 +18 0 *
Ed
 1e-07 1 1 0
1  35 0 0 900
2  89 16 0 0 900
2  90 17 0 0 900
0

0101000
-13 0 +33 0 *
Wi

0101100
-17 0 -12 0 +11 0 +32 0 *
Fa
0  1e-07 16 0

0111000
+10 0 *
Ed
 1e-07 1 1 0
1  36 0 0 500
2  91 17 0 0 500
2  92 18 0 0 500
0

0101000
-13 0 +23 0 *
Wi

0101100
-31 0 -11 0 +8 0 +21 0 *
Fa
0  1e-07 17 0

0111000
+7 0 *
Wi

0101100
-22 0 -8 0 +12 0 +16 0 *
Fa
0  1e-07 18 0

0111000
+5 0 *
Sh

0101100
-91 1 -84 1 +70 0 +65 1 -62 1 +60 1 -53 2 -48 2 +43 2 +40 2 
+26 0 -19 4 -14 4 +9 4 +6 4 -19 7 -14 7 +9 7 +6 7 -19 9 
-14 9 +9 9 +6 9 -19 5 -14 5 +9 5 +6 5 +4 4 +4 7 +4 9 
+4 5 *
So

0100000
+3 0 *
Co

1100000
+2 0 *

+1 0 