DBRep_DrawableShape

CASCADE Topology V3, (c) Open Cascade
Locations 2
1
              1              -0               0              -0 
              0               1               0               0 
             -0               0               1             230 
1
              1              -0               0              -0 
              0               1               0               0 
             -0               0               1              -0 
Curve2ds 56
1 0 0 1 0 
1 0 0 1 0 
1 20 0 0 -1 
1 0 0 0 1 
1 0 -650 1 0 
1 0 0 1 0 
1 0 0 0 -1 
1 0 0 0 1 
1 0 0 0 1 
1 0 0 1 0 
1 0 0 1 0 
1 0 650 1 0 
1 20 0 0 1 
1 0 0 1 0 
1 20 0 0 1 
1 0 650 1 0 
1 20 0 0 -1 
1 650 0 0 1 
1 0 0 0 1 
1 0 650 1 0 
1 0 -650 1 0 
1 0 650 1 0 
1 0 0 0 -1 
1 650 0 0 1 
1 0 -210 1 0 
2 1.1608362244313943e-14 -1.7601609011706414e-15 1 0 -0 1 241.25
2 325 325 1 0 -0 1 241.25
1 0 0 0 -1 
1 6.2831853071795862 0 0 -1 
1 0 0 1 0 
2 1.1608362244313943e-14 -1.7601609011706414e-15 1 0 -0 1 241.25
2 325 325 1 0 -0 1 241.25
1 20 0 0 -1 
1 0 0 0 1 
1 20 0 0 1 
1 0 650 1 0 
1 20 0 0 1 
1 0 0 1 0 
1 20 0 0 -1 
1 650 0 0 1 
1 0 0 1 0 
1 0 0 1 0 
1 0 -650 1 0 
1 0 0 1 0 
1 0 0 0 -1 
1 0 0 0 1 
1 0 0 0 1 
1 0 650 1 0 
1 0 -650 1 0 
1 0 650 1 0 
1 0 0 0 1 
1 0 0 1 0 
1 0 0 1 0 
1 0 650 1 0 
1 0 0 0 -1 
1 650 0 0 1 
Curves 27
1 -325 -325 0 0 0 1 
1 -325 -325 20 -0 1 0 
1 -325 325 0 0 0 1 
1 -325 -325 0 -0 1 0 
1 -325 -325 0 1 0 -0 
1 325 -325 0 0 0 1 
1 -325 -325 20 1 0 -0 
1 -325 325 20 1 0 -0 
1 325 -325 20 -0 1 0 
1 -325 325 0 1 0 -0 
1 325 325 0 0 0 1 
1 325 -325 0 -0 1 0 
2 0 0 230 0 0 1 1 0 0 0 1 0 241.25
1 241.25 0 20 0 0 1 
2 0 0 20 0 0 1 1 0 0 0 1 0 241.25
1 -325 -325 20 -0 1 0 
1 -325 325 20 1 0 -0 
1 -325 -325 20 1 0 -0 
1 325 -325 20 -0 1 0 
1 -325 -325 0 0 0 1 
1 -325 325 0 0 0 1 
1 -325 -325 0 -0 1 0 
1 -325 325 0 1 0 -0 
1 325 325 0 0 0 1 
1 -325 -325 0 1 0 -0 
1 325 -325 0 0 0 1 
1 325 -325 0 -0 1 0 
Polygon3D 0
PolygonOnTriangulations 0
Surfaces 15
1 -325 -325 0 1 0 -0 0 0 1 0 -1 0 
1 -325 -325 0 -0 1 0 0 0 1 1 0 -0 
1 -325 -325 20 0 0 1 1 0 -0 -0 1 0 
1 -325 325 0 -0 1 0 0 0 1 1 0 -0 
1 -325 -325 0 0 0 1 1 0 -0 -0 1 0 
1 325 -325 0 1 0 -0 0 0 1 0 -1 0 
2 0 0 20 -0 -0 -1 1 0 0 0 1 0 241.25
1 -1.1608362244313943e-14 1.7601609011706414e-15 230 0 0 1 1 0 -0 -0 1 0 
1 -1.1608362244313943e-14 1.7601609011706414e-15 19.999999999999996 0 0 1 1 0 -0 -0 1 0 
1 -325 -325 20 0 0 1 1 0 -0 -0 1 0 
1 -325 -325 0 1 0 -0 0 0 1 0 -1 0 
1 -325 325 0 -0 1 0 0 0 1 1 0 -0 
1 -325 -325 0 -0 1 0 0 0 1 1 0 -0 
1 325 -325 0 1 0 -0 0 0 1 0 -1 0 
1 -325 -325 0 0 0 1 1 0 -0 -0 1 0 
Triangulations 0

TShapes 76
Ve
1e-07
-325 -325 20
0 0

0101101
*
Ve
1e-07
-325 -325 0
0 0

0101101
*
Ed
 1e-07 1 1 0
1  1 0 0 20
2  1 1 0 0 20
2  2 2 0 0 20
0

0101000
-76 0 +75 0 *
Ve
1e-07
-325 325 20
0 0

0101101
*
Ed
 1e-07 1 1 0
1  2 0 0 650
2  3 1 0 0 650
2  4 3 0 0 650
0

0101000
-73 0 +76 0 *
Ve
1e-07
-325 325 0
0 0

0101101
*
Ed
 1e-07 1 1 0
1  3 0 0 20
2  5 1 0 0 20
2  6 4 0 0 20
0

0101000
-73 0 +71 0 *
Ed
 1e-07 1 1 0
1  4 0 0 650
2  7 1 0 0 650
2  8 5 0 0 650
0

0101000
-71 0 +75 0 *
Wi

0101100
-74 0 -72 0 +70 0 +69 0 *
Fa
0  1e-07 1 0

0111000
+68 0 *
Ve
1e-07
325 -325 0
0 0

0101101
*
Ed
 1e-07 1 1 0
1  5 0 0 650
2  9 2 0 0 650
2  10 5 0 0 650
0

0101000
-66 0 +75 0 *
Ve
1e-07
325 -325 20
0 0

0101101
*
Ed
 1e-07 1 1 0
1  6 0 0 20
2  11 6 0 0 20
2  12 2 0 0 20
0

0101000
-64 0 +66 0 *
Ed
 1e-07 1 1 0
1  7 0 0 650
2  13 2 0 0 650
2  14 3 0 0 650
0

0101000
-64 0 +76 0 *
Wi

0101100
-65 0 -63 0 +62 0 +74 0 *
Fa
0  1e-07 2 0

0111000
+61 0 *
Ve
1e-07
325 325 20
0 0

0101101
*
Ed
 1e-07 1 1 0
1  8 0 0 650
2  15 4 0 0 650
2  16 3 0 0 650
0

0101000
-59 0 +73 0 *
Ed
 1e-07 1 1 0
1  9 0 0 650
2  17 6 0 0 650
2  18 3 0 0 650
0

0101000
-59 0 +64 0 *
Wi

0101100
-72 0 -58 0 +57 0 +62 0 *
Fa
0  1e-07 3 0

0111000
+56 0 *
Ve
1e-07
325 325 0
0 0

0101101
*
Ed
 1e-07 1 1 0
1  10 0 0 650
2  19 4 0 0 650
2  20 5 0 0 650
0

0101000
-54 0 +71 0 *
Ed
 1e-07 1 1 0
1  11 0 0 20
2  21 6 0 0 20
2  22 4 0 0 20
0

0101000
-59 0 +54 0 *
Wi

0101100
-53 0 -52 0 +58 0 +70 0 *
Fa
0  1e-07 4 0

0111000
+51 0 *
Ed
 1e-07 1 1 0
1  12 0 0 650
2  23 6 0 0 650
2  24 5 0 0 650
0

0101000
-54 0 +66 0 *
Wi

0101100
-69 1 -53 1 +65 1 +49 1 *
Ve
1e-07
241.25 0 230
0 0

0101101
*
Ed
 1e-07 1 1 0
1  13 0 0 6.28318530717959
2  25 7 0 0 6.28318530717959
2  26 8 0 0 6.28318530717959
2  27 5 1 0 6.28318530717959
0

0101000
+47 0 -47 0 *
Wi

0101100
-46 0 *
Fa
0  1e-07 5 1

0101000
+48 0 +45 0 *
Wi

0101100
-63 0 -57 0 +52 0 +49 0 *
Fa
0  1e-07 6 0

0111000
+43 0 *
Ve
1e-07
241.25 0 20
0 0

0101101
*
Ed
 1e-07 1 1 0
1  14 0 0 210
3  28 29CN 7 0 0 210
0

0101000
+41 0 -47 0 *
Ed
 1e-07 1 1 0
1  15 0 0 6.28318530717959
2  30 7 0 0 6.28318530717959
2  31 9 0 0 6.28318530717959
2  32 10 2 0 6.28318530717959
0

0101000
+41 0 -41 0 *
Wi

0101100
+40 0 -40 0 -39 0 +46 0 *
Fa
0  1e-07 7 0

0101000
+38 0 *
Ve
1e-07
-325 325 20
0 0

0101101
*
Ve
1e-07
-325 -325 20
0 0

0101101
*
Ed
 1e-07 1 1 0
1  16 0 0 650
2  33 11 0 0 650
2  34 10 0 0 650
0

0101000
-36 0 +35 0 *
Ve
1e-07
325 325 20
0 0

0101101
*
Ed
 1e-07 1 1 0
1  17 0 0 650
2  35 12 0 0 650
2  36 10 0 0 650
0

0101000
-33 0 +36 0 *
Ve
1e-07
325 -325 20
0 0

0101101
*
Ed
 1e-07 1 1 0
1  18 0 0 650
2  37 13 0 0 650
2  38 10 0 0 650
0

0101000
-31 0 +35 0 *
Ed
 1e-07 1 1 0
1  19 0 0 650
2  39 14 0 0 650
2  40 10 0 0 650
0

0101000
-33 0 +31 0 *
Wi

0101100
-34 2 -32 2 +30 2 +29 2 *
Wi

0101100
-39 0 *
Fa
0  1e-07 10 2

0101000
+28 0 +27 0 *
Ve
1e-07
-325 -325 0
0 0

0101101
*
Ed
 1e-07 1 1 0
1  20 0 0 20
2  41 11 0 0 20
2  42 13 0 0 20
0

0101000
-35 0 +25 0 *
Ve
1e-07
-325 325 0
0 0

0101101
*
Ed
 1e-07 1 1 0
1  21 0 0 20
2  43 11 0 0 20
2  44 12 0 0 20
0

0101000
-36 0 +23 0 *
Ed
 1e-07 1 1 0
1  22 0 0 650
2  45 11 0 0 650
2  46 15 0 0 650
0

0101000
-23 0 +25 0 *
Wi

0101100
-24 0 -34 0 +22 0 +21 0 *
Fa
0  1e-07 11 0

0111000
+20 0 *
Ve
1e-07
325 325 0
0 0

0101101
*
Ed
 1e-07 1 1 0
1  23 0 0 650
2  47 12 0 0 650
2  48 15 0 0 650
0

0101000
-18 0 +23 0 *
Ed
 1e-07 1 1 0
1  24 0 0 20
2  49 14 0 0 20
2  50 12 0 0 20
0

0101000
-33 0 +18 0 *
Wi

0101100
-17 0 -16 0 +32 0 +22 0 *
Fa
0  1e-07 12 0

0111000
+15 0 *
Ve
1e-07
325 -325 0
0 0

0101101
*
Ed
 1e-07 1 1 0
1  25 0 0 650
2  51 13 0 0 650
2  52 15 0 0 650
0

0101000
-13 0 +25 0 *
Ed
 1e-07 1 1 0
1  26 0 0 20
2  53 14 0 0 20
2  54 13 0 0 20
0

0101000
-31 0 +13 0 *
Wi

0101100
-12 0 -11 0 +30 0 +24 0 *
Fa
0  1e-07 13 0

0111000
+10 0 *
Ed
 1e-07 1 1 0
1  27 0 0 650
2  55 14 0 0 650
2  56 15 0 0 650
0

0101000
-18 0 +13 0 *
Wi

0101100
-11 0 -29 0 +16 0 +8 0 *
Fa
0  1e-07 14 0

0111000
+7 0 *
Wi

0101100
-21 0 -17 0 +8 0 +12 0 *
Fa
0  1e-07 15 0

0111000
+5 0 *
Sh

0101100
-67 1 -60 1 +55 1 +50 1 -44 0 +42 1 -37 0 +26 0 -19 2 +14 2 
-9 2 +6 2 -4 2 *
So

0100000
+3 0 *
Co

1100000
+2 0 *

+1 0 