DBRep_DrawableShape

CASCADE Topology V3, (c) Open Cascade
Locations 18
1
              1              -0               0              -0 
              0               1               0               0 
             -0               0               1              -0 
1
              1              -0               0           -3500 
              0               1               0           -2000 
             -0               0               1          -24500 
2  1 1 2 1 0
1
              1              -0               0              -0 
              0               1               0               0 
             -0               0               1              -0 
1
              1              -0               0           -3500 
              0               1               0            2000 
             -0               0               1          -24500 
2  4 1 5 1 0
1
              1              -0               0              -0 
              0               1               0               0 
             -0               0               1              -0 
1
              1              -0               0              -0 
              0               1               0           -2000 
             -0               0               1          -24500 
2  7 1 8 1 0
1
              1              -0               0              -0 
              0               1               0               0 
             -0               0               1              -0 
1
              1              -0               0              -0 
              0               1               0            2000 
             -0               0               1          -24500 
2  10 1 11 1 0
1
              1              -0               0              -0 
              0               1               0               0 
             -0               0               1              -0 
1
              1              -0               0            3500 
              0               1               0           -2000 
             -0               0               1          -24500 
2  13 1 14 1 0
1
              1              -0               0              -0 
              0               1               0               0 
             -0               0               1              -0 
1
              1              -0               0            3500 
              0               1               0            2000 
             -0               0               1          -24500 
2  16 1 17 1 0
Curve2ds 36
1 0 10000 1 0 
2 0 0 1 0 -0 1 750
1 6.2831853071795862 -0 0 1 
1 0 -0 0 1 
1 0 0 1 0 
2 0 0 1 0 -0 1 750
1 0 10000 1 0 
2 0 0 1 0 -0 1 750
1 6.2831853071795862 -0 0 1 
1 0 -0 0 1 
1 0 0 1 0 
2 0 0 1 0 -0 1 750
1 0 10000 1 0 
2 0 0 1 0 -0 1 750
1 6.2831853071795862 -0 0 1 
1 0 -0 0 1 
1 0 0 1 0 
2 0 0 1 0 -0 1 750
1 0 10000 1 0 
2 0 0 1 0 -0 1 750
1 6.2831853071795862 -0 0 1 
1 0 -0 0 1 
1 0 0 1 0 
2 0 0 1 0 -0 1 750
1 0 10000 1 0 
2 0 0 1 0 -0 1 750
1 6.2831853071795862 -0 0 1 
1 0 -0 0 1 
1 0 0 1 0 
2 0 0 1 0 -0 1 750
1 0 10000 1 0 
2 0 0 1 0 -0 1 750
1 6.2831853071795862 -0 0 1 
1 0 -0 0 1 
1 0 0 1 0 
2 0 0 1 0 -0 1 750
Curves 18
2 0 0 10000 0 0 1 1 0 -0 -0 1 0 750
1 750 -1.8369701987210297e-13 0 0 0 1 
2 0 0 0 0 0 1 1 0 -0 -0 1 0 750
2 0 0 10000 0 0 1 1 0 -0 -0 1 0 750
1 750 -1.8369701987210297e-13 0 0 0 1 
2 0 0 0 0 0 1 1 0 -0 -0 1 0 750
2 0 0 10000 0 0 1 1 0 -0 -0 1 0 750
1 750 -1.8369701987210297e-13 0 0 0 1 
2 0 0 0 0 0 1 1 0 -0 -0 1 0 750
2 0 0 10000 0 0 1 1 0 -0 -0 1 0 750
1 750 -1.8369701987210297e-13 0 0 0 1 
2 0 0 0 0 0 1 1 0 -0 -0 1 0 750
2 0 0 10000 0 0 1 1 0 -0 -0 1 0 750
1 750 -1.8369701987210297e-13 0 0 0 1 
2 0 0 0 0 0 1 1 0 -0 -0 1 0 750
2 0 0 10000 0 0 1 1 0 -0 -0 1 0 750
1 750 -1.8369701987210297e-13 0 0 0 1 
2 0 0 0 0 0 1 1 0 -0 -0 1 0 750
Polygon3D 0
PolygonOnTriangulations 0
Surfaces 18
2 0 0 0 0 0 1 1 0 -0 -0 1 0 750
1 0 0 10000 0 0 1 1 0 -0 -0 1 0 
1 0 0 0 0 0 1 1 0 -0 -0 1 0 
2 0 0 0 0 0 1 1 0 -0 -0 1 0 750
1 0 0 10000 0 0 1 1 0 -0 -0 1 0 
1 0 0 0 0 0 1 1 0 -0 -0 1 0 
2 0 0 0 0 0 1 1 0 -0 -0 1 0 750
1 0 0 10000 0 0 1 1 0 -0 -0 1 0 
1 0 0 0 0 0 1 1 0 -0 -0 1 0 
2 0 0 0 0 0 1 1 0 -0 -0 1 0 750
1 0 0 10000 0 0 1 1 0 -0 -0 1 0 
1 0 0 0 0 0 1 1 0 -0 -0 1 0 
2 0 0 0 0 0 1 1 0 -0 -0 1 0 750
1 0 0 10000 0 0 1 1 0 -0 -0 1 0 
1 0 0 0 0 0 1 1 0 -0 -0 1 0 
2 0 0 0 0 0 1 1 0 -0 -0 1 0 750
1 0 0 10000 0 0 1 1 0 -0 -0 1 0 
1 0 0 0 0 0 1 1 0 -0 -0 1 0 
Triangulations 0

TShapes 79
Ve
1e-07
750 -1.83697019872103e-13 10000
0 0

0101101
*
Ed
 1e-07 1 1 0
1  1 0 0 6.28318530717959
2  1 1 0 0 6.28318530717959
2  2 2 0 0 6.28318530717959
0

0101000
+79 0 -79 0 *
Ve
1e-07
750 -1.83697019872103e-13 0
0 0

0101101
*
Ed
 1e-07 1 1 0
1  2 0 0 10000
3  3 4CN 1 0 0 10000
0

0101000
-79 0 +77 0 *
Ed
 1e-07 1 1 0
1  3 0 0 6.28318530717959
2  5 1 0 0 6.28318530717959
2  6 3 0 0 6.28318530717959
0

0101000
+77 0 -77 0 *
Wi

0101100
-78 0 +76 0 +75 0 -76 0 *
Fa
0  1e-07 1 0

0111000
+74 0 *
Wi

0101100
+78 0 *
Fa
0  1e-07 2 0

0111000
+72 0 *
Wi

0101100
-75 0 *
Fa
0  1e-07 3 0

0111000
-70 0 *
Sh

0101100
+73 0 +71 0 -69 0 *
So

0100000
+68 0 *
Ve
1e-07
750 -1.83697019872103e-13 10000
0 0

0101101
*
Ed
 1e-07 1 1 0
1  4 0 0 6.28318530717959
2  7 4 0 0 6.28318530717959
2  8 5 0 0 6.28318530717959
0

0101000
+66 0 -66 0 *
Ve
1e-07
750 -1.83697019872103e-13 0
0 0

0101101
*
Ed
 1e-07 1 1 0
1  5 0 0 10000
3  9 10CN 4 0 0 10000
0

0101000
-66 0 +64 0 *
Ed
 1e-07 1 1 0
1  6 0 0 6.28318530717959
2  11 4 0 0 6.28318530717959
2  12 6 0 0 6.28318530717959
0

0101000
+64 0 -64 0 *
Wi

0101100
-65 0 +63 0 +62 0 -63 0 *
Fa
0  1e-07 4 0

0111000
+61 0 *
Wi

0101100
+65 0 *
Fa
0  1e-07 5 0

0111000
+59 0 *
Wi

0101100
-62 0 *
Fa
0  1e-07 6 0

0111000
-57 0 *
Sh

0101100
+60 0 +58 0 -56 0 *
So

0100000
+55 0 *
Ve
1e-07
750 -1.83697019872103e-13 10000
0 0

0101101
*
Ed
 1e-07 1 1 0
1  7 0 0 6.28318530717959
2  13 7 0 0 6.28318530717959
2  14 8 0 0 6.28318530717959
0

0101000
+53 0 -53 0 *
Ve
1e-07
750 -1.83697019872103e-13 0
0 0

0101101
*
Ed
 1e-07 1 1 0
1  8 0 0 10000
3  15 16CN 7 0 0 10000
0

0101000
-53 0 +51 0 *
Ed
 1e-07 1 1 0
1  9 0 0 6.28318530717959
2  17 7 0 0 6.28318530717959
2  18 9 0 0 6.28318530717959
0

0101000
+51 0 -51 0 *
Wi

0101100
-52 0 +50 0 +49 0 -50 0 *
Fa
0  1e-07 7 0

0111000
+48 0 *
Wi

0101100
+52 0 *
Fa
0  1e-07 8 0

0111000
+46 0 *
Wi

0101100
-49 0 *
Fa
0  1e-07 9 0

0111000
-44 0 *
Sh

0101100
+47 0 +45 0 -43 0 *
So

0100000
+42 0 *
Ve
1e-07
750 -1.83697019872103e-13 10000
0 0

0101101
*
Ed
 1e-07 1 1 0
1  10 0 0 6.28318530717959
2  19 10 0 0 6.28318530717959
2  20 11 0 0 6.28318530717959
0

0101000
+40 0 -40 0 *
Ve
1e-07
750 -1.83697019872103e-13 0
0 0

0101101
*
Ed
 1e-07 1 1 0
1  11 0 0 10000
3  21 22CN 10 0 0 10000
0

0101000
-40 0 +38 0 *
Ed
 1e-07 1 1 0
1  12 0 0 6.28318530717959
2  23 10 0 0 6.28318530717959
2  24 12 0 0 6.28318530717959
0

0101000
+38 0 -38 0 *
Wi

0101100
-39 0 +37 0 +36 0 -37 0 *
Fa
0  1e-07 10 0

0111000
+35 0 *
Wi

0101100
+39 0 *
Fa
0  1e-07 11 0

0111000
+33 0 *
Wi

0101100
-36 0 *
Fa
0  1e-07 12 0

0111000
-31 0 *
Sh

0101100
+34 0 +32 0 -30 0 *
So

0100000
+29 0 *
Ve
1e-07
750 -1.83697019872103e-13 10000
0 0

0101101
*
Ed
 1e-07 1 1 0
1  13 0 0 6.28318530717959
2  25 13 0 0 6.28318530717959
2  26 14 0 0 6.28318530717959
0

0101000
+27 0 -27 0 *
Ve
1e-07
750 -1.83697019872103e-13 0
0 0

0101101
*
Ed
 1e-07 1 1 0
1  14 0 0 10000
3  27 28CN 13 0 0 10000
0

0101000
-27 0 +25 0 *
Ed
 1e-07 1 1 0
1  15 0 0 6.28318530717959
2  29 13 0 0 6.28318530717959
2  30 15 0 0 6.28318530717959
0

0101000
+25 0 -25 0 *
Wi

0101100
-26 0 +24 0 +23 0 -24 0 *
Fa
0  1e-07 13 0

0111000
+22 0 *
Wi

0101100
+26 0 *
Fa
0  1e-07 14 0

0111000
+20 0 *
Wi

0101100
-23 0 *
Fa
0  1e-07 15 0

0111000
-18 0 *
Sh

0101100
+21 0 +19 0 -17 0 *
So

0100000
+16 0 *
Ve
1e-07
750 -1.83697019872103e-13 10000
0 0

0101101
*
Ed
 1e-07 1 1 0
1  16 0 0 6.28318530717959
2  31 16 0 0 6.28318530717959
2  32 17 0 0 6.28318530717959
0

0101000
+14 0 -14 0 *
Ve
1e-07
750 -1.83697019872103e-13 0
0 0

0101101
*
Ed
 1e-07 1 1 0
1  17 0 0 10000
3  33 34CN 16 0 0 10000
0

0101000
-14 0 +12 0 *
Ed
 1e-07 1 1 0
1  18 0 0 6.28318530717959
2  35 16 0 0 6.28318530717959
2  36 18 0 0 6.28318530717959
0

0101000
+12 0 -12 0 *
Wi

0101100
-13 0 +11 0 +10 0 -11 0 *
Fa
0  1e-07 16 0

0111000
+9 0 *
Wi

0101100
+13 0 *
Fa
0  1e-07 17 0

0111000
+7 0 *
Wi

0101100
-10 0 *
Fa
0  1e-07 18 0

0111000
-5 0 *
Sh

0101100
+8 0 +6 0 -4 0 *
So

0100000
+3 0 *
Co

1100000
+67 3 +54 6 +41 9 +28 12 +15 15 +2 18 *

+1 0 