DBRep_DrawableShape

CASCADE Topology V3, (c) Open Cascade
Locations 0
Curve2ds 32
1 0 0 1 0 
6 0 1 3.1415926535897931 0  3.1415926535897931 12002.970007460654  
1 0 12002.970007460654 1 0 
6 0 1 0 0  0 12002.970007460654  
1 0 0 0 1 
7 0 0  1 2 2  0 0  1.6925365878919985 0 
 0 2 1.5565091258295563 2
1 1.6925365878919985 0 0 1 
1 0 0 0 1 
1 0 1 1 0 
1 0 0 1 0 
1 3.1415926535897931 0 0 1 
1 0 0 0 1 
1 0 1 1 0 
7 0 0  1 2 2  0 0  1.6925365878919985 0 
 0 2 1.5565091258295567 2
1 1.6925365878919985 0 0 1 
1 0 1 1 0 
6 0 1 0 0  0 12002.970007460654  
1 0 0 1 0 
6 0 1 3.1415926535897931 0  3.1415926535897931 12002.970007460654  
1 0 12002.970007460654 1 0 
1 0 0 0 1 
7 0 0  1 2 2  0 0  1.6925365878919985 0 
 0 2 1.5565091258295563 2
1 1.6925365878919985 0 0 1 
1 0 0 0 1 
1 0 1 1 0 
1 0 0 1 0 
1 3.1415926535897931 0 0 1 
1 0 0 0 1 
1 0 1 1 0 
7 0 0  1 2 2  0 0  1.6925365878919985 0 
 0 2 1.5565091258295567 2
1 1.6925365878919985 0 0 1 
1 0 1 1 0 
Curves 36
2 -1600 1.7053025658242404e-13 -12000 0 0 -1 0 -1 0 -1 -0 -0 1667
6 0 1 -1600.0000000000002 1667.0000000000002 -12000  -1600.0000000000002 1400 0  
2 -1600 1.1368683772161603e-13 0 0 0 -1 0 -1 0 -1 -0 -0 1400
6 0 1 -1600 -1666.9999999999998 -12000  -1600 -1400 0  
1 -1600.0000000000002 1667.0000000000002 -12000 1 -1.6240976817373716e-16 0 
6 0 1 -200 1667 -12000  -200 1400 0  
1 -1600.0000000000002 1400 0 1 0 0 
2 -200.71951219512198 1566.280487804878 -12000 0 0 -1 0.0071435397252793808 0.99997448459457883 0 0.99997448459457883 -0.0071435397252793808 0 100.72208215988316
7 0 0  1 2 2  -99.999999999999972 1567.0000000000002 -12000  -100 1300 0 
 0 2 1 2
2 -194.25555555555556 1305.7444444444445 0 0 0 -1 -0.060832548453031661 0.99814798554558515 0 0.99814798554558515 0.060832548453031661 0 94.430442099260134
2 1.0658141036401503e-14 1567 -12000 -0 0 1 -1 0 -0 -0 -1 0 100
7 0 0  1 2 2  100.00000000000003 1567 -12000.000000000002  100 1300 0 
 0 2 1 2
2 -1.7763568394002505e-14 1300 0 -0 0 1 -1 0 -0 -0 -1 0 100.00000000000001
2 200.71951219512192 1566.280487804878 -12000 0 0 -1 -0.99997448459457872 0.007143539725279386 0 0.007143539725279386 0.99997448459457872 0 100.72208215988313
7 0 0  1 2 2  200 1667.0000000000002 -12000  200 1399.9999999999998 0 
 0 2 1 2
2 194.25555555555556 1305.7444444444445 0 0 0 -1 -0.99814798554558504 -0.060832548453032501 -0 -0.060832548453032501 0.99814798554558504 0 94.430442099260134
1 200 1667 -12000 1 0 0 
6 0 1 1600 1667 -12000  1600 1400 0  
1 200 1400 0 1 0 0 
2 1600 -1.7053025658242404e-13 -12000 0 -0 -1 0 1 0 1 -0 0 1667
6 0 1 1600.0000000000002 -1667.0000000000002 -12000  1600.0000000000002 -1400 0  
2 1600 -1.1368683772161603e-13 0 0 -0 -1 0 1 0 1 -0 0 1400
1 1600.0000000000002 -1667.0000000000002 -12000 -1 1.6240976817373716e-16 0 
6 0 1 200 -1667 -12000  200 -1400 0  
1 1600.0000000000002 -1400 0 -1 0 0 
2 200.71951219512198 -1566.280487804878 -12000 0 0 -1 -0.0071435397252793808 -0.99997448459457883 -0 -0.99997448459457883 0.0071435397252793808 0 100.72208215988316
7 0 0  1 2 2  99.999999999999972 -1567.0000000000002 -12000  100 -1300 0 
 0 2 1 2
2 194.25555555555556 -1305.7444444444445 0 0 0 -1 0.060832548453031661 -0.99814798554558515 0 -0.99814798554558515 -0.060832548453031661 -0 94.430442099260134
2 -1.0658141036401503e-14 -1567 -12000 0 0 1 1 0 -0 -0 1 0 100
7 0 0  1 2 2  -100.00000000000003 -1567 -12000.000000000002  -100 -1300 0 
 0 2 1 2
2 1.7763568394002505e-14 -1300 0 0 0 1 1 0 -0 -0 1 0 100.00000000000001
2 -200.71951219512192 -1566.280487804878 -12000 0 0 -1 0.99997448459457872 -0.007143539725279386 0 -0.007143539725279386 -0.99997448459457872 -0 100.72208215988313
7 0 0  1 2 2  -200 -1667.0000000000002 -12000  -200 -1399.9999999999998 0 
 0 2 1 2
2 -194.25555555555556 -1305.7444444444445 0 0 0 -1 0.99814798554558504 0.060832548453032501 0 0.060832548453032501 -0.99814798554558504 0 94.430442099260134
1 -200 -1667 -12000 -1 1.6240976817373719e-16 0 
1 -200 -1400 0 -1 0 0 
Polygon3D 0
PolygonOnTriangulations 0
Surfaces 14
10 0 3.1415926535897931 0 12002.970007460654
3 -1600 1.7053025658242404e-13 -12000 -0 -0 1 0 -1 0 -1 -0 -0 1667
-0.022246329376709426
1 -1600 1.7053025658242404e-13 -12000 0 0 -1 0 -1 0 -1 -0 -0 
1 -1600.0000000000002 1400 0 0 -0.99975256061967932 -0.022244494473787884 1 0 0 0 -0.022244494473787884 0.99975256061967932 
1 -1600 1.1368683772161603e-13 0 0 0 -1 0 -1 0 -1 -0 -0 
1 -200 -1400 0 0 0.99975256061967932 -0.022244494473787867 -1 0 0 0 0.022244494473787867 0.99975256061967932 
9 0 0 0 0 9 1 10 2 2 2 -200 1667 -12000  -199.99999999999997 1400 0  
-182.58101779101918 1666.8755636335497 -11999.999999999878  -182.27433595668131 1401.0802980443655 0  
-165.18624614443891 1663.3620269255209 -12000.000000000533  -164.3201159228754 1398.4104297739343 0  
-148.56928215109988 1656.4647711459957 -11999.999999998812  -147.04410045581491 1391.9351277566082 0  
-133.48231631429545 1646.384685523115 -12000.000000001692  -131.36861765127165 1381.8549363050583 0  
-120.61531447716253 1633.51768368544 -11999.999999998285  -118.14506369496675 1368.6313823487333 0  
-110.53522885380313 1618.4307178490776 -12000.000000001281  -108.06487224335271 1352.9558995441648 0  
-103.63797307456866 1601.8137538554804 -11999.999999999336  -101.58957022608936 1335.6798840771396 0  
-100.12443636643015 1584.4189822090018 -12000.000000000193  -98.919701955629137 1317.725664043315 0  
-99.999999999999972 1567.0000000000002 -12000  -100 1300 0  

0 10
1.6925365878919985 10

0 2
1 2

9 0 0 0 0 11 1 12 2 2 2 -99.999999999999986 1567 -12000  -100 1300 0  
-99.999999999997286 1538.44006678547 -11999.999999999272  -99.999999999996632 1271.4400667854613 0  
-91.027632178295576 1509.8801358040789 -12000.000000002872  -91.027632178298177 1242.8801358041108 0  
-73.082898645170175 1484.45213251163 -11999.99999999371  -73.08289864516496 1217.4521325115591 0  
-47.395699705018991 1465.2881085588403 -12000.000000009528  -47.395699705026708 1198.2881085589363 0  
-16.42591203877814 1454.9676929393356 -11999.999999989146  -16.425912038769983 1187.9676929392547 0  
16.425912038783942 1454.9676929416546 -12000.000000009657  16.425912038777486 1187.9676929416833 0  
47.395699705005207 1465.288108556997 -11999.999999993195  47.395699705008994 1198.2881085570141 0  
73.082898645184045 1484.4521325127569 -12000.00000000374  73.082898645182041 1217.4521325127323 0  
91.027632178287746 1509.8801358035892 -11999.999999998494  91.027632178288712 1242.8801358035998 0  
99.999999999999488 1538.4400667855923 -12000.000000000366  99.999999999999176 1271.4400667855912 0  
100.00000000000003 1567 -12000.000000000002  100 1300 0  

0 12
3.1415926535897931 12

0 2
1 2

9 0 0 0 0 9 1 10 2 2 2 99.999999999999986 1567.0000000000002 -12000  100.00000000000006 1299.9999999999998 0  
100.12443636643005 1584.4189822090038 -12000.000000000142  98.919701955628796 1317.7256640433163 0  
103.63797307457013 1601.8137538554881 -11999.999999999562  101.58957022609063 1335.6798840771394 0  
110.5352288537988 1618.430717849041 -12000.000000000817  108.0648722433496 1352.955899544153 0  
120.61531447717012 1633.5176836855105 -11999.9999999989  118.14506369497158 1368.6313823487574 0  
133.48231631428709 1646.3846855230368 -12000.00000000111  131.36861765126565 1381.8549363050208 0  
148.56928215110582 1656.4647711460484 -11999.999999999191  147.04410045582054 1391.9351277566432 0  
165.18624614443684 1663.3620269255048 -12000.000000000384  164.32011592287242 1398.4104297739188 0  
182.58101779101952 1666.8755636335511 -11999.999999999911  182.27433595668205 1401.0802980443677 0  
200 1667.0000000000002 -12000  200 1399.9999999999998 0  

0 10
1.6925365878919985 10

0 2
1 2

1 200 1400 0 0 -0.99975256061967932 -0.022244494473787867 1 0 0 0 -0.022244494473787867 0.99975256061967932 
10 0 3.1415926535897931 0 12002.970007460654
3 1600 -1.7053025658242404e-13 -12000 -0 -0 1 0 1 0 1 -0 0 1667
-0.022246329376709426
1 1600.0000000000002 -1400 0 0 0.99975256061967932 -0.022244494473787884 -1 0 0 0 0.022244494473787884 0.99975256061967932 
9 0 0 0 0 9 1 10 2 2 2 200 -1667 -12000  199.99999999999997 -1400 0  
182.58101779101918 -1666.8755636335497 -11999.999999999878  182.27433595668131 -1401.0802980443655 0  
165.18624614443891 -1663.3620269255209 -12000.000000000533  164.3201159228754 -1398.4104297739343 0  
148.56928215109988 -1656.4647711459957 -11999.999999998812  147.04410045581491 -1391.9351277566082 0  
133.48231631429545 -1646.384685523115 -12000.000000001692  131.36861765127165 -1381.8549363050583 0  
120.61531447716253 -1633.51768368544 -11999.999999998285  118.14506369496675 -1368.6313823487333 0  
110.53522885380313 -1618.4307178490776 -12000.000000001281  108.06487224335271 -1352.9558995441648 0  
103.63797307456866 -1601.8137538554804 -11999.999999999336  101.58957022608936 -1335.6798840771396 0  
100.12443636643015 -1584.4189822090018 -12000.000000000193  98.919701955629137 -1317.725664043315 0  
99.999999999999972 -1567.0000000000002 -12000  100 -1300 0  

0 10
1.6925365878919985 10

0 2
1 2

9 0 0 0 0 11 1 12 2 2 2 99.999999999999986 -1567 -12000  100 -1300 0  
99.999999999997286 -1538.44006678547 -11999.999999999272  99.999999999996632 -1271.4400667854613 0  
91.027632178295576 -1509.8801358040789 -12000.000000002872  91.027632178298177 -1242.8801358041108 0  
73.082898645170175 -1484.45213251163 -11999.99999999371  73.08289864516496 -1217.4521325115591 0  
47.395699705018991 -1465.2881085588403 -12000.000000009528  47.395699705026708 -1198.2881085589363 0  
16.42591203877814 -1454.9676929393356 -11999.999999989146  16.425912038769983 -1187.9676929392547 0  
-16.425912038783942 -1454.9676929416546 -12000.000000009657  -16.425912038777486 -1187.9676929416833 0  
-47.395699705005207 -1465.288108556997 -11999.999999993195  -47.395699705008994 -1198.2881085570141 0  
-73.082898645184045 -1484.4521325127569 -12000.00000000374  -73.082898645182041 -1217.4521325127323 0  
-91.027632178287746 -1509.8801358035892 -11999.999999998494  -91.027632178288712 -1242.8801358035998 0  
-99.999999999999488 -1538.4400667855923 -12000.000000000366  -99.999999999999176 -1271.4400667855912 0  
-100.00000000000003 -1567 -12000.000000000002  -100 -1300 0  

0 12
3.1415926535897931 12

0 2
1 2

9 0 0 0 0 9 1 10 2 2 2 -99.999999999999986 -1567.0000000000002 -12000  -100.00000000000006 -1299.9999999999998 0  
-100.12443636643005 -1584.4189822090038 -12000.000000000142  -98.919701955628796 -1317.7256640433163 0  
-103.63797307457013 -1601.8137538554881 -11999.999999999562  -101.58957022609063 -1335.6798840771394 0  
-110.5352288537988 -1618.430717849041 -12000.000000000817  -108.0648722433496 -1352.955899544153 0  
-120.61531447717012 -1633.5176836855105 -11999.9999999989  -118.14506369497158 -1368.6313823487574 0  
-133.48231631428709 -1646.3846855230368 -12000.00000000111  -131.36861765126565 -1381.8549363050208 0  
-148.56928215110582 -1656.4647711460484 -11999.999999999191  -147.04410045582054 -1391.9351277566432 0  
-165.18624614443684 -1663.3620269255048 -12000.000000000384  -164.32011592287242 -1398.4104297739188 0  
-182.58101779101952 -1666.8755636335511 -11999.999999999911  -182.27433595668205 -1401.0802980443677 0  
-200 -1667.0000000000002 -12000  -200 -1399.9999999999998 0  

0 10
1.6925365878919985 10

0 2
1 2

Triangulations 0

TShapes 91
Ve
1e-07
-1600 -1667 -12000
0 0

0101101
*
Ve
1e-07
-1600 1667 -12000
0 0

0101101
*
Ed
 1e-07 1 1 0
1  1 0 0 3.14159265358979
2  1 1 0 0 3.14159265358979
4 C0 1 0 2 0
0

0101000
+91 0 -90 0 *
Ve
1e-07
-1600 1400 0
0 0

0101101
*
Ed
 1e-07 1 1 0
1  2 0 0 1
2  2 1 0 0 1
4 G1 1 0 3 0
0

0101000
+90 0 -88 0 *
Ve
1e-07
-1600 -1400 0
0 0

0101101
*
Ed
 1e-07 1 1 0
1  3 0 0 3.14159265358979
2  3 1 0 0 3.14159265358979
4 C0 1 0 4 0
0

0101000
+86 0 -88 0 *
Ed
 1e-07 1 1 0
1  4 0 0 1
2  4 1 0 0 1
4 G1 1 0 5 0
0

0101000
+91 0 -86 0 *
Wi

0101000
+89 0 +87 0 -85 0 -84 0 *
Fa
0  1e-07 1 0

0101000
+83 0 *
Ve
1e-07
-200 1667 -12000
0 0

0101101
*
Ed
 1e-07 1 1 0
1  5 0 0 1400
4 C0 3 0 2 0
0

0101000
+90 0 -81 0 *
Ve
1e-07
-200 1400 0
0 0

0101101
*
Ed
 1e-07 1 1 0
1  6 0 0 1
2  5 6 0 0 1
4 C0 3 0 6 0
0

0101000
+81 0 -79 0 *
Ed
 1e-07 1 1 0
1  7 0 0 1400
4 C0 3 0 4 0
0

0101000
+88 0 -79 0 *
Wi

0101000
+80 0 +78 0 -77 0 -87 0 *
Fa
0  1e-07 3 0

0101000
+76 0 *
Ve
1e-07
-100 1567 -12000
0 0

0101101
*
Ed
 1e-07 1 1 0
1  8 0 0 1.55650912582956
2  6 6 0 0 1.55650912582956
4 C0 6 0 2 0
0

0101000
+81 0 -74 0 *
Ve
1.00000007105427e-07
-100 1300 0
0 0

0101101
*
Ed
 1e-07 1 1 0
1  9 0 0 1
2  7 6 0 0 1
2  8 7 0 0 1
4 C0 6 0 7 0
0

0101000
+74 0 -72 0 *
Ed
 1e-07 1 1 0
1  10 0 0 1.692536587892
2  9 6 0 0 1.692536587892
4 C0 6 0 4 0
0

0101000
+79 0 -72 0 *
Wi

0101000
+73 0 +71 0 -70 0 -78 0 *
Fa
0  1e-07 6 0

0101000
+69 0 *
Ve
1.00000021316282e-07
100 1567 -12000
0 0

0101101
*
Ed
 1e-07 1 1 0
1  11 0 0 3.14159265358979
2  10 7 0 0 3.14159265358979
4 C0 7 0 2 0
0

0101000
+74 0 -67 0 *
Ve
1.00000028421709e-07
100 1300 0
0 0

0101101
*
Ed
 1e-07 1 1 0
1  12 0 0 1
2  11 7 0 0 1
2  12 8 0 0 1
4 C0 7 0 8 0
0

0101000
+67 0 -65 0 *
Ed
 1e-07 1 1 0
1  13 0 0 3.14159265358979
2  13 7 0 0 3.14159265358979
4 C0 7 0 4 0
0

0101000
+72 0 -65 0 *
Wi

0101000
+66 0 +64 0 -63 0 -71 0 *
Fa
0  1e-07 7 0

0101000
+62 0 *
Ve
1e-07
200 1667 -12000
0 0

0101101
*
Ed
 1e-07 1 1 0
1  14 0 0 1.55650912582956
2  14 8 0 0 1.55650912582956
4 C0 8 0 2 0
0

0101000
+67 0 -60 0 *
Ve
1e-07
200 1400 0
0 0

0101101
*
Ed
 1e-07 1 1 0
1  15 0 0 1
2  15 8 0 0 1
4 C0 8 0 9 0
0

0101000
+60 0 -58 0 *
Ed
 1e-07 1 1 0
1  16 0 0 1.692536587892
2  16 8 0 0 1.692536587892
4 C0 8 0 4 0
0

0101000
+65 0 -58 0 *
Wi

0101000
+59 0 +57 0 -56 0 -64 0 *
Fa
0  1e-07 8 0

0101000
+55 0 *
Ve
1.00000113686838e-07
1600 1667 -12000
0 0

0101101
*
Ed
 1e-07 1 1 0
1  17 0 0 1400
4 C0 9 0 2 0
0

0101000
+60 0 -53 0 *
Ve
1e-07
1600 1400 0
0 0

0101101
*
Ed
 1e-07 1 1 0
1  18 0 0 1
2  17 10 0 0 1
4 G1 9 0 10 0
0

0101000
+53 0 -51 0 *
Ed
 1e-07 1 1 0
1  19 0 0 1400
4 C0 9 0 4 0
0

0101000
+58 0 -51 0 *
Wi

0101000
+52 0 +50 0 -49 0 -57 0 *
Fa
0  1e-07 9 0

0101000
+48 0 *
Ve
1e-07
1600 -1667 -12000
0 0

0101101
*
Ed
 1e-07 1 1 0
1  20 0 0 3.14159265358979
2  18 10 0 0 3.14159265358979
4 C0 10 0 2 0
0

0101000
+53 0 -46 0 *
Ve
1e-07
1600 -1400 0
0 0

0101101
*
Ed
 1e-07 1 1 0
1  21 0 0 1
2  19 10 0 0 1
4 G1 10 0 11 0
0

0101000
+46 0 -44 0 *
Ed
 1e-07 1 1 0
1  22 0 0 3.14159265358979
2  20 10 0 0 3.14159265358979
4 C0 10 0 4 0
0

0101000
+51 0 -44 0 *
Wi

0101000
+45 0 +43 0 -42 0 -50 0 *
Fa
0  1e-07 10 0

0101000
+41 0 *
Ve
1e-07
200 -1667 -12000
0 0

0101101
*
Ed
 1e-07 1 1 0
1  23 0 0 1400
4 C0 11 0 2 0
0

0101000
+46 0 -39 0 *
Ve
1e-07
200 -1400 0
0 0

0101101
*
Ed
 1e-07 1 1 0
1  24 0 0 1
2  21 12 0 0 1
4 C0 11 0 12 0
0

0101000
+39 0 -37 0 *
Ed
 1e-07 1 1 0
1  25 0 0 1400
4 C0 11 0 4 0
0

0101000
+44 0 -37 0 *
Wi

0101000
+38 0 +36 0 -35 0 -43 0 *
Fa
0  1e-07 11 0

0101000
+34 0 *
Ve
1e-07
100 -1567 -12000
0 0

0101101
*
Ed
 1e-07 1 1 0
1  26 0 0 1.55650912582956
2  22 12 0 0 1.55650912582956
4 C0 12 0 2 0
0

0101000
+39 0 -32 0 *
Ve
1.00000007105427e-07
100 -1300 0
0 0

0101101
*
Ed
 1e-07 1 1 0
1  27 0 0 1
2  23 12 0 0 1
2  24 13 0 0 1
4 C0 12 0 13 0
0

0101000
+32 0 -30 0 *
Ed
 1e-07 1 1 0
1  28 0 0 1.692536587892
2  25 12 0 0 1.692536587892
4 C0 12 0 4 0
0

0101000
+37 0 -30 0 *
Wi

0101000
+31 0 +29 0 -28 0 -36 0 *
Fa
0  1e-07 12 0

0101000
+27 0 *
Ve
1.00000021316282e-07
-100 -1567 -12000
0 0

0101101
*
Ed
 1e-07 1 1 0
1  29 0 0 3.14159265358979
2  26 13 0 0 3.14159265358979
4 C0 13 0 2 0
0

0101000
+32 0 -25 0 *
Ve
1.00000028421709e-07
-100 -1300 0
0 0

0101101
*
Ed
 1e-07 1 1 0
1  30 0 0 1
2  27 13 0 0 1
2  28 14 0 0 1
4 C0 13 0 14 0
0

0101000
+25 0 -23 0 *
Ed
 1e-07 1 1 0
1  31 0 0 3.14159265358979
2  29 13 0 0 3.14159265358979
4 C0 13 0 4 0
0

0101000
+30 0 -23 0 *
Wi

0101000
+24 0 +22 0 -21 0 -29 0 *
Fa
0  1e-07 13 0

0101000
+20 0 *
Ve
1e-07
-200 -1667 -12000
0 0

0101101
*
Ed
 1e-07 1 1 0
1  32 0 0 1.55650912582956
2  30 14 0 0 1.55650912582956
4 C0 14 0 2 0
0

0101000
+25 0 -18 0 *
Ve
1e-07
-200 -1400 0
0 0

0101101
*
Ed
 1e-07 1 1 0
1  33 0 0 1
2  31 14 0 0 1
4 C0 14 0 5 0
0

0101000
+18 0 -16 0 *
Ed
 1e-07 1 1 0
1  34 0 0 1.692536587892
2  32 14 0 0 1.692536587892
4 C0 14 0 4 0
0

0101000
+23 0 -16 0 *
Wi

0101000
+17 0 +15 0 -14 0 -22 0 *
Fa
0  1e-07 14 0

0101000
+13 0 *
Ed
 1e-07 1 1 0
1  35 0 0 1400
4 C0 5 0 2 0
0

0101000
+18 0 -91 0 *
Ed
 1e-07 1 1 0
1  36 0 0 1400
4 C0 5 0 4 0
0

0101000
+16 0 -86 0 *
Wi

0101000
+11 0 +84 0 -10 0 -15 0 *
Fa
0  1e-07 5 0

0101000
+9 0 *
Wi

0101100
+89 0 +11 0 +80 0 +17 0 +73 0 +24 0 +66 0 +31 0 +59 0 +38 0 
+52 0 +45 0 *
Fa
0  1e-07 2 0

0101000
+7 0 *
Wi

0101100
+85 0 +77 0 +70 0 +63 0 +56 0 +49 0 +42 0 +35 0 +28 0 +21 0 
+14 0 +10 0 *
Fa
0  1e-07 4 0

0101000
+5 0 *
Sh

0101100
+82 0 +75 0 +68 0 +61 0 +54 0 +47 0 +40 0 +33 0 +26 0 +19 0 
+12 0 +8 0 -6 0 +4 0 *
So

0100100
-3 0 *
Co

1100000
+2 0 *

+1 0 