DBRep_DrawableShape

CASCADE Topology V3, (c) Open Cascade
Locations 2
1
              1              -0               0              -0 
              0               1               0              -0 
             -0               0               1          -12500 
1
              1              -0               0              -0 
              0               1               0              -0 
             -0               0               1          -13500 
Curve2ds 48
1 0 0 1 0 
1 0 0 1 0 
1 1000 0 0 -1 
1 0 0 0 1 
1 0 -4444 1 0 
1 0 0 1 0 
1 0 0 0 -1 
1 0 0 0 1 
1 0 0 1 0 
1 0 7682 1 0 
1 1000 0 0 -1 
1 7682 0 0 1 
1 0 -4444 1 0 
1 0 7682 1 0 
1 0 0 0 -1 
1 7682 0 0 1 
1 0 0 0 1 
1 0 0 1 0 
1 1000 0 0 1 
1 0 0 1 0 
1 0 0 0 1 
1 0 4444 1 0 
1 1000 0 0 1 
1 0 4444 1 0 
1 0 0 1 0 
1 0 0 1 0 
1 1000 0 0 -1 
1 0 0 0 1 
1 0 -5905 1 0 
1 0 0 1 0 
1 0 0 0 -1 
1 0 0 0 1 
1 0 0 1 0 
1 0 8959 1 0 
1 1000 0 0 -1 
1 8959 0 0 1 
1 0 -5905 1 0 
1 0 8959 1 0 
1 0 0 0 -1 
1 8959 0 0 1 
1 0 0 0 1 
1 0 0 1 0 
1 1000 0 0 1 
1 0 0 1 0 
1 0 0 0 1 
1 0 5905 1 0 
1 1000 0 0 1 
1 0 5905 1 0 
Curves 24
1 -3841 -2222 -500 0 0 1 
1 -3841 -2222 500 -0 1 0 
1 -3841 2222 -500 0 0 1 
1 -3841 -2222 -500 -0 1 0 
1 3841 -2222 -500 0 0 1 
1 3841 -2222 500 -0 1 0 
1 3841 2222 -500 0 0 1 
1 3841 -2222 -500 -0 1 0 
1 -3841 -2222 -500 1 0 -0 
1 -3841 -2222 500 1 0 -0 
1 -3841 2222 -500 1 0 -0 
1 -3841 2222 500 1 0 -0 
1 -4479.5 -2952.5 -500 0 0 1 
1 -4479.5 -2952.5 500 -0 1 0 
1 -4479.5 2952.5 -500 0 0 1 
1 -4479.5 -2952.5 -500 -0 1 0 
1 4479.5 -2952.5 -500 0 0 1 
1 4479.5 -2952.5 500 -0 1 0 
1 4479.5 2952.5 -500 0 0 1 
1 4479.5 -2952.5 -500 -0 1 0 
1 -4479.5 -2952.5 -500 1 0 -0 
1 -4479.5 -2952.5 500 1 0 -0 
1 -4479.5 2952.5 -500 1 0 -0 
1 -4479.5 2952.5 500 1 0 -0 
Polygon3D 0
PolygonOnTriangulations 0
Surfaces 12
1 -3841 -2222 -500 1 0 -0 0 0 1 0 -1 0 
1 -3841 -2222 -500 -0 1 0 0 0 1 1 0 -0 
1 -3841 -2222 500 0 0 1 1 0 -0 -0 1 0 
1 -3841 2222 -500 -0 1 0 0 0 1 1 0 -0 
1 -3841 -2222 -500 0 0 1 1 0 -0 -0 1 0 
1 3841 -2222 -500 1 0 -0 0 0 1 0 -1 0 
1 -4479.5 -2952.5 -500 1 0 -0 0 0 1 0 -1 0 
1 -4479.5 -2952.5 -500 -0 1 0 0 0 1 1 0 -0 
1 -4479.5 -2952.5 500 0 0 1 1 0 -0 -0 1 0 
1 -4479.5 2952.5 -500 -0 1 0 0 0 1 1 0 -0 
1 -4479.5 -2952.5 -500 0 0 1 1 0 -0 -0 1 0 
1 4479.5 -2952.5 -500 1 0 -0 0 0 1 0 -1 0 
Triangulations 0

TShapes 71
Ve
1e-07
-3841 -2222 500
0 0

0101101
*
Ve
1e-07
-3841 -2222 -500
0 0

0101101
*
Ed
 1e-07 1 1 0
1  1 0 0 1000
2  1 1 0 0 1000
2  2 2 0 0 1000
0

0101000
-71 0 +70 0 *
Ve
1e-07
-3841 2222 500
0 0

0101101
*
Ed
 1e-07 1 1 0
1  2 0 0 4444
2  3 1 0 0 4444
2  4 3 0 0 4444
0

0101000
-68 0 +71 0 *
Ve
1e-07
-3841 2222 -500
0 0

0101101
*
Ed
 1e-07 1 1 0
1  3 0 0 1000
2  5 1 0 0 1000
2  6 4 0 0 1000
0

0101000
-68 0 +66 0 *
Ed
 1e-07 1 1 0
1  4 0 0 4444
2  7 1 0 0 4444
2  8 5 0 0 4444
0

0101000
-66 0 +70 0 *
Wi

0101100
-69 0 -67 0 +65 0 +64 0 *
Fa
0  1e-07 1 0

0111000
+63 0 *
Ve
1e-07
3841 -2222 500
0 0

0101101
*
Ve
1e-07
3841 -2222 -500
0 0

0101101
*
Ed
 1e-07 1 1 0
1  5 0 0 1000
2  9 6 0 0 1000
2  10 2 0 0 1000
0

0101000
-61 0 +60 0 *
Ve
1e-07
3841 2222 500
0 0

0101101
*
Ed
 1e-07 1 1 0
1  6 0 0 4444
2  11 6 0 0 4444
2  12 3 0 0 4444
0

0101000
-58 0 +61 0 *
Ve
1e-07
3841 2222 -500
0 0

0101101
*
Ed
 1e-07 1 1 0
1  7 0 0 1000
2  13 6 0 0 1000
2  14 4 0 0 1000
0

0101000
-58 0 +56 0 *
Ed
 1e-07 1 1 0
1  8 0 0 4444
2  15 6 0 0 4444
2  16 5 0 0 4444
0

0101000
-56 0 +60 0 *
Wi

0101100
-59 0 -57 0 +55 0 +54 0 *
Fa
0  1e-07 6 0

0111000
+53 0 *
Ed
 1e-07 1 1 0
1  9 0 0 7682
2  17 2 0 0 7682
2  18 5 0 0 7682
0

0101000
-60 0 +70 0 *
Ed
 1e-07 1 1 0
1  10 0 0 7682
2  19 2 0 0 7682
2  20 3 0 0 7682
0

0101000
-61 0 +71 0 *
Wi

0101100
-51 0 -59 0 +50 0 +69 0 *
Fa
0  1e-07 2 0

0111000
+49 0 *
Ed
 1e-07 1 1 0
1  11 0 0 7682
2  21 4 0 0 7682
2  22 5 0 0 7682
0

0101000
-56 0 +66 0 *
Ed
 1e-07 1 1 0
1  12 0 0 7682
2  23 4 0 0 7682
2  24 3 0 0 7682
0

0101000
-58 0 +68 0 *
Wi

0101100
-47 0 -55 0 +46 0 +65 0 *
Fa
0  1e-07 4 0

0111000
+45 0 *
Wi

0101100
-64 0 -47 0 +54 0 +51 0 *
Fa
0  1e-07 5 0

0111000
+43 0 *
Wi

0101100
-67 0 -46 0 +57 0 +50 0 *
Fa
0  1e-07 3 0

0111000
+41 0 *
Sh

0101100
-62 0 +52 0 -48 0 +44 0 -42 0 +40 0 *
So

0100000
+39 0 *
Co

0100000
+38 1 *
Ve
1e-07
-4479.5 -2952.5 500
0 0

0101101
*
Ve
1e-07
-4479.5 -2952.5 -500
0 0

0101101
*
Ed
 1e-07 1 1 0
1  13 0 0 1000
2  25 7 0 0 1000
2  26 8 0 0 1000
0

0101000
-36 0 +35 0 *
Ve
1e-07
-4479.5 2952.5 500
0 0

0101101
*
Ed
 1e-07 1 1 0
1  14 0 0 5905
2  27 7 0 0 5905
2  28 9 0 0 5905
0

0101000
-33 0 +36 0 *
Ve
1e-07
-4479.5 2952.5 -500
0 0

0101101
*
Ed
 1e-07 1 1 0
1  15 0 0 1000
2  29 7 0 0 1000
2  30 10 0 0 1000
0

0101000
-33 0 +31 0 *
Ed
 1e-07 1 1 0
1  16 0 0 5905
2  31 7 0 0 5905
2  32 11 0 0 5905
0

0101000
-31 0 +35 0 *
Wi

0101100
-34 0 -32 0 +30 0 +29 0 *
Fa
0  1e-07 7 0

0111000
+28 0 *
Ve
1e-07
4479.5 -2952.5 500
0 0

0101101
*
Ve
1e-07
4479.5 -2952.5 -500
0 0

0101101
*
Ed
 1e-07 1 1 0
1  17 0 0 1000
2  33 12 0 0 1000
2  34 8 0 0 1000
0

0101000
-26 0 +25 0 *
Ve
1e-07
4479.5 2952.5 500
0 0

0101101
*
Ed
 1e-07 1 1 0
1  18 0 0 5905
2  35 12 0 0 5905
2  36 9 0 0 5905
0

0101000
-23 0 +26 0 *
Ve
1e-07
4479.5 2952.5 -500
0 0

0101101
*
Ed
 1e-07 1 1 0
1  19 0 0 1000
2  37 12 0 0 1000
2  38 10 0 0 1000
0

0101000
-23 0 +21 0 *
Ed
 1e-07 1 1 0
1  20 0 0 5905
2  39 12 0 0 5905
2  40 11 0 0 5905
0

0101000
-21 0 +25 0 *
Wi

0101100
-24 0 -22 0 +20 0 +19 0 *
Fa
0  1e-07 12 0

0111000
+18 0 *
Ed
 1e-07 1 1 0
1  21 0 0 8959
2  41 8 0 0 8959
2  42 11 0 0 8959
0

0101000
-25 0 +35 0 *
Ed
 1e-07 1 1 0
1  22 0 0 8959
2  43 8 0 0 8959
2  44 9 0 0 8959
0

0101000
-26 0 +36 0 *
Wi

0101100
-16 0 -24 0 +15 0 +34 0 *
Fa
0  1e-07 8 0

0111000
+14 0 *
Ed
 1e-07 1 1 0
1  23 0 0 8959
2  45 10 0 0 8959
2  46 11 0 0 8959
0

0101000
-21 0 +31 0 *
Ed
 1e-07 1 1 0
1  24 0 0 8959
2  47 10 0 0 8959
2  48 9 0 0 8959
0

0101000
-23 0 +33 0 *
Wi

0101100
-12 0 -20 0 +11 0 +30 0 *
Fa
0  1e-07 10 0

0111000
+10 0 *
Wi

0101100
-29 0 -12 0 +19 0 +16 0 *
Fa
0  1e-07 11 0

0111000
+8 0 *
Wi

0101100
-32 0 -11 0 +22 0 +15 0 *
Fa
0  1e-07 9 0

0111000
+6 0 *
Sh

0101100
-27 0 +17 0 -13 0 +9 0 -7 0 +5 0 *
So

0100000
+4 0 *
Co

0100000
+3 2 *
Co

1100000
+37 0 +2 0 *

+1 0 