DBRep_DrawableShape

CASCADE Topology V3, (c) Open Cascade
Locations 6
1
              1               0               0              -4 
              0               1               0              -2 
              0               0               1          -20000 
1
              1               0               0              -4 
              0               1               0               2 
              0               0               1          -20000 
1
              1               0               0               0 
              0               1               0              -2 
              0               0               1          -20000 
1
              1               0               0               0 
              0               1               0               2 
              0               0               1          -20000 
1
              1               0               0               4 
              0               1               0              -2 
              0               0               1          -20000 
1
              1               0               0               4 
              0               1               0               2 
              0               0               1          -20000 
Curve2ds 6
1 0 0 0 -1 
1 6.2831853071795862 0 0 -1 
1 0 0 1 0 
2 5.6976672189142629e-17 2.1278338841125173e-18 1 0 -0 1 0.75
1 0 -10 1 0 
2 5.6976672189142629e-17 2.1278338841125173e-18 1 0 -0 1 0.75
Curves 3
1 0.75 0 0 0 0 1 
2 0 0 0 0 0 1 1 0 0 0 1 0 0.75
2 0 0 10 0 0 1 1 0 0 0 1 0 0.75
Polygon3D 0
PolygonOnTriangulations 0
Surfaces 3
2 0 0 0 -0 -0 -1 1 0 0 0 1 0 0.75
1 -5.6976672189142629e-17 -2.1278338841125173e-18 0 0 0 1 1 0 -0 -0 1 0 
1 -5.6976672189142629e-17 -2.1278338841125173e-18 10 0 0 1 1 0 -0 -0 1 0 
Triangulations 0

TShapes 20
Ve
1e-07
0.75 0 0
0 0

0101101
*
Ve
1e-07
0.75 0 10
0 0

0101101
*
Ed
 1e-07 1 1 0
1  1 0 0 10
3  1 2CN 1 0 0 10
0

0101000
+20 0 -19 0 *
Ed
 1e-07 1 1 0
1  2 0 0 6.28318530717959
2  3 1 0 0 6.28318530717959
2  4 2 0 0 6.28318530717959
0

0101000
+20 0 -20 0 *
Ed
 1e-07 1 1 0
1  3 0 0 6.28318530717959
2  5 1 0 0 6.28318530717959
2  6 3 0 0 6.28318530717959
0

0101000
+19 0 -19 0 *
Wi

0101100
+18 0 -18 0 -17 0 +16 0 *
Fa
0  1e-07 1 0

0101000
+15 0 *
Wi

0101100
+17 0 *
Fa
0  1e-07 2 0

0101000
+13 0 *
Wi

0101100
+16 0 *
Fa
0  1e-07 3 0

0101000
+11 0 *
Sh

0101100
+14 0 +12 0 -10 0 *
So

0100000
-9 0 *
Co

0100000
+8 0 *
Co

0100000
+8 0 *
Co

0100000
+8 0 *
Co

0100000
+8 0 *
Co

0100000
+8 0 *
Co

0100000
+8 0 *
Co

1100000
+7 1 +6 2 +5 3 +4 4 +3 5 +2 6 *

+1 0 