DBRep_DrawableShape

CASCADE Topology V3, (c) Open Cascade
Locations 6
1
              1               0               0           -2500 
              0               1               0           -1500 
              0               0               1          -20000 
1
              1               0               0           -2500 
              0               1               0            1500 
              0               0               1          -20000 
1
              1               0               0               0 
              0               1               0           -1500 
              0               0               1          -20000 
1
              1               0               0               0 
              0               1               0            1500 
              0               0               1          -20000 
1
              1               0               0            2500 
              0               1               0           -1500 
              0               0               1          -20000 
1
              1               0               0            2500 
              0               1               0            1500 
              0               0               1          -20000 
Curve2ds 6
1 0 0 0 -1 
1 6.2831853071795862 0 0 -1 
1 0 0 1 0 
2 2.2404139131525908e-14 -1.9933591457366851e-15 1 0 -0 1 500
1 0 -6000 1 0 
2 2.2404139131525908e-14 -1.9933591457366851e-15 1 0 -0 1 500
Curves 3
1 500 0 0 0 0 1 
2 0 0 0 0 0 1 1 0 0 0 1 0 500
2 0 0 6000 0 0 1 1 0 0 0 1 0 500
Polygon3D 0
PolygonOnTriangulations 0
Surfaces 3
2 0 0 0 -0 -0 -1 1 0 0 0 1 0 500
1 -2.2404139131525908e-14 1.9933591457366851e-15 0 0 0 1 1 0 -0 -0 1 0 
1 -2.2404139131525908e-14 1.9933591457366851e-15 6000 0 0 1 1 0 -0 -0 1 0 
Triangulations 0

TShapes 20
Ve
1e-07
500 0 0
0 0

0101101
*
Ve
1e-07
500 0 6000
0 0

0101101
*
Ed
 1e-07 1 1 0
1  1 0 0 6000
3  1 2CN 1 0 0 6000
0

0101000
+20 0 -19 0 *
Ed
 1e-07 1 1 0
1  2 0 0 6.28318530717959
2  3 1 0 0 6.28318530717959
2  4 2 0 0 6.28318530717959
0

0101000
+20 0 -20 0 *
Ed
 1e-07 1 1 0
1  3 0 0 6.28318530717959
2  5 1 0 0 6.28318530717959
2  6 3 0 0 6.28318530717959
0

0101000
+19 0 -19 0 *
Wi

0101100
+18 0 -18 0 -17 0 +16 0 *
Fa
0  1e-07 1 0

0101000
+15 0 *
Wi

0101100
+17 0 *
Fa
0  1e-07 2 0

0101000
+13 0 *
Wi

0101100
+16 0 *
Fa
0  1e-07 3 0

0101000
+11 0 *
Sh

0101100
+14 0 +12 0 -10 0 *
So

0100000
-9 0 *
Co

0100000
+8 0 *
Co

0100000
+8 0 *
Co

0100000
+8 0 *
Co

0100000
+8 0 *
Co

0100000
+8 0 *
Co

0100000
+8 0 *
Co

1100000
+7 1 +6 2 +5 3 +4 4 +3 5 +2 6 *

+1 0 