DBRep_DrawableShape

CASCADE Topology V3, (c) Open Cascade
Locations 2
1
              1              -0               0              -0 
              0               1               0               0 
             -0               0               1              -0 
2  1 -1 0
Curve2ds 80
1 0 -7.0710678118654755 1 0 
1 0 -10 1 0 
1 0 -7.0710678118654755 1 0 
1 10 0 0 -1 
1 0 -7.0710678118654755 1 0 
1 90 0 0 -1 
1 0 -7.0710678118654755 1 0 
1 0 -90 1 0 
1 9.9999999999999858 0 0 1 
1 0 12.24744871391588 1 0 
1 89.999999999999972 0 0 1 
1 0 12.247448713915915 1 0 
1 0 7.0710678118654755 1 0 
1 0 10 1 0 
1 10.000000000000014 3.5355339059327378 0 -1 
1 0 7.0710678118654755 1 0 
1 10 0 0 1 
1 89.999999999999957 3.5355339059327378 0 -1 
1 10.000000000000014 3.5355339059327378 -0 -1 
1 0 7.0710678118654755 1 0 
1 10 0 0 1 
1 89.999999999999972 0 0 1 
1 0 12.247448713915915 1 0 
1 9.9999999999999858 0 0 1 
1 0 12.24744871391588 1 0 
1 89.999999999999972 3.5355339059327378 0 -1 
1 0 7.0710678118654755 1 0 
1 0 10 1 0 
1 10.000000000000014 3.5355339059327378 0 -1 
1 10.000000000000014 3.5355339059327378 -0 -1 
1 0 -7.0710678118654755 1 0 
1 10 0 0 1 
1 0 -7.0710678118654755 1 0 
1 90 0 0 1 
1 0 7.0710678118654755 1 0 
1 0 90 1 0 
1 0 7.0710678118654755 1 0 
1 0 10 1 0 
1 0 7.0710678118654755 1 0 
1 0 90 1 0 
1 0 7.0710678118654755 1 0 
1 90 0 0 1 
1 10.000000000000014 3.5355339059327378 0 -1 
1 0 7.0710678118654755 1 0 
1 0 10 1 0 
1 0 7.0710678118654755 1 0 
1 0 90 1 0 
1 0 7.0710678118654755 1 0 
1 90 0 0 1 
1 10 -3.5355339059327378 0 1 
1 0 -7.0710678118654755 1 0 
1 10 0 0 1 
1 0 -7.0710678118654755 1 0 
1 90 0 0 1 
1 0 7.0710678118654755 1 0 
1 0 90 1 0 
1 89.999999999999957 3.5355339059327378 0 -1 
1 89.999999999999957 3.5355339059327378 -0 -1 
1 0 -7.0710678118654755 1 0 
1 0 -10 1 0 
1 9.9999999999999858 0 0 1 
1 0 12.24744871391588 1 0 
1 89.999999999999972 0 0 1 
1 0 12.247448713915915 1 0 
1 89.999999999999957 3.5355339059327378 0 -1 
1 10.000000000000014 3.5355339059327378 0 -1 
1 0 -7.0710678118654755 1 0 
1 10 0 0 -1 
1 89.999999999999957 3.5355339059327378 0 -1 
1 89.999999999999972 -3.5355339059327378 0 1 
1 10.000000000000014 3.5355339059327378 0 -1 
1 0 -7.0710678118654755 1 0 
1 90 0 0 -1 
1 89.999999999999972 0 0 1 
1 0 12.247448713915915 1 0 
1 0 -7.0710678118654755 1 0 
1 0 -90 1 0 
1 9.9999999999999858 0 -0 1 
1 0 12.24744871391588 1 0 
1 89.999999999999972 3.5355339059327378 0 -1 
Curves 48
1 -50 -40 -50 0 0 1 
1 -50 -50 -40 0 1 0 
1 -50 -50 40 0 1 0 
1 -50 40 -50 0 0 1 
8 -7.0710678118654746 7.0710678118654746
1 -45 -45 -40.000000000000014 0.70710678118654746 -0.70710678118654746 -0 
8 -7.0710678118654746 7.0710678118654746
1 -45 -45 39.999999999999972 0.70710678118654746 -0.70710678118654746 -0 
1 -40 -50 -50 0 0 1 
8 -3.5355339059327373 10.606601717798211
1 -42.5 -39.999999999999986 -47.5 -0.70710678118654746 0 0.70710678118654746 
1 -40 -50 -50 0 1 0 
8 -3.5355339059327373 10.606601717798211
1 -42.5 39.999999999999957 -47.5 -0.70710678118654746 0 0.70710678118654746 
8 -3.5355339059327373 10.606601717798211
1 -42.5 -39.999999999999986 47.5 -0.70710678118654746 -0 -0.70710678118654746 
1 -40 -50 50 0 1 0 
8 -7.0710678118654746 7.0710678118654746
1 -45 39.999999999999972 45 0.70710678118654746 -0 0.70710678118654746 
8 -7.0710678118654746 7.0710678118654746
1 -45 45 -40.000000000000014 0.70710678118654746 0.70710678118654746 0 
8 -3.5355339059327373 10.606601717798211
1 -42.5 47.5 39.999999999999972 -0.70710678118654746 -0.70710678118654746 0 
1 -40 50 -50 0 0 1 
8 -3.5355339059327373 10.606601717798211
1 -39.999999999999986 -42.5 -47.5 0 -0.70710678118654746 0.70710678118654746 
8 -3.5355339059327373 10.606601717798211
1 -39.999999999999986 -42.5 47.5 -0 -0.70710678118654746 -0.70710678118654746 
1 -50 -50 -40 1 0 0 
1 -50 -50 40 1 0 0 
1 40 -50 -50 0 0 1 
1 -50 -40 -50 1 0 0 
1 -50 40 -50 1 0 0 
1 40 -50 -50 0 1 0 
8 -3.5355339059327373 10.606601717798211
1 -39.999999999999986 42.5 -47.5 -0 0.70710678118654746 0.70710678118654746 
1 -50 -40 50 1 0 0 
1 -50 40 50 1 0 0 
1 40 -50 50 0 1 0 
8 -3.5355339059327373 10.606601717798211
1 -40 47.5 42.5 0 -0.70710678118654746 0.70710678118654746 
1 -50 50 -40 1 0 0 
1 -50 50 40 1 0 0 
1 40 50 -50 0 0 1 
8 -3.5355339059327373 10.606601717798211
1 39.999999999999957 -42.5 -47.5 0 -0.70710678118654746 0.70710678118654746 
8 -3.5355339059327373 10.606601717798211
1 39.999999999999957 -42.5 47.5 -0 -0.70710678118654746 -0.70710678118654746 
1 50 -40 -50 0 0 1 
8 -7.0710678118654746 7.0710678118654746
1 45 -45 -40.000000000000014 -0.70710678118654746 -0.70710678118654746 0 
8 -7.0710678118654746 7.0710678118654746
1 45 -45 39.999999999999972 -0.70710678118654746 -0.70710678118654746 0 
8 -3.5355339059327373 10.606601717798211
1 39.999999999999957 42.5 -47.5 -0 0.70710678118654746 0.70710678118654746 
8 -3.5355339059327373 10.606601717798211
1 42.5 -39.999999999999986 -47.5 0.70710678118654746 -0 0.70710678118654746 
1 50 -50 -40 0 1 0 
8 -3.5355339059327373 10.606601717798211
1 42.5 39.999999999999957 -47.5 0.70710678118654746 -0 0.70710678118654746 
8 -3.5355339059327373 10.606601717798211
1 39.999999999999972 47.5 42.5 0 -0.70710678118654746 0.70710678118654746 
8 -3.5355339059327373 10.606601717798211
1 42.5 -39.999999999999986 47.5 0.70710678118654746 0 -0.70710678118654746 
1 50 -50 40 0 1 0 
8 -7.0710678118654746 7.0710678118654746
1 45 39.999999999999972 45 -0.70710678118654746 0 0.70710678118654746 
1 50 40 -50 0 0 1 
8 -7.0710678118654746 7.0710678118654746
1 45 45 -40.000000000000014 -0.70710678118654746 0.70710678118654746 -0 
8 -3.5355339059327373 10.606601717798211
1 42.5 47.5 39.999999999999972 0.70710678118654746 -0.70710678118654746 -0 
Polygon3D 0
PolygonOnTriangulations 0
Surfaces 26
1 -50 -50 -50 1 0 -0 0 0 1 0 -1 0 
1 -45 -45 -50 -0.70710678118654746 -0.70710678118654746 0 0 0 1 0.70710678118654757 -0.70710678118654757 -0 
1 -45 -50 -45 -0.70710678118654746 0 -0.70710678118654746 0 1 0 0.70710678118654757 0 -0.70710678118654757 
1 -45 -50 45 0.70710678118654746 0 -0.70710678118654746 0 1 0 0.70710678118654757 -0 0.70710678118654757 
1 -45 45 -50 0.70710678118654746 -0.70710678118654746 0 0 0 1 0.70710678118654757 0.70710678118654757 -0 
1 -40 -40 -50 -0.57735026918962573 -0.57735026918962573 -0.57735026918962573 0.70710678118654746 -0.70710678118654746 0 -0.40824829046386302 -0.40824829046386302 0.81649658092772603 
1 -40 -40 50 0.57735026918962573 0.57735026918962573 -0.57735026918962573 0.70710678118654746 -0.70710678118654746 0 -0.40824829046386302 -0.40824829046386302 -0.81649658092772603 
1 -50 -50 -50 -0 1 0 0 0 1 1 0 -0 
1 -50 -50 -50 0 0 1 1 0 -0 -0 1 0 
1 -50 -50 50 0 0 1 1 0 -0 -0 1 0 
1 -40 50 40 0.57735026918962573 -0.57735026918962573 -0.57735026918962573 0.70710678118654746 0 0.70710678118654746 -0.40824829046386302 -0.81649658092772603 0.40824829046386302 
1 -40 40 -50 0.57735026918962573 -0.57735026918962573 0.57735026918962573 0.70710678118654746 0.70710678118654746 0 -0.40824829046386302 0.40824829046386302 0.81649658092772603 
1 -50 50 -50 -0 1 0 0 0 1 1 0 -0 
1 -50 -45 -45 0 -0.70710678118654746 -0.70710678118654746 1 0 0 -0 0.70710678118654757 -0.70710678118654757 
1 -50 -45 45 0 0.70710678118654746 -0.70710678118654746 1 0 0 -0 0.70710678118654757 0.70710678118654757 
1 45 -45 -50 -0.70710678118654746 0.70710678118654746 0 0 0 1 -0.70710678118654757 -0.70710678118654757 0 
1 -50 45 -45 0 -0.70710678118654746 0.70710678118654746 1 0 0 0 -0.70710678118654757 -0.70710678118654757 
1 45 -50 -45 -0.70710678118654746 0 0.70710678118654746 0 1 0 -0.70710678118654757 0 -0.70710678118654757 
1 -50 45 45 0 0.70710678118654746 0.70710678118654746 1 0 -0 0 -0.70710678118654757 0.70710678118654757 
1 45 -50 45 0.70710678118654746 0 0.70710678118654746 -0 1 0 -0.70710678118654757 -0 0.70710678118654757 
1 45 45 -50 0.70710678118654746 0.70710678118654746 0 0 -0 1 -0.70710678118654757 0.70710678118654757 0 
1 50 -50 -50 1 0 -0 0 0 1 0 -1 0 
1 40 -40 -50 -0.57735026918962573 0.57735026918962573 0.57735026918962573 -0.70710678118654746 -0.70710678118654746 0 0.40824829046386302 -0.40824829046386302 0.81649658092772603 
1 40 -40 50 0.57735026918962573 -0.57735026918962573 0.57735026918962573 -0.70710678118654746 -0.70710678118654746 0 0.40824829046386302 -0.40824829046386302 -0.81649658092772603 
1 40 50 40 0.57735026918962573 0.57735026918962573 0.57735026918962573 -0.70710678118654746 0 0.70710678118654746 0.40824829046386302 -0.81649658092772603 0.40824829046386302 
1 40 40 -50 0.57735026918962573 0.57735026918962573 -0.57735026918962573 -0.70710678118654746 0.70710678118654746 0 0.40824829046386302 0.40824829046386302 0.81649658092772603 
Triangulations 0

TShapes 127
Ve
1e-07
-50 -40 -40
0 0

0101101
*
Ve
1e-07
-50 -40 40
0 0

0101101
*
Ed
 1e-07 1 1 0
1  1 0 10 90
2  1 2 0 10 90
2  2 1 1 10 90
0

0101000
+127 0 -126 0 *
Ve
1e-07
-50 40 -40
0 0

0101101
*
Ed
 1e-07 1 1 0
1  2 0 10 90
2  3 3 0 10 90
2  4 1 1 10 90
0

0101000
+127 0 -124 0 *
Ve
1e-07
-50 40 40
0 0

0101101
*
Ed
 1e-07 1 1 0
1  3 0 10 90
2  5 4 0 10 90
2  6 1 1 10 90
0

0101000
+126 0 -122 0 *
Ed
 1e-07 1 1 0
1  4 0 10 90
2  7 5 0 10 90
2  8 1 1 10 90
0

0101000
+124 0 -122 0 *
Wi

0101100
-125 0 +123 0 -121 0 +120 0 *
Fa
0  1e-07 1 0

0101000
+119 2 *
Ve
1e-07
-40 -50 -40
0 0

0101101
*
Ed
 1e-07 1 1 0
1  5 0 -7.07106781186547 7.07106781186547
2  9 2 0 -7.07106781186547 7.07106781186547
2  10 6 0 -7.07106781186547 7.07106781186547
0

0101000
+127 0 -117 0 *
Ve
1e-07
-40 -50 40
0 0

0101101
*
Ed
 1e-07 1 1 0
1  6 0 -7.07106781186547 7.07106781186547
2  11 2 0 -7.07106781186547 7.07106781186547
2  12 7 0 -7.07106781186547 7.07106781186547
0

0101000
+126 0 -115 0 *
Ed
 1e-07 1 1 0
1  7 0 10 90
2  13 2 0 10 90
2  14 8 1 10 90
0

0101000
+117 0 -115 0 *
Wi

0101100
+125 0 -116 0 +114 0 -113 0 *
Fa
0  0 2 0

0101000
+112 0 *
Ve
1e-07
-40 -40 -50
0 0

0101101
*
Ed
 1e-07 1 1 0
1  8 0 -3.53553390593274 10.6066017177982
2  15 3 0 -3.53553390593274 10.6066017177982
0

0101000
+110 0 -127 0 *
Ve
1e-07
-40 40 -50
0 0

0101101
*
Ed
 1e-07 1 1 0
1  9 0 10 90
2  16 3 0 10 90
2  17 9 1 10 90
0

0101000
+110 0 -108 0 *
Ed
 1e-07 1 1 0
1  10 0 -3.53553390593274 10.6066017177982
2  18 3 0 -3.53553390593274 10.6066017177982
0

0101000
+108 0 -124 0 *
Wi

0101100
+109 0 -107 0 +123 0 -106 0 *
Fa
0  0 3 0

0101000
+105 0 *
Ve
1e-07
-40 -40 50
0 0

0101101
*
Ed
 1e-07 1 1 0
1  11 0 -3.53553390593274 10.6066017177982
2  19 4 0 -3.53553390593274 10.6066017177982
0

0101000
+103 0 -126 0 *
Ve
1e-07
-40 40 50
0 0

0101101
*
Ed
 1e-07 1 1 0
1  12 0 10 90
2  20 4 0 10 90
2  21 10 1 10 90
0

0101000
+103 0 -101 0 *
Ed
 1e-07 1 1 0
1  13 0 -7.07106781186547 7.07106781186547
2  22 4 0 -7.07106781186547 7.07106781186547
2  23 11 0 -7.07106781186547 7.07106781186547
0

0101000
+122 0 -101 0 *
Wi

0101100
+102 0 -100 0 +121 0 +99 0 *
Fa
0  0 4 0

0101000
+98 0 *
Ve
1e-07
-40 50 -40
0 0

0101101
*
Ed
 1e-07 1 1 0
1  14 0 -7.07106781186547 7.07106781186547
2  24 5 0 -7.07106781186547 7.07106781186547
2  25 12 0 -7.07106781186547 7.07106781186547
0

0101000
+124 0 -96 0 *
Ve
1e-07
-40 50 40
0 0

0101101
*
Ed
 1e-07 1 1 0
1  15 0 -3.53553390593274 10.6066017177982
2  26 5 0 -3.53553390593274 10.6066017177982
0

0101000
+94 0 -122 0 *
Ed
 1e-07 1 1 0
1  16 0 10 90
2  27 5 0 10 90
2  28 13 1 10 90
0

0101000
+96 0 -94 0 *
Wi

0101100
+120 0 -95 0 -93 0 -92 0 *
Fa
0  0 5 0

0101000
+91 0 *
Ed
 1e-07 1 1 0
1  17 0 -3.53553390593274 10.6066017177982
2  29 14 0 -3.53553390593274 10.6066017177982
0

0101000
+110 0 -117 0 *
Wi

0101100
-109 0 +89 0 -116 0 *
Fa
0  0 6 0

0101000
+88 0 *
Ed
 1e-07 1 1 0
1  18 0 -3.53553390593274 10.6066017177982
2  30 15 0 -3.53553390593274 10.6066017177982
0

0101000
+103 0 -115 0 *
Wi

0101100
-102 0 +86 0 -114 0 *
Fa
0  0 7 0

0101000
+85 0 *
Ve
1e-07
40 -50 -40
0 0

0101101
*
Ed
 1e-07 1 1 0
1  19 0 10 90
2  31 14 0 10 90
2  32 8 1 10 90
0

0101000
+117 0 -83 0 *
Ve
1e-07
40 -50 40
0 0

0101101
*
Ed
 1e-07 1 1 0
1  20 0 10 90
2  33 15 0 10 90
2  34 8 1 10 90
0

0101000
+115 0 -81 0 *
Ed
 1e-07 1 1 0
1  21 0 10 90
2  35 16 0 10 90
2  36 8 1 10 90
0

0101000
+83 0 -81 0 *
Wi

0101100
+113 0 -82 0 +80 0 -79 0 *
Fa
0  1e-07 8 0

0101000
+78 2 *
Ve
1e-07
40 -40 -50
0 0

0101101
*
Ed
 1e-07 1 1 0
1  22 0 10 90
2  37 14 0 10 90
2  38 9 1 10 90
0

0101000
+110 0 -76 0 *
Ve
1e-07
40 40 -50
0 0

0101101
*
Ed
 1e-07 1 1 0
1  23 0 10 90
2  39 17 0 10 90
2  40 9 1 10 90
0

0101000
+108 0 -74 0 *
Ed
 1e-07 1 1 0
1  24 0 10 90
2  41 18 0 10 90
2  42 9 1 10 90
0

0101000
+76 0 -74 0 *
Wi

0101100
-107 0 +75 0 -73 0 +72 0 *
Fa
0  1e-07 9 0

0101000
+71 2 *
Ed
 1e-07 1 1 0
1  25 0 -3.53553390593274 10.6066017177982
2  43 17 0 -3.53553390593274 10.6066017177982
0

0101000
+108 0 -96 0 *
Wi

0101100
-106 0 +69 0 -95 0 *
Fa
0  0 12 0

0101000
+68 0 *
Ve
1e-07
40 -40 50
0 0

0101101
*
Ed
 1e-07 1 1 0
1  26 0 10 90
2  44 15 0 10 90
2  45 10 1 10 90
0

0101000
+103 0 -66 0 *
Ve
1e-07
40 40 50
0 0

0101101
*
Ed
 1e-07 1 1 0
1  27 0 10 90
2  46 19 0 10 90
2  47 10 1 10 90
0

0101000
+101 0 -64 0 *
Ed
 1e-07 1 1 0
1  28 0 10 90
2  48 20 0 10 90
2  49 10 1 10 90
0

0101000
+66 0 -64 0 *
Wi

0101100
-100 0 +65 0 -63 0 +62 0 *
Fa
0  1e-07 10 0

0101000
+61 2 *
Ed
 1e-07 1 1 0
1  29 0 -3.53553390593274 10.6066017177982
2  50 19 0 -3.53553390593274 10.6066017177982
0

0101000
+94 0 -101 0 *
Wi

0101100
-93 0 +59 0 -99 0 *
Fa
0  0 11 0

0101000
+58 0 *
Ve
1e-07
40 50 -40
0 0

0101101
*
Ed
 1e-07 1 1 0
1  30 0 10 90
2  51 17 0 10 90
2  52 13 1 10 90
0

0101000
+96 0 -56 0 *
Ve
1e-07
40 50 40
0 0

0101101
*
Ed
 1e-07 1 1 0
1  31 0 10 90
2  53 19 0 10 90
2  54 13 1 10 90
0

0101000
+94 0 -54 0 *
Ed
 1e-07 1 1 0
1  32 0 10 90
2  55 21 0 10 90
2  56 13 1 10 90
0

0101000
+56 0 -54 0 *
Wi

0101100
+92 0 -55 0 +53 0 -52 0 *
Fa
0  1e-07 13 0

0101000
+51 2 *
Ed
 1e-07 1 1 0
1  33 0 -3.53553390593274 10.6066017177982
2  57 14 0 -3.53553390593274 10.6066017177982
0

0101000
+76 0 -83 0 *
Wi

0101100
+89 0 -75 0 +82 0 -49 0 *
Fa
0  0 14 0

0101000
+48 0 *
Ed
 1e-07 1 1 0
1  34 0 -3.53553390593274 10.6066017177982
2  58 15 0 -3.53553390593274 10.6066017177982
0

0101000
+66 0 -81 0 *
Wi

0101100
+86 0 -65 0 +80 0 -46 0 *
Fa
0  0 15 0

0101000
+45 0 *
Ve
1e-07
50 -40 -40
0 0

0101101
*
Ve
1e-07
50 -40 40
0 0

0101101
*
Ed
 1e-07 1 1 0
1  35 0 10 90
2  59 16 0 10 90
2  60 22 1 10 90
0

0101000
+43 0 -42 0 *
Ed
 1e-07 1 1 0
1  36 0 -7.07106781186547 7.07106781186547
2  61 16 0 -7.07106781186547 7.07106781186547
2  62 23 0 -7.07106781186547 7.07106781186547
0

0101000
+43 0 -83 0 *
Ed
 1e-07 1 1 0
1  37 0 -7.07106781186547 7.07106781186547
2  63 16 0 -7.07106781186547 7.07106781186547
2  64 24 0 -7.07106781186547 7.07106781186547
0

0101000
+42 0 -81 0 *
Wi

0101100
+41 0 -40 0 +39 0 -79 0 *
Fa
0  0 16 0

0101000
+38 0 *
Ed
 1e-07 1 1 0
1  38 0 -3.53553390593274 10.6066017177982
2  65 17 0 -3.53553390593274 10.6066017177982
0

0101000
+74 0 -56 0 *
Wi

0101100
+69 0 -73 0 +55 0 -36 0 *
Fa
0  0 17 0

0101000
+35 0 *
Ed
 1e-07 1 1 0
1  39 0 -3.53553390593274 10.6066017177982
2  66 18 0 -3.53553390593274 10.6066017177982
0

0101000
+76 0 -43 0 *
Ve
1e-07
50 40 -40
0 0

0101101
*
Ed
 1e-07 1 1 0
1  40 0 10 90
2  67 18 0 10 90
2  68 22 1 10 90
0

0101000
+43 0 -32 0 *
Ed
 1e-07 1 1 0
1  41 0 -3.53553390593274 10.6066017177982
2  69 18 0 -3.53553390593274 10.6066017177982
0

0101000
+74 0 -32 0 *
Wi

0101100
+33 0 -72 0 +31 0 -30 0 *
Fa
0  0 18 0

0101000
+29 0 *
Ed
 1e-07 1 1 0
1  42 0 -3.53553390593274 10.6066017177982
2  70 19 0 -3.53553390593274 10.6066017177982
0

0101000
+54 0 -64 0 *
Wi

0101100
-59 0 +53 0 -63 0 +27 0 *
Fa
0  0 19 0

0101000
+26 0 *
Ed
 1e-07 1 1 0
1  43 0 -3.53553390593274 10.6066017177982
2  71 20 0 -3.53553390593274 10.6066017177982
0

0101000
+66 0 -42 0 *
Ve
1e-07
50 40 40
0 0

0101101
*
Ed
 1e-07 1 1 0
1  44 0 10 90
2  72 20 0 10 90
2  73 22 1 10 90
0

0101000
+42 0 -23 0 *
Ed
 1e-07 1 1 0
1  45 0 -7.07106781186547 7.07106781186547
2  74 20 0 -7.07106781186547 7.07106781186547
2  75 25 0 -7.07106781186547 7.07106781186547
0

0101000
+23 0 -64 0 *
Wi

0101100
+24 0 -62 0 +22 0 +21 0 *
Fa
0  0 20 0

0101000
+20 0 *
Ed
 1e-07 1 1 0
1  46 0 10 90
2  76 21 0 10 90
2  77 22 1 10 90
0

0101000
+32 0 -23 0 *
Ed
 1e-07 1 1 0
1  47 0 -7.07106781186547 7.07106781186547
2  78 21 0 -7.07106781186547 7.07106781186547
2  79 26 0 -7.07106781186547 7.07106781186547
0

0101000
+32 0 -56 0 *
Ed
 1e-07 1 1 0
1  48 0 -3.53553390593274 10.6066017177982
2  80 21 0 -3.53553390593274 10.6066017177982
0

0101000
+54 0 -23 0 *
Wi

0101100
+18 0 -17 0 -16 0 -52 0 *
Fa
0  0 21 0

0101000
+15 0 *
Wi

0101100
-33 0 +49 0 -40 0 *
Fa
0  0 23 0

0101000
+13 0 *
Wi

0101100
-24 0 +46 0 -39 0 *
Fa
0  0 24 0

0101000
+11 0 *
Wi

0101100
-41 0 +31 0 -22 0 +18 0 *
Fa
0  1e-07 22 0

0101000
+9 2 *
Wi

0101100
-30 0 +36 0 -17 0 *
Fa
0  0 26 0

0101000
+7 0 *
Wi

0101100
-16 0 +27 0 -21 0 *
Fa
0  0 25 0

0101000
+5 0 *
Sh

0101100
-118 1 -111 0 +104 0 -97 0 +90 0 +87 0 -84 0 -77 1 -70 1 -67 0 
+60 1 -57 0 +50 1 -47 0 +44 0 +37 0 +34 0 -28 0 -25 0 +19 0 
-14 0 -12 0 +10 0 +8 1 +6 0 +4 0 *
So

0100000
+3 0 *
Co

1100000
+2 0 *

+1 0 