DBRep_DrawableShape

CASCADE Topology V3, (c) Open Cascade
Locations 4
1
              1              -0               0              -0 
              0               1               0               0 
             -0               0               1              -0 
1
              1              -0               0              -0 
              0               1               0               0 
             -0               0               1               5 
2  1 1 2 -1 0
2  2 -1 0
Curve2ds 31
1 0 0 1 0 
1 0 0 1 0 
1 10 0 0 -1 
1 0 0 0 1 
1 0 -80 1 0 
1 0 0 1 0 
1 0 0 0 -1 
1 0 0 0 1 
1 0 0 0 1 
1 0 0 1 0 
1 0 0 1 0 
1 0 60 1 0 
1 10 0 0 1 
1 0 0 1 0 
1 10 0 0 1 
1 0 80 1 0 
1 10 0 0 -1 
1 60 0 0 1 
1 0 0 1 0 
2 0 0 1 0 -0 1 11
2 30 40 -1 0 0 1 11
1 0 0 0 1 
1 0 80 1 0 
1 0 -80 1 0 
1 0 60 1 0 
1 0 0 0 -1 
1 60 0 0 1 
2 30 40 -1 0 0 1 11
1 0 10 1 0 
1 6.2831853071795862 -0 0 1 
1 0 -0 0 1 
Curves 15
1 -30 -40 -5 0 0 1 
1 -30 -40 5 -0 1 0 
1 -30 40 -5 0 0 1 
1 -30 -40 -5 -0 1 0 
1 -30 -40 -5 1 0 -0 
1 30 -40 -5 0 0 1 
1 -30 -40 5 1 0 -0 
1 -30 40 5 1 0 -0 
1 30 -40 5 -0 1 0 
2 0 0 0 0 0 -1 -1 0 -0 0 1 0 11
1 -30 40 -5 1 0 -0 
1 30 40 -5 0 0 1 
1 30 -40 -5 -0 1 0 
2 0 0 -5 0 0 -1 -1 0 0 0 1 0 11
1 -11 -2.6942229581241772e-15 0 0 0 -1 
Polygon3D 0
PolygonOnTriangulations 0
Surfaces 8
1 -30 -40 -5 1 0 -0 0 0 1 0 -1 0 
1 -30 -40 -5 -0 1 0 0 0 1 1 0 -0 
1 -30 -40 5 0 0 1 1 0 -0 -0 1 0 
1 -30 40 -5 -0 1 0 0 0 1 1 0 -0 
1 -30 -40 -5 0 0 1 1 0 -0 -0 1 0 
1 30 -40 -5 1 0 -0 0 0 1 0 -1 0 
2 0 0 0 0 0 -1 -1 0 -0 0 1 0 11
1 0 0 0 0 0 -1 -1 0 -0 0 1 0 
Triangulations 0

TShapes 44
Ve
1e-07
-30 -40 5
0 0

0101101
*
Ve
1e-07
-30 -40 -5
0 0

0101101
*
Ed
 1e-07 1 1 0
1  1 0 0 10
2  1 1 0 0 10
2  2 2 0 0 10
0

0101000
-44 0 +43 0 *
Ve
1e-07
-30 40 5
0 0

0101101
*
Ed
 1e-07 1 1 0
1  2 0 0 80
2  3 1 0 0 80
2  4 3 0 0 80
0

0101000
-41 0 +44 0 *
Ve
1e-07
-30 40 -5
0 0

0101101
*
Ed
 1e-07 1 1 0
1  3 0 0 10
2  5 1 0 0 10
2  6 4 0 0 10
0

0101000
-41 0 +39 0 *
Ed
 1e-07 1 1 0
1  4 0 0 80
2  7 1 0 0 80
2  8 5 0 0 80
0

0101000
-39 0 +43 0 *
Wi

0101100
-42 0 -40 0 +38 0 +37 0 *
Fa
0  1e-07 1 0

0111000
+36 0 *
Ve
1e-07
30 -40 -5
0 0

0101101
*
Ed
 1e-07 1 1 0
1  5 0 0 60
2  9 2 0 0 60
2  10 5 0 0 60
0

0101000
-34 0 +43 0 *
Ve
1e-07
30 -40 5
0 0

0101101
*
Ed
 1e-07 1 1 0
1  6 0 0 10
2  11 6 0 0 10
2  12 2 0 0 10
0

0101000
-32 0 +34 0 *
Ed
 1e-07 1 1 0
1  7 0 0 60
2  13 2 0 0 60
2  14 3 0 0 60
0

0101000
-32 0 +44 0 *
Wi

0101100
-33 0 -31 0 +30 0 +42 0 *
Fa
0  1e-07 2 0

0111000
+29 0 *
Ve
1e-07
30 40 5
0 0

0101101
*
Ed
 1e-07 1 1 0
1  8 0 0 60
2  15 4 0 0 60
2  16 3 0 0 60
0

0101000
-27 0 +41 0 *
Ed
 1e-07 1 1 0
1  9 0 0 80
2  17 6 0 0 80
2  18 3 0 0 80
0

0101000
-27 0 +32 0 *
Wi

0101100
-40 1 -26 1 +30 1 +25 1 *
Ve
1e-07
-11 -2.69422295812418e-15 0
0 0

0101101
*
Ed
 1e-07 1 1 0
1  10 0 0 6.28318530717959
2  19 7 0 0 6.28318530717959
2  20 8 0 0 6.28318530717959
2  21 3 3 0 6.28318530717959
0

0101000
+23 0 -23 0 *
Wi

0101100
+22 2 *
Fa
0  1e-07 3 1

0101000
+24 0 +21 0 *
Ve
1e-07
30 40 -5
0 0

0101101
*
Ed
 1e-07 1 1 0
1  11 0 0 60
2  22 4 0 0 60
2  23 5 0 0 60
0

0101000
-19 0 +39 0 *
Ed
 1e-07 1 1 0
1  12 0 0 10
2  24 6 0 0 10
2  25 4 0 0 10
0

0101000
-27 0 +19 0 *
Wi

0101100
-18 0 -17 0 +26 0 +38 0 *
Fa
0  1e-07 4 0

0111000
+16 0 *
Ed
 1e-07 1 1 0
1  13 0 0 80
2  26 6 0 0 80
2  27 5 0 0 80
0

0101000
-19 0 +34 0 *
Wi

0101100
-37 1 -18 1 +33 1 +14 1 *
Ve
1.00000002694223e-07
-11 -2.69422295812418e-15 -5
0 0

0101101
*
Ed
 1e-07 1 1 0
1  14 0 0 6.28318530717959
2  28 5 1 0 6.28318530717959
2  29 7 2 0 6.28318530717959
0

0101100
+12 0 -12 0 *
Wi

0101100
+11 0 *
Fa
0  1e-07 5 1

0101000
+13 0 +10 0 *
Wi

0101100
-31 0 -25 0 +17 0 +14 0 *
Fa
0  1e-07 6 0

0111000
+8 0 *
Ed
 1e-07 1 1 0
1  15 0 0 10
3  30 31CN 7 0 0 10
0

0101000
+23 0 -12 4 *
Wi

0101100
-11 0 +6 2 +22 2 -6 2 *
Fa
0  1e-07 7 2

0101000
+5 0 *
Sh

0101100
-35 1 -28 1 +20 0 +15 1 -9 0 +7 1 -4 0 *
So

0100000
+3 0 *
Co

1100000
+2 0 *

+1 0 