DBRep_DrawableShape

CASCADE Topology V3, (c) Open Cascade
Locations 0
Curve2ds 100
1 2700 0 0 -1 
1 0 0 0 -1 
1 -2700 -2092.1125171281401 1 0 
1 -2700 0 1 0 
1 -2700 0 0 -1 
1 2592.4633073584664 0 0 -1 
1 2700 -2092.1125171281401 -1 0 
1 2700 -5000 -1 0 
1 2592.4633073584664 0 0 -1 
1 2700 -2092.1125171281401 0.24262638480345769 0.97011980569268064 
1 0 0 1 0 
1 2700 -2092.1125171281401 0.24262638480345769 0.97011980569268064 
1 0 -5000 1 0 
1 3329 422.8874828718599 0.99494057078474252 0.10046522088031733 
1 -3329 422.8874828718599 0.24262638480345769 -0.97011980569268064 
1 0 0 1 0 
1 6300 722.8874828718599 0 1 
1 -6300 722.8874828718599 0.99494057078474252 -0.10046522088031733 
1 6300 939.8874828718599 -1 0 
1 -6300 939.8874828718599 0 -1 
1 0 0 1 0 
7 0 0  1 2 2  0 0  1333.3612472679008 -786.41705492962672 
 0 2 1 2
7 0 0  1 2 2  7.8682545872888414e-14 -1492.1125171281401  1548 -1492.1125171281401 
 0 2 1 2
1 0 0 1 0 
7 0 0  1 2 2  1333.3612472679008 -786.41705492962672  2018.044161414389 -609.75549409685084 
 1 2 2 2
7 0 0  1 2 2  1548 -1492.1125171281401  2048 -992.1125171281401 
 1 2 2 2
1 0 0 1 0 
7 0 0  1 2 2  2018.044161414389 -609.75549409685084  2618.0001909854782 -1.1368683772161603e-13 
 2 2 3 2
7 0 0  1 2 2  2048 -992.1125171281401  2255 -162.1125171281401 
 2 2 3 2
1 0 0 1 0 
7 0 0  1 2 2  2618.0001909854782 -1.1368683772161603e-13  2112.0414807604075 913.73178972135122 
 3 2 4 2
7 0 0  1 2 2  2255 -162.1125171281401  1355 367.8874828718599 
 3 2 4 2
1 0 0 1 0 
7 0 0  1 2 2  2112.0414807604075 913.73178972135122  -222.20204643339798 2290.4696572015114 
 4 2 5 2
7 0 0  1 2 2  1355 367.8874828718599  -1355 367.8874828718599 
 4 2 5 2
1 0 0 1 0 
7 0 0  1 2 2  -222.20204643339798 2290.4696572015114  -1266.6633911710032 2291.1763034448422 
 5 2 6 2
7 0 0  1 2 2  -1355 367.8874828718599  -2255 -162.1125171281401 
 5 2 6 2
1 0 0 1 0 
7 0 0  1 2 2  -1266.6633911710032 2291.1763034448422  -1510.0228081006769 1471.099969076115 
 6 2 7 2
7 0 0  1 2 2  -2255 -162.1125171281401  -2048 -992.1125171281401 
 6 2 7 2
1 0 0 1 0 
7 0 0  1 2 2  -1510.0228081006769 1471.099969076115  -1333.3612472679008 786.41705492962672 
 7 2 8 2
7 0 0  1 2 2  -2048 -992.1125171281401  -1548 -1492.1125171281401 
 7 2 8 2
1 0 0 1 0 
7 0 0  1 2 2  -1333.3612472679008 786.41705492962672  0 0 
 8 2 9 2
7 0 0  1 2 2  -1548 -1492.1125171281401  7.8682545872888414e-14 -1492.1125171281401 
 8 2 9 2
1 0 0 0 -1 
1 -3329 422.8874828718599 0.24262638480345769 -0.97011980569268064 
1 0 -5000 1 0 
1 3329 422.8874828718599 0.99494057078474252 0.10046522088031733 
1 -6300 722.8874828718599 0.99494057078474252 -0.10046522088031733 
1 6300 722.8874828718599 0 1 
1 -6300 939.8874828718599 0 -1 
1 6300 939.8874828718599 -1 0 
1 0 1 1 0 
7 0 0  1 2 2  0 0  1333.3612472679008 -786.41705492962672 
 0 2 1 2
7 0 0  1 2 2  7.8682545872888414e-14 -1492.1125171281401  1548 -1492.1125171281401 
 0 2 1 2
1 0 1 1 0 
7 0 0  1 2 2  1333.3612472679008 -786.41705492962672  2018.044161414389 -609.75549409685084 
 1 2 2 2
7 0 0  1 2 2  1548 -1492.1125171281401  2048 -992.1125171281401 
 1 2 2 2
1 0 1 1 0 
7 0 0  1 2 2  2018.044161414389 -609.75549409685084  2618.0001909854782 -1.1368683772161603e-13 
 2 2 3 2
7 0 0  1 2 2  2048 -992.1125171281401  2255 -162.1125171281401 
 2 2 3 2
1 0 1 1 0 
7 0 0  1 2 2  2618.0001909854782 -1.1368683772161603e-13  2112.0414807604075 913.73178972135122 
 3 2 4 2
7 0 0  1 2 2  2255 -162.1125171281401  1355 367.8874828718599 
 3 2 4 2
1 0 1 1 0 
7 0 0  1 2 2  2112.0414807604075 913.73178972135122  -222.20204643339798 2290.4696572015114 
 4 2 5 2
7 0 0  1 2 2  1355 367.8874828718599  -1355 367.8874828718599 
 4 2 5 2
1 0 1 1 0 
7 0 0  1 2 2  -222.20204643339798 2290.4696572015114  -1266.6633911710032 2291.1763034448422 
 5 2 6 2
7 0 0  1 2 2  -1355 367.8874828718599  -2255 -162.1125171281401 
 5 2 6 2
1 0 1 1 0 
7 0 0  1 2 2  -1266.6633911710032 2291.1763034448422  -1510.0228081006769 1471.099969076115 
 6 2 7 2
7 0 0  1 2 2  -2255 -162.1125171281401  -2048 -992.1125171281401 
 6 2 7 2
1 0 1 1 0 
7 0 0  1 2 2  -1510.0228081006769 1471.099969076115  -1333.3612472679008 786.41705492962672 
 7 2 8 2
7 0 0  1 2 2  -2048 -992.1125171281401  -1548 -1492.1125171281401 
 7 2 8 2
1 0 1 1 0 
7 0 0  1 2 2  -1333.3612472679008 786.41705492962672  0 0 
 8 2 9 2
7 0 0  1 2 2  -1548 -1492.1125171281401  7.8682545872888414e-14 -1492.1125171281401 
 8 2 9 2
1 1 0 0 1 
1 1 0 0 1 
1 0 0 0 1 
1 9 0 0 1 
1 2 0 0 1 
1 2 0 0 1 
1 3 0 0 1 
1 3 0 0 1 
1 4 0 0 1 
1 4 0 0 1 
1 5 0 0 1 
1 5 0 0 1 
1 6 0 0 1 
1 6 0 0 1 
1 7 0 0 1 
1 7 0 0 1 
1 8 0 0 1 
1 8 0 0 1 
Curves 51
1 2700 0 0 0 0 1 
8 0 5400
1 -2700 0 0 1 0 0 
1 -2700 0 0 0 0 1 
8 0 5400
1 2700 0 5000 -1 0 0 
1 3329 2515 0 0 0 1 
1 2700 0 0 0.24262638480345769 0.97011980569268064 0 
1 2700 0 5000 0.24262638480345769 0.97011980569268064 0 
1 3329 2515 0 0.99494057078474241 0.10046522088031731 0 
1 -3329 2515 0 0.24262638480345769 -0.97011980569268064 0 
1 6300 2815 0 0 1 0 
1 -6300 2815 0 0.99494057078474241 -0.10046522088031731 0 
1 6300 3032 0 -1 0 0 
1 -6300 3032 0 0 -1 0 
7 0 0  1 2 2  0 600 0  1548 600 0 
 0 2 1 2
7 0 0  1 2 2  1548 600 0  2048 1100 0 
 1 2 2 2
7 0 0  1 2 2  2048 1100 0  2255 1930 0 
 2 2 3 2
7 0 0  1 2 2  2255 1930 0  1355 2460 0 
 3 2 4 2
7 0 0  1 2 2  1355 2460 0  -1355 2460 0 
 4 2 5 2
7 0 0  1 2 2  -1355 2460 0  -2255 1930 0 
 5 2 6 2
7 0 0  1 2 2  -2255 1930 0  -2048 1100 0 
 6 2 7 2
7 0 0  1 2 2  -2048 1100 0  -1548 600 0 
 7 2 8 2
7 0 0  1 2 2  -1548 600 0  0 600 0 
 8 2 9 2
1 -3329 2515 0 0 0 1 
1 -3329 2515 5000 0.24262638480345769 -0.97011980569268064 0 
1 3329 2515 5000 0.99494057078474241 0.10046522088031731 0 
1 -6300 2815 5000 0.99494057078474241 -0.10046522088031731 0 
1 6300 2815 5000 0 1 0 
1 -6300 3032 5000 0 -1 0 
1 6300 3032 5000 -1 0 0 
7 0 0  1 2 2  0 600 5000  1548 600 5000 
 0 2 1 2
7 0 0  1 2 2  1548 600 5000  2048 1100 5000 
 1 2 2 2
7 0 0  1 2 2  2048 1100 5000  2255 1930 5000 
 2 2 3 2
7 0 0  1 2 2  2255 1930 5000  1355 2460 5000 
 3 2 4 2
7 0 0  1 2 2  1355 2460 5000  -1355 2460 5000 
 4 2 5 2
7 0 0  1 2 2  -1355 2460 5000  -2255 1930 5000 
 5 2 6 2
7 0 0  1 2 2  -2255 1930 5000  -2048 1100 5000 
 6 2 7 2
7 0 0  1 2 2  -2048 1100 5000  -1548 600 5000 
 7 2 8 2
7 0 0  1 2 2  -1548 600 5000  0 600 5000 
 8 2 9 2
1 6300 2815 0 0 0 1 
1 6300 3032 0 0 0 1 
1 -6300 2815 0 0 0 1 
1 -6300 3032 0 0 0 1 
7 0 0  3 4 2  1548 600 0  2767.5693667747273 -45.999825097367214 1360.7346417165593  2767.5693667747246 -45.999825097366596 3639.2653582834419  1548 600 5000 
 0 4 1 4
7 0 0  3 4 2  0 600 0  0 -45.999825097367214 1360.7346417165593  0 -45.999825097366596 3639.2653582834419  0 600 5000 
 0 4 1 4
7 0 0  3 4 2  2048 1100 0  2876.054321261171 62.48512938907681 1360.7346417165593  2876.0543212611701 62.485129389077841 3639.2653582834419  2048 1100 5000 
 0 4 1 4
7 0 0  3 4 2  2255 1930 0  3343.4118265276848 1930.0000000000005 1360.7346417165593  3343.4118265276843 1929.9999999999995 3639.2653582834419  2255 1930 5000 
 0 4 1 4
7 0 0  3 4 2  1355 2460 0  2443.4118265276848 2401.2727431729663 1360.7346417165593  2443.4118265276852 2401.2727431729672 3639.2653582834419  1355 2460 5000 
 0 4 1 4
7 0 0  3 4 2  -1355 2460 0  -2443.4118265276848 2401.2727431729663 1360.7346417165593  -2443.4118265276852 2401.2727431729672 3639.2653582834419  -1355 2460 5000 
 0 4 1 4
7 0 0  3 4 2  -2255 1930 0  -3343.4118265276848 1930.0000000000005 1360.7346417165593  -3343.4118265276843 1929.9999999999995 3639.2653582834419  -2255 1930 5000 
 0 4 1 4
7 0 0  3 4 2  -2048 1100 0  -2876.054321261171 62.48512938907681 1360.7346417165593  -2876.0543212611701 62.485129389077841 3639.2653582834419  -2048 1100 5000 
 0 4 1 4
7 0 0  3 4 2  -1548 600 0  -2767.5693667747273 -45.999825097367214 1360.7346417165593  -2767.5693667747246 -45.999825097366596 3639.2653582834419  -1548 600 5000 
 0 4 1 4
Polygon3D 0
PolygonOnTriangulations 0
Surfaces 21
1 0 0 0 0 1 0 1 0 0 0 0 -1 
1 2700 0 0 -0.97011980569268064 0.24262638480345769 0 0.24262638480345769 0.97011980569268064 0 0 0 -1 
1 -7.8682545872888414e-14 2092.1125171281401 0 0 0 1 1 0 -0 -0 1 0 
1 -3329 2515 0 0.97011980569268064 0.24262638480345769 -0 0.24262638480345769 -0.97011980569268064 0 0 -0 -1 
1 -7.8682545872888414e-14 2092.1125171281401 5000 0 0 1 1 0 -0 -0 1 0 
9 0 0 0 0 1 3 2 4 2 2 0 600 0  0 -45.999825097367214 1360.7346417165593  0 -45.999825097366596 3639.2653582834419  0 600 5000  
1548 600 0  2767.5693667747273 -45.999825097367214 1360.7346417165593  2767.5693667747246 -45.999825097366596 3639.2653582834419  1548 600 5000  

0 2
1 2

0 4
1 4

1 0 600 0 0 -0 1 0.86134447497926414 0.50802135331371234 0 -0.50802135331371234 0.86134447497926414 0 
9 0 0 0 0 1 3 2 4 2 2 1548 600 0  2767.5693667747273 -45.999825097367214 1360.7346417165593  2767.5693667747246 -45.999825097366596 3639.2653582834419  1548 600 5000  
2048 1100 0  2876.054321261171 62.48512938907681 1360.7346417165593  2876.0543212611701 62.485129389077841 3639.2653582834419  2048 1100 5000  

1 2
2 2

0 4
1 4

9 0 0 0 0 1 3 2 4 2 2 2048 1100 0  2876.054321261171 62.48512938907681 1360.7346417165593  2876.0543212611701 62.485129389077841 3639.2653582834419  2048 1100 5000  
2255 1930 0  3343.4118265276848 1930.0000000000005 1360.7346417165593  3343.4118265276843 1929.9999999999995 3639.2653582834419  2255 1930 5000  

2 2
3 2

0 4
1 4

9 0 0 0 0 1 3 2 4 2 2 2255 1930 0  3343.4118265276848 1930.0000000000005 1360.7346417165593  3343.4118265276843 1929.9999999999995 3639.2653582834419  2255 1930 5000  
1355 2460 0  2443.4118265276848 2401.2727431729663 1360.7346417165593  2443.4118265276852 2401.2727431729672 3639.2653582834419  1355 2460 5000  

3 2
4 2

0 4
1 4

9 0 0 0 0 1 3 2 4 2 2 1355 2460 0  2443.4118265276848 2401.2727431729663 1360.7346417165593  2443.4118265276852 2401.2727431729672 3639.2653582834419  1355 2460 5000  
-1355 2460 0  -2443.4118265276848 2401.2727431729663 1360.7346417165593  -2443.4118265276852 2401.2727431729672 3639.2653582834419  -1355 2460 5000  

4 2
5 2

0 4
1 4

9 0 0 0 0 1 3 2 4 2 2 -1355 2460 0  -2443.4118265276848 2401.2727431729663 1360.7346417165593  -2443.4118265276852 2401.2727431729672 3639.2653582834419  -1355 2460 5000  
-2255 1930 0  -3343.4118265276848 1930.0000000000005 1360.7346417165593  -3343.4118265276843 1929.9999999999995 3639.2653582834419  -2255 1930 5000  

5 2
6 2

0 4
1 4

9 0 0 0 0 1 3 2 4 2 2 -2255 1930 0  -3343.4118265276848 1930.0000000000005 1360.7346417165593  -3343.4118265276843 1929.9999999999995 3639.2653582834419  -2255 1930 5000  
-2048 1100 0  -2876.054321261171 62.48512938907681 1360.7346417165593  -2876.0543212611701 62.485129389077841 3639.2653582834419  -2048 1100 5000  

6 2
7 2

0 4
1 4

9 0 0 0 0 1 3 2 4 2 2 -2048 1100 0  -2876.054321261171 62.48512938907681 1360.7346417165593  -2876.0543212611701 62.485129389077841 3639.2653582834419  -2048 1100 5000  
-1548 600 0  -2767.5693667747273 -45.999825097367214 1360.7346417165593  -2767.5693667747246 -45.999825097366596 3639.2653582834419  -1548 600 5000  

7 2
8 2

0 4
1 4

9 0 0 0 0 1 3 2 4 2 2 -1548 600 0  -2767.5693667747273 -45.999825097367214 1360.7346417165593  -2767.5693667747246 -45.999825097366596 3639.2653582834419  -1548 600 5000  
0 600 0  0 -45.999825097367214 1360.7346417165593  0 -45.999825097366596 3639.2653582834419  0 600 5000  

8 2
9 2

0 4
1 4

1 0 600 5000 0 -0 1 0.86134447497926414 0.50802135331371234 0 -0.50802135331371234 0.86134447497926414 0 
1 3329 2515 0 -0.10046522088031733 0.99494057078474252 0 0.99494057078474252 0.10046522088031733 0 0 0 -1 
1 6300 2815 0 -1 0 0 0 1 0 0 0 -1 
1 -6300 2815 0 0.10046522088031733 0.99494057078474252 -0 0.99494057078474252 -0.10046522088031733 0 0 -0 -1 
1 6300 3032 0 0 -1 0 -1 0 0 -0 -0 -1 
1 -6300 3032 0 1 0 -0 0 -1 0 0 -0 -1 
Triangulations 0

TShapes 128
Ve
1e-07
2700 0 0
0 0

0101101
*
Ve
1e-07
2700 0 5000
0 0

0101101
*
Ed
 1e-07 1 1 0
1  1 0 0 5000
2  1 1 0 0 5000
2  2 2 0 0 5000
0

0101000
+128 0 -127 0 *
Ve
1e-07
-2700 0 0
0 0

0101101
*
Ed
 1e-07 1 1 0
1  2 0 0 5400
2  3 3 0 0 5400
2  4 1 0 0 5400
0

0101000
+125 0 -128 0 *
Ve
1e-07
-2700 0 5000
0 0

0101101
*
Ed
 1e-07 1 1 0
1  3 0 0 5000
2  5 1 0 0 5000
2  6 4 0 0 5000
0

0101000
+125 0 -123 0 *
Ed
 1e-07 1 1 0
1  4 0 0 5400
2  7 5 0 0 5400
2  8 1 0 0 5400
0

0101000
+127 0 -123 0 *
Wi

0101100
-126 0 -124 0 +122 0 -121 0 *
Fa
0  0 1 0

0111000
+120 0 *
Ve
1e-07
3329 2515 0
0 0

0101101
*
Ve
1e-07
3329 2515 5000
0 0

0101101
*
Ed
 1e-07 1 1 0
1  5 0 0 5000
2  9 2 0 0 5000
0

0101000
+118 0 -117 0 *
Ed
 1e-07 1 1 0
1  6 0 0 2592.46330735847
2  10 3 0 0 2592.46330735847
2  11 2 0 0 2592.46330735847
0

0101000
+128 0 -118 0 *
Ed
 1e-07 1 1 0
1  7 0 0 2592.46330735847
2  12 5 0 0 2592.46330735847
2  13 2 0 0 2592.46330735847
0

0101000
+127 0 -117 0 *
Wi

0101100
+126 0 -116 0 -115 0 +114 0 *
Fa
0  1e-07 2 0

0101000
+113 0 *
Ve
1e-07
6300 2815 0
0 0

0101101
*
Ed
 1e-07 1 1 0
1  8 0 0 2986.10800206556
2  14 3 0 0 2986.10800206556
0

0101000
+118 0 -111 0 *
Ve
1e-07
-3329 2515 0
0 0

0101101
*
Ed
 1e-07 1 1 0
1  9 0 0 2592.46330735847
2  15 3 0 0 2592.46330735847
2  16 4 0 0 2592.46330735847
0

0101000
+109 0 -125 0 *
Ve
1e-07
6300 3032 0
0 0

0101101
*
Ed
 1e-07 1 1 0
1  10 0 0 217
2  17 3 0 0 217
0

0101000
+111 0 -107 0 *
Ve
1e-07
-6300 2815 0
0 0

0101101
*
Ed
 1e-07 1 1 0
1  11 0 0 2986.10800206556
2  18 3 0 0 2986.10800206556
0

0101000
+105 0 -109 0 *
Ve
1e-07
-6300 3032 0
0 0

0101101
*
Ed
 1e-07 1 1 0
1  12 0 0 12600
2  19 3 0 0 12600
0

0101000
+107 0 -103 0 *
Ed
 1e-07 1 1 0
1  13 0 0 217
2  20 3 0 0 217
0

0101000
+103 0 -105 0 *
Wi

0101100
+115 0 +124 0 +110 0 +108 0 +106 0 +104 0 +102 0 +101 0 *
Ve
1e-07
0 600 0
0 0

0101101
*
Ve
1e-07
1548 600 0
0 0

0101101
*
Ed
 1e-07 1 1 0
1  14 0 0 1
2  21 6 0 0 1
4 C0 6 0 7 0
2  22 7 0 0 1
2  23 3 0 0 1
0

0101000
+99 0 -98 0 *
Ve
1e-07
2048 1100 0
0 0

0101101
*
Ed
 1e-07 1 1 0
1  15 0 1 2
2  24 8 0 1 2
4 C0 8 0 7 0
2  25 7 0 1 2
2  26 3 0 1 2
0

0101000
+98 0 -96 0 *
Ve
1e-07
2255 1930 0
0 0

0101101
*
Ed
 1e-07 1 1 0
1  16 0 2 3
2  27 9 0 2 3
4 C0 9 0 7 0
2  28 7 0 2 3
2  29 3 0 2 3
0

0101000
+96 0 -94 0 *
Ve
1e-07
1355 2460 0
0 0

0101101
*
Ed
 1e-07 1 1 0
1  17 0 3 4
2  30 10 0 3 4
4 C0 10 0 7 0
2  31 7 0 3 4
2  32 3 0 3 4
0

0101000
+94 0 -92 0 *
Ve
1e-07
-1355 2460 0
0 0

0101101
*
Ed
 1e-07 1 1 0
1  18 0 4 5
2  33 11 0 4 5
4 C0 11 0 7 0
2  34 7 0 4 5
2  35 3 0 4 5
0

0101000
+92 0 -90 0 *
Ve
1e-07
-2255 1930 0
0 0

0101101
*
Ed
 1e-07 1 1 0
1  19 0 5 6
2  36 12 0 5 6
4 C0 12 0 7 0
2  37 7 0 5 6
2  38 3 0 5 6
0

0101000
+90 0 -88 0 *
Ve
1e-07
-2048 1100 0
0 0

0101101
*
Ed
 1e-07 1 1 0
1  20 0 6 7
2  39 13 0 6 7
4 C0 13 0 7 0
2  40 7 0 6 7
2  41 3 0 6 7
0

0101000
+88 0 -86 0 *
Ve
1e-07
-1548 600 0
0 0

0101101
*
Ed
 1e-07 1 1 0
1  21 0 7 8
2  42 14 0 7 8
4 C0 14 0 7 0
2  43 7 0 7 8
2  44 3 0 7 8
0

0101000
+86 0 -84 0 *
Ed
 1e-07 1 1 0
1  22 0 8 9
2  45 15 0 8 9
4 C0 15 0 7 0
2  46 7 0 8 9
2  47 3 0 8 9
0

0101000
+84 0 -99 0 *
Wi

0101100
-97 0 -95 0 -93 0 -91 0 -89 0 -87 0 -85 0 -83 0 -82 0 *
Fa
0  1e-07 3 0

0101000
+100 0 +81 0 *
Ve
1e-07
-3329 2515 5000
0 0

0101101
*
Ed
 1e-07 1 1 0
1  23 0 0 5000
2  48 4 0 0 5000
0

0101000
+109 0 -79 0 *
Ed
 1e-07 1 1 0
1  24 0 0 2592.46330735847
2  49 5 0 0 2592.46330735847
2  50 4 0 0 2592.46330735847
0

0101000
+79 0 -123 0 *
Wi

0101100
+78 0 -122 0 -108 0 +77 0 *
Fa
0  1e-07 4 0

0101000
+76 0 *
Ve
1e-07
6300 2815 5000
0 0

0101101
*
Ed
 1e-07 1 1 0
1  25 0 0 2986.10800206556
2  51 5 0 0 2986.10800206556
0

0101000
+117 0 -74 0 *
Ve
1e-07
-6300 2815 5000
0 0

0101101
*
Ed
 1e-07 1 1 0
1  26 0 0 2986.10800206556
2  52 5 0 0 2986.10800206556
0

0101000
+72 0 -79 0 *
Ve
1e-07
6300 3032 5000
0 0

0101101
*
Ed
 1e-07 1 1 0
1  27 0 0 217
2  53 5 0 0 217
0

0101000
+74 0 -70 0 *
Ve
1e-07
-6300 3032 5000
0 0

0101101
*
Ed
 1e-07 1 1 0
1  28 0 0 217
2  54 5 0 0 217
0

0101000
+68 0 -72 0 *
Ed
 1e-07 1 1 0
1  29 0 0 12600
2  55 5 0 0 12600
0

0101000
+70 0 -68 0 *
Wi

0101100
-121 0 +114 0 +77 0 +73 0 +71 0 +69 0 +67 0 +66 0 *
Ve
1e-07
0 600 5000
0 0

0101101
*
Ve
1e-07
1548 600 5000
0 0

0101101
*
Ed
 1e-07 1 1 0
1  30 0 0 1
2  56 6 0 0 1
4 C0 6 0 16 0
2  57 16 0 0 1
2  58 5 0 0 1
0

0101000
+64 0 -63 0 *
Ve
1e-07
2048 1100 5000
0 0

0101101
*
Ed
 1e-07 1 1 0
1  31 0 1 2
2  59 8 0 1 2
4 C0 8 0 16 0
2  60 16 0 1 2
2  61 5 0 1 2
0

0101000
+63 0 -61 0 *
Ve
1e-07
2255 1930 5000
0 0

0101101
*
Ed
 1e-07 1 1 0
1  32 0 2 3
2  62 9 0 2 3
4 C0 9 0 16 0
2  63 16 0 2 3
2  64 5 0 2 3
0

0101000
+61 0 -59 0 *
Ve
1e-07
1355 2460 5000
0 0

0101101
*
Ed
 1e-07 1 1 0
1  33 0 3 4
2  65 10 0 3 4
4 C0 10 0 16 0
2  66 16 0 3 4
2  67 5 0 3 4
0

0101000
+59 0 -57 0 *
Ve
1e-07
-1355 2460 5000
0 0

0101101
*
Ed
 1e-07 1 1 0
1  34 0 4 5
2  68 11 0 4 5
4 C0 11 0 16 0
2  69 16 0 4 5
2  70 5 0 4 5
0

0101000
+57 0 -55 0 *
Ve
1e-07
-2255 1930 5000
0 0

0101101
*
Ed
 1e-07 1 1 0
1  35 0 5 6
2  71 12 0 5 6
4 C0 12 0 16 0
2  72 16 0 5 6
2  73 5 0 5 6
0

0101000
+55 0 -53 0 *
Ve
1e-07
-2048 1100 5000
0 0

0101101
*
Ed
 1e-07 1 1 0
1  36 0 6 7
2  74 13 0 6 7
4 C0 13 0 16 0
2  75 16 0 6 7
2  76 5 0 6 7
0

0101000
+53 0 -51 0 *
Ve
1e-07
-1548 600 5000
0 0

0101101
*
Ed
 1e-07 1 1 0
1  37 0 7 8
2  77 14 0 7 8
4 C0 14 0 16 0
2  78 16 0 7 8
2  79 5 0 7 8
0

0101000
+51 0 -49 0 *
Ed
 1e-07 1 1 0
1  38 0 8 9
2  80 15 0 8 9
4 C0 15 0 16 0
2  81 16 0 8 9
2  82 5 0 8 9
0

0101000
+49 0 -64 0 *
Wi

0101100
-62 0 -60 0 -58 0 -56 0 -54 0 -52 0 -50 0 -48 0 -47 0 *
Fa
0  1e-07 5 0

0101000
+65 0 +46 0 *
Ed
 1e-07 1 1 0
1  39 0 0 5000
0

0101000
+111 0 -74 0 *
Wi

0101100
+116 0 -44 0 -110 0 +73 0 *
Fa
0  1e-07 17 0

0101000
+43 0 *
Ed
 1e-07 1 1 0
1  40 0 0 5000
0

0101000
+107 0 -70 0 *
Wi

0101100
+44 0 -41 0 -106 0 +69 0 *
Fa
0  1e-07 18 0

0101000
+40 0 *
Ed
 1e-07 1 1 0
1  41 0 0 5000
0

0101000
+105 0 -72 0 *
Wi

0101100
+38 0 -78 0 -104 0 +71 0 *
Fa
0  1e-07 19 0

0101000
+37 0 *
Ed
 1e-07 1 1 0
1  42 0 0 5000
0

0101000
+103 0 -68 0 *
Wi

0101100
+41 0 -35 0 -102 0 +66 0 *
Fa
0  1e-07 20 0

0101000
+34 0 *
Wi

0101100
+35 0 -38 0 -101 0 +67 0 *
Fa
0  1e-07 21 0

0101000
+32 0 *
Ed
 1e-07 1 1 0
1  43 0 0 1
2  83 6 0 0 1
2  84 8 0 0 1
4 C0 6 0 8 0
0

0101000
+98 0 -63 0 *
Ed
 1e-07 1 1 0
1  44 0 0 1
2  85 6 0 0 1
2  86 15 0 0 1
4 C2 6 0 15 0
0

0101000
+99 0 -64 0 *
Wi

0101000
+97 0 +30 0 -62 0 -29 0 *
Fa
0  1e-07 6 0

0101000
+28 0 *
Ed
 1e-07 1 1 0
1  45 0 0 1
2  87 8 0 0 1
2  88 9 0 0 1
4 C0 8 0 9 0
0

0101000
+96 0 -61 0 *
Wi

0101000
+95 0 +26 0 -60 0 -30 0 *
Fa
0  1e-07 8 0

0101000
+25 0 *
Ed
 1e-07 1 1 0
1  46 0 0 1
2  89 9 0 0 1
2  90 10 0 0 1
4 C0 9 0 10 0
0

0101000
+94 0 -59 0 *
Wi

0101000
+93 0 +23 0 -58 0 -26 0 *
Fa
0  1e-07 9 0

0101000
+22 0 *
Ed
 1e-07 1 1 0
1  47 0 0 1
2  91 10 0 0 1
2  92 11 0 0 1
4 C0 10 0 11 0
0

0101000
+92 0 -57 0 *
Wi

0101000
+91 0 +20 0 -56 0 -23 0 *
Fa
0  1e-07 10 0

0101000
+19 0 *
Ed
 1e-07 1 1 0
1  48 0 0 1
2  93 11 0 0 1
2  94 12 0 0 1
4 C0 11 0 12 0
0

0101000
+90 0 -55 0 *
Wi

0101000
+89 0 +17 0 -54 0 -20 0 *
Fa
0  1e-07 11 0

0101000
+16 0 *
Ed
 1e-07 1 1 0
1  49 0 0 1
2  95 12 0 0 1
2  96 13 0 0 1
4 C0 12 0 13 0
0

0101000
+88 0 -53 0 *
Wi

0101000
+87 0 +14 0 -52 0 -17 0 *
Fa
0  1e-07 12 0

0101000
+13 0 *
Ed
 1e-07 1 1 0
1  50 0 0 1
2  97 13 0 0 1
2  98 14 0 0 1
4 C0 13 0 14 0
0

0101000
+86 0 -51 0 *
Wi

0101000
+85 0 +11 0 -50 0 -14 0 *
Fa
0  1e-07 13 0

0101000
+10 0 *
Ed
 1e-07 1 1 0
1  51 0 0 1
2  99 14 0 0 1
2  100 15 0 0 1
4 C0 14 0 15 0
0

0101000
+84 0 -49 0 *
Wi

0101000
+83 0 +8 0 -48 0 -11 0 *
Fa
0  1e-07 14 0

0101000
+7 0 *
Wi

0101000
+82 0 +29 0 -47 0 -8 0 *
Fa
0  1e-07 15 0

0101000
+5 0 *
Sh

0101100
-119 0 -112 0 -80 0 -75 0 +45 0 -42 0 -39 0 -36 0 -33 0 -31 0 
-27 0 -24 0 -21 0 -18 0 -15 0 -12 0 -9 0 -6 0 -4 0 *
So

0100000
+3 0 *
Co

1100000
+2 0 *

+1 0 