DBRep_DrawableShape

CASCADE Topology V3, (c) Open Cascade
Locations 0
Curve2ds 28
1 2700 0 0 -1 
1 0 0 0 -1 
1 -2700 -2092.1125171281401 1 0 
1 -2700 0 1 0 
1 -2700 0 0 -1 
1 2592.4633073584664 0 0 -1 
1 2700 -2092.1125171281401 -1 0 
1 2700 -5000 -1 0 
1 2592.4633073584664 0 0 -1 
1 2700 -2092.1125171281401 0.24262638480345769 0.97011980569268064 
1 0 0 1 0 
1 2700 -2092.1125171281401 0.24262638480345769 0.97011980569268064 
1 0 -5000 1 0 
1 3329 422.8874828718599 0.99494057078474252 0.10046522088031733 
1 3329 422.8874828718599 0.99494057078474252 0.10046522088031733 
1 6300 722.8874828718599 0 1 
1 6300 722.8874828718599 0 1 
1 6300 939.8874828718599 -1 0 
1 6300 939.8874828718599 -1 0 
1 -6300 939.8874828718599 0 -1 
1 -6300 939.8874828718599 0 -1 
1 0 0 0 -1 
1 -6300 722.8874828718599 0.99494057078474252 -0.10046522088031733 
1 -6300 722.8874828718599 0.99494057078474252 -0.10046522088031733 
1 -3329 422.8874828718599 0.24262638480345769 -0.97011980569268064 
1 0 0 1 0 
1 -3329 422.8874828718599 0.24262638480345769 -0.97011980569268064 
1 0 -5000 1 0 
Curves 24
1 2700 0 0 0 0 1 
8 0 5400
1 -2700 0 0 1 0 0 
1 -2700 0 0 0 0 1 
8 0 5400
1 2700 0 5000 -1 0 0 
1 3329 2515 0 0 0 1 
1 2700 0 0 0.24262638480345769 0.97011980569268064 0 
1 2700 0 5000 0.24262638480345769 0.97011980569268064 0 
1 6300 2815 0 0 0 1 
1 3329 2515 0 0.99494057078474241 0.10046522088031731 0 
1 3329 2515 5000 0.99494057078474241 0.10046522088031731 0 
1 6300 3032 0 0 0 1 
1 6300 2815 0 0 1 0 
1 6300 2815 5000 0 1 0 
1 -6300 3032 0 0 0 1 
1 6300 3032 0 -1 0 0 
1 6300 3032 5000 -1 0 0 
1 -6300 2815 0 0 0 1 
1 -6300 3032 0 0 -1 0 
1 -6300 3032 5000 0 -1 0 
1 -3329 2515 0 0 0 1 
1 -6300 2815 0 0.99494057078474241 -0.10046522088031731 0 
1 -6300 2815 5000 0.99494057078474241 -0.10046522088031731 0 
1 -3329 2515 0 0.24262638480345769 -0.97011980569268064 0 
1 -3329 2515 5000 0.24262638480345769 -0.97011980569268064 0 
Polygon3D 0
PolygonOnTriangulations 0
Surfaces 10
1 0 0 0 0 1 0 1 0 0 0 0 -1 
1 2700 0 0 -0.97011980569268064 0.24262638480345769 0 0.24262638480345769 0.97011980569268064 0 0 0 -1 
1 -7.8682545872888414e-14 2092.1125171281401 0 0 0 1 1 0 -0 -0 1 0 
1 -3329 2515 0 0.97011980569268064 0.24262638480345769 -0 0.24262638480345769 -0.97011980569268064 0 0 -0 -1 
1 -7.8682545872888414e-14 2092.1125171281401 5000 0 0 1 1 0 -0 -0 1 0 
1 3329 2515 0 -0.10046522088031733 0.99494057078474252 0 0.99494057078474252 0.10046522088031733 0 0 0 -1 
1 6300 2815 0 -1 0 0 0 1 0 0 0 -1 
1 6300 3032 0 0 -1 0 -1 0 0 -0 -0 -1 
1 -6300 3032 0 1 0 -0 0 -1 0 0 -0 -1 
1 -6300 2815 0 0.10046522088031733 0.99494057078474252 -0 0.99494057078474252 -0.10046522088031733 0 0 -0 -1 
Triangulations 0

TShapes 62
Ve
1e-07
2700 0 0
0 0

0101101
*
Ve
1e-07
2700 0 5000
0 0

0101101
*
Ed
 1e-07 1 1 0
1  1 0 0 5000
2  1 1 0 0 5000
2  2 2 0 0 5000
0

0101000
+62 0 -61 0 *
Ve
1e-07
-2700 0 0
0 0

0101101
*
Ed
 1e-07 1 1 0
1  2 0 0 5400
2  3 3 0 0 5400
2  4 1 0 0 5400
0

0101000
+59 0 -62 0 *
Ve
1e-07
-2700 0 5000
0 0

0101101
*
Ed
 1e-07 1 1 0
1  3 0 0 5000
2  5 1 0 0 5000
2  6 4 0 0 5000
0

0101000
+59 0 -57 0 *
Ed
 1e-07 1 1 0
1  4 0 0 5400
2  7 5 0 0 5400
2  8 1 0 0 5400
0

0101000
+61 0 -57 0 *
Wi

0101100
-60 0 -58 0 +56 0 -55 0 *
Fa
0  0 1 0

0111000
+54 0 *
Ve
1e-07
3329 2515 0
0 0

0101101
*
Ve
1e-07
3329 2515 5000
0 0

0101101
*
Ed
 1e-07 1 1 0
1  5 0 0 5000
2  9 2 0 0 5000
0

0101000
+52 0 -51 0 *
Ed
 1e-07 1 1 0
1  6 0 0 2592.46330735847
2  10 3 0 0 2592.46330735847
2  11 2 0 0 2592.46330735847
0

0101000
+62 0 -52 0 *
Ed
 1e-07 1 1 0
1  7 0 0 2592.46330735847
2  12 5 0 0 2592.46330735847
2  13 2 0 0 2592.46330735847
0

0101000
+61 0 -51 0 *
Wi

0101100
+60 0 -50 0 -49 0 +48 0 *
Fa
0  1e-07 2 0

0101000
+47 0 *
Ve
1e-07
6300 2815 0
0 0

0101101
*
Ve
1e-07
6300 2815 5000
0 0

0101101
*
Ed
 1e-07 1 1 0
1  8 0 0 5000
0

0101000
+45 0 -44 0 *
Ed
 1e-07 1 1 0
1  9 0 0 2986.10800206556
2  14 3 0 0 2986.10800206556
0

0101000
+52 0 -45 0 *
Ed
 1e-07 1 1 0
1  10 0 0 2986.10800206556
2  15 5 0 0 2986.10800206556
0

0101000
+51 0 -44 0 *
Wi

0101100
+50 0 -43 0 -42 0 +41 0 *
Fa
0  1e-07 6 0

0101000
+40 0 *
Ve
1e-07
6300 3032 0
0 0

0101101
*
Ve
1e-07
6300 3032 5000
0 0

0101101
*
Ed
 1e-07 1 1 0
1  11 0 0 5000
0

0101000
+38 0 -37 0 *
Ed
 1e-07 1 1 0
1  12 0 0 217
2  16 3 0 0 217
0

0101000
+45 0 -38 0 *
Ed
 1e-07 1 1 0
1  13 0 0 217
2  17 5 0 0 217
0

0101000
+44 0 -37 0 *
Wi

0101100
+43 0 -36 0 -35 0 +34 0 *
Fa
0  1e-07 7 0

0101000
+33 0 *
Ve
1e-07
-6300 3032 0
0 0

0101101
*
Ve
1e-07
-6300 3032 5000
0 0

0101101
*
Ed
 1e-07 1 1 0
1  14 0 0 5000
0

0101000
+31 0 -30 0 *
Ed
 1e-07 1 1 0
1  15 0 0 12600
2  18 3 0 0 12600
0

0101000
+38 0 -31 0 *
Ed
 1e-07 1 1 0
1  16 0 0 12600
2  19 5 0 0 12600
0

0101000
+37 0 -30 0 *
Wi

0101100
+36 0 -29 0 -28 0 +27 0 *
Fa
0  1e-07 8 0

0101000
+26 0 *
Ve
1e-07
-6300 2815 0
0 0

0101101
*
Ve
1e-07
-6300 2815 5000
0 0

0101101
*
Ed
 1e-07 1 1 0
1  17 0 0 5000
0

0101000
+24 0 -23 0 *
Ed
 1e-07 1 1 0
1  18 0 0 217
2  20 3 0 0 217
0

0101000
+31 0 -24 0 *
Ed
 1e-07 1 1 0
1  19 0 0 217
2  21 5 0 0 217
0

0101000
+30 0 -23 0 *
Wi

0101100
+29 0 -22 0 -21 0 +20 0 *
Fa
0  1e-07 9 0

0101000
+19 0 *
Ve
1e-07
-3329 2515 0
0 0

0101101
*
Ve
1e-07
-3329 2515 5000
0 0

0101101
*
Ed
 1e-07 1 1 0
1  20 0 0 5000
2  22 4 0 0 5000
0

0101000
+17 0 -16 0 *
Ed
 1e-07 1 1 0
1  21 0 0 2986.10800206556
2  23 3 0 0 2986.10800206556
0

0101000
+24 0 -17 0 *
Ed
 1e-07 1 1 0
1  22 0 0 2986.10800206556
2  24 5 0 0 2986.10800206556
0

0101000
+23 0 -16 0 *
Wi

0101100
+22 0 -15 0 -14 0 +13 0 *
Fa
0  1e-07 10 0

0101000
+12 0 *
Ed
 1e-07 1 1 0
1  23 0 0 2592.46330735847
2  25 3 0 0 2592.46330735847
2  26 4 0 0 2592.46330735847
0

0101000
+17 0 -59 0 *
Ed
 1e-07 1 1 0
1  24 0 0 2592.46330735847
2  27 5 0 0 2592.46330735847
2  28 4 0 0 2592.46330735847
0

0101000
+16 0 -57 0 *
Wi

0101100
+15 0 -56 0 -10 0 +9 0 *
Fa
0  1e-07 4 0

0101000
+8 0 *
Wi

0101100
+49 0 +42 0 +35 0 +28 0 +21 0 +14 0 +10 0 +58 0 *
Fa
0  1e-07 3 0

0111000
+6 0 *
Wi

0101100
-55 0 +48 0 +41 0 +34 0 +27 0 +20 0 +13 0 +9 0 *
Fa
0  1e-07 5 0

0111000
+4 0 *
Sh

0101100
-53 0 -46 0 -39 0 -32 0 -25 0 -18 0 -11 0 -7 0 -5 0 +3 0 
*
So

1100000
+2 0 *

+1 0 