DBRep_DrawableShape

CASCADE Topology V3, (c) Open Cascade
Locations 0
Curve2ds 72
1 0 0 1 0 
7 0 0  1 2 2  0 0  1333.3612472679008 -786.41705492962672 
 0 2 1 2
7 0 0  1 2 2  7.8682545872888414e-14 -1492.1125171281401  1548 -1492.1125171281401 
 0 2 1 2
1 1 0 0 1 
1 1 0 0 1 
1 0 1 1 0 
7 0 0  1 2 2  0 0  1333.3612472679008 -786.41705492962672 
 0 2 1 2
7 0 0  1 2 2  7.8682545872888414e-14 -1492.1125171281401  1548 -1492.1125171281401 
 0 2 1 2
1 0 0 0 1 
1 9 0 0 1 
1 0 0 1 0 
7 0 0  1 2 2  1333.3612472679008 -786.41705492962672  2018.044161414389 -609.75549409685084 
 1 2 2 2
7 0 0  1 2 2  1548 -1492.1125171281401  2048 -992.1125171281401 
 1 2 2 2
1 2 0 0 1 
1 2 0 0 1 
1 0 1 1 0 
7 0 0  1 2 2  1333.3612472679008 -786.41705492962672  2018.044161414389 -609.75549409685084 
 1 2 2 2
7 0 0  1 2 2  1548 -1492.1125171281401  2048 -992.1125171281401 
 1 2 2 2
1 0 0 1 0 
7 0 0  1 2 2  2018.044161414389 -609.75549409685084  2618.0001909854782 -1.1368683772161603e-13 
 2 2 3 2
7 0 0  1 2 2  2048 -992.1125171281401  2255 -162.1125171281401 
 2 2 3 2
1 3 0 0 1 
1 3 0 0 1 
1 0 1 1 0 
7 0 0  1 2 2  2018.044161414389 -609.75549409685084  2618.0001909854782 -1.1368683772161603e-13 
 2 2 3 2
7 0 0  1 2 2  2048 -992.1125171281401  2255 -162.1125171281401 
 2 2 3 2
1 0 0 1 0 
7 0 0  1 2 2  2618.0001909854782 -1.1368683772161603e-13  2112.0414807604075 913.73178972135122 
 3 2 4 2
7 0 0  1 2 2  2255 -162.1125171281401  1355 367.8874828718599 
 3 2 4 2
1 4 0 0 1 
1 4 0 0 1 
1 0 1 1 0 
7 0 0  1 2 2  2618.0001909854782 -1.1368683772161603e-13  2112.0414807604075 913.73178972135122 
 3 2 4 2
7 0 0  1 2 2  2255 -162.1125171281401  1355 367.8874828718599 
 3 2 4 2
1 0 0 1 0 
7 0 0  1 2 2  2112.0414807604075 913.73178972135122  -222.20204643339798 2290.4696572015114 
 4 2 5 2
7 0 0  1 2 2  1355 367.8874828718599  -1355 367.8874828718599 
 4 2 5 2
1 5 0 0 1 
1 5 0 0 1 
1 0 1 1 0 
7 0 0  1 2 2  2112.0414807604075 913.73178972135122  -222.20204643339798 2290.4696572015114 
 4 2 5 2
7 0 0  1 2 2  1355 367.8874828718599  -1355 367.8874828718599 
 4 2 5 2
1 0 0 1 0 
7 0 0  1 2 2  -222.20204643339798 2290.4696572015114  -1266.6633911710032 2291.1763034448422 
 5 2 6 2
7 0 0  1 2 2  -1355 367.8874828718599  -2255 -162.1125171281401 
 5 2 6 2
1 6 0 0 1 
1 6 0 0 1 
1 0 1 1 0 
7 0 0  1 2 2  -222.20204643339798 2290.4696572015114  -1266.6633911710032 2291.1763034448422 
 5 2 6 2
7 0 0  1 2 2  -1355 367.8874828718599  -2255 -162.1125171281401 
 5 2 6 2
1 0 0 1 0 
7 0 0  1 2 2  -1266.6633911710032 2291.1763034448422  -1510.0228081006769 1471.099969076115 
 6 2 7 2
7 0 0  1 2 2  -2255 -162.1125171281401  -2048 -992.1125171281401 
 6 2 7 2
1 7 0 0 1 
1 7 0 0 1 
1 0 1 1 0 
7 0 0  1 2 2  -1266.6633911710032 2291.1763034448422  -1510.0228081006769 1471.099969076115 
 6 2 7 2
7 0 0  1 2 2  -2255 -162.1125171281401  -2048 -992.1125171281401 
 6 2 7 2
1 0 0 1 0 
7 0 0  1 2 2  -1510.0228081006769 1471.099969076115  -1333.3612472679008 786.41705492962672 
 7 2 8 2
7 0 0  1 2 2  -2048 -992.1125171281401  -1548 -1492.1125171281401 
 7 2 8 2
1 8 0 0 1 
1 8 0 0 1 
1 0 1 1 0 
7 0 0  1 2 2  -1510.0228081006769 1471.099969076115  -1333.3612472679008 786.41705492962672 
 7 2 8 2
7 0 0  1 2 2  -2048 -992.1125171281401  -1548 -1492.1125171281401 
 7 2 8 2
1 0 0 1 0 
7 0 0  1 2 2  -1333.3612472679008 786.41705492962672  0 0 
 8 2 9 2
7 0 0  1 2 2  -1548 -1492.1125171281401  7.8682545872888414e-14 -1492.1125171281401 
 8 2 9 2
1 0 1 1 0 
7 0 0  1 2 2  -1333.3612472679008 786.41705492962672  0 0 
 8 2 9 2
7 0 0  1 2 2  -1548 -1492.1125171281401  7.8682545872888414e-14 -1492.1125171281401 
 8 2 9 2
Curves 27
7 0 0  1 2 2  0 600 0  1548 600 0 
 0 2 1 2
7 0 0  3 4 2  1548 600 0  2767.5693667747273 -45.999825097367214 1360.7346417165593  2767.5693667747246 -45.999825097366596 3639.2653582834419  1548 600 5000 
 0 4 1 4
7 0 0  1 2 2  0 600 5000  1548 600 5000 
 0 2 1 2
7 0 0  3 4 2  0 600 0  0 -45.999825097367214 1360.7346417165593  0 -45.999825097366596 3639.2653582834419  0 600 5000 
 0 4 1 4
7 0 0  1 2 2  1548 600 0  2048 1100 0 
 1 2 2 2
7 0 0  3 4 2  2048 1100 0  2876.054321261171 62.48512938907681 1360.7346417165593  2876.0543212611701 62.485129389077841 3639.2653582834419  2048 1100 5000 
 0 4 1 4
7 0 0  1 2 2  1548 600 5000  2048 1100 5000 
 1 2 2 2
7 0 0  1 2 2  2048 1100 0  2255 1930 0 
 2 2 3 2
7 0 0  3 4 2  2255 1930 0  3343.4118265276848 1930.0000000000005 1360.7346417165593  3343.4118265276843 1929.9999999999995 3639.2653582834419  2255 1930 5000 
 0 4 1 4
7 0 0  1 2 2  2048 1100 5000  2255 1930 5000 
 2 2 3 2
7 0 0  1 2 2  2255 1930 0  1355 2460 0 
 3 2 4 2
7 0 0  3 4 2  1355 2460 0  2443.4118265276848 2401.2727431729663 1360.7346417165593  2443.4118265276852 2401.2727431729672 3639.2653582834419  1355 2460 5000 
 0 4 1 4
7 0 0  1 2 2  2255 1930 5000  1355 2460 5000 
 3 2 4 2
7 0 0  1 2 2  1355 2460 0  -1355 2460 0 
 4 2 5 2
7 0 0  3 4 2  -1355 2460 0  -2443.4118265276848 2401.2727431729663 1360.7346417165593  -2443.4118265276852 2401.2727431729672 3639.2653582834419  -1355 2460 5000 
 0 4 1 4
7 0 0  1 2 2  1355 2460 5000  -1355 2460 5000 
 4 2 5 2
7 0 0  1 2 2  -1355 2460 0  -2255 1930 0 
 5 2 6 2
7 0 0  3 4 2  -2255 1930 0  -3343.4118265276848 1930.0000000000005 1360.7346417165593  -3343.4118265276843 1929.9999999999995 3639.2653582834419  -2255 1930 5000 
 0 4 1 4
7 0 0  1 2 2  -1355 2460 5000  -2255 1930 5000 
 5 2 6 2
7 0 0  1 2 2  -2255 1930 0  -2048 1100 0 
 6 2 7 2
7 0 0  3 4 2  -2048 1100 0  -2876.054321261171 62.48512938907681 1360.7346417165593  -2876.0543212611701 62.485129389077841 3639.2653582834419  -2048 1100 5000 
 0 4 1 4
7 0 0  1 2 2  -2255 1930 5000  -2048 1100 5000 
 6 2 7 2
7 0 0  1 2 2  -2048 1100 0  -1548 600 0 
 7 2 8 2
7 0 0  3 4 2  -1548 600 0  -2767.5693667747273 -45.999825097367214 1360.7346417165593  -2767.5693667747246 -45.999825097366596 3639.2653582834419  -1548 600 5000 
 0 4 1 4
7 0 0  1 2 2  -2048 1100 5000  -1548 600 5000 
 7 2 8 2
7 0 0  1 2 2  -1548 600 0  0 600 0 
 8 2 9 2
7 0 0  1 2 2  -1548 600 5000  0 600 5000 
 8 2 9 2
Polygon3D 0
PolygonOnTriangulations 0
Surfaces 13
9 0 0 0 0 1 3 2 4 2 2 0 600 0  0 -45.999825097367214 1360.7346417165593  0 -45.999825097366596 3639.2653582834419  0 600 5000  
1548 600 0  2767.5693667747273 -45.999825097367214 1360.7346417165593  2767.5693667747246 -45.999825097366596 3639.2653582834419  1548 600 5000  

0 2
1 2

0 4
1 4

1 0 600 0 0 -0 1 0.86134447497926414 0.50802135331371234 0 -0.50802135331371234 0.86134447497926414 0 
1 -7.8682545872888414e-14 2092.1125171281401 0 0 0 1 1 0 -0 -0 1 0 
9 0 0 0 0 1 3 2 4 2 2 1548 600 0  2767.5693667747273 -45.999825097367214 1360.7346417165593  2767.5693667747246 -45.999825097366596 3639.2653582834419  1548 600 5000  
2048 1100 0  2876.054321261171 62.48512938907681 1360.7346417165593  2876.0543212611701 62.485129389077841 3639.2653582834419  2048 1100 5000  

1 2
2 2

0 4
1 4

1 0 600 5000 0 -0 1 0.86134447497926414 0.50802135331371234 0 -0.50802135331371234 0.86134447497926414 0 
1 -7.8682545872888414e-14 2092.1125171281401 5000 0 0 1 1 0 -0 -0 1 0 
9 0 0 0 0 1 3 2 4 2 2 -1548 600 0  -2767.5693667747273 -45.999825097367214 1360.7346417165593  -2767.5693667747246 -45.999825097366596 3639.2653582834419  -1548 600 5000  
0 600 0  0 -45.999825097367214 1360.7346417165593  0 -45.999825097366596 3639.2653582834419  0 600 5000  

8 2
9 2

0 4
1 4

9 0 0 0 0 1 3 2 4 2 2 2048 1100 0  2876.054321261171 62.48512938907681 1360.7346417165593  2876.0543212611701 62.485129389077841 3639.2653582834419  2048 1100 5000  
2255 1930 0  3343.4118265276848 1930.0000000000005 1360.7346417165593  3343.4118265276843 1929.9999999999995 3639.2653582834419  2255 1930 5000  

2 2
3 2

0 4
1 4

9 0 0 0 0 1 3 2 4 2 2 2255 1930 0  3343.4118265276848 1930.0000000000005 1360.7346417165593  3343.4118265276843 1929.9999999999995 3639.2653582834419  2255 1930 5000  
1355 2460 0  2443.4118265276848 2401.2727431729663 1360.7346417165593  2443.4118265276852 2401.2727431729672 3639.2653582834419  1355 2460 5000  

3 2
4 2

0 4
1 4

9 0 0 0 0 1 3 2 4 2 2 1355 2460 0  2443.4118265276848 2401.2727431729663 1360.7346417165593  2443.4118265276852 2401.2727431729672 3639.2653582834419  1355 2460 5000  
-1355 2460 0  -2443.4118265276848 2401.2727431729663 1360.7346417165593  -2443.4118265276852 2401.2727431729672 3639.2653582834419  -1355 2460 5000  

4 2
5 2

0 4
1 4

9 0 0 0 0 1 3 2 4 2 2 -1355 2460 0  -2443.4118265276848 2401.2727431729663 1360.7346417165593  -2443.4118265276852 2401.2727431729672 3639.2653582834419  -1355 2460 5000  
-2255 1930 0  -3343.4118265276848 1930.0000000000005 1360.7346417165593  -3343.4118265276843 1929.9999999999995 3639.2653582834419  -2255 1930 5000  

5 2
6 2

0 4
1 4

9 0 0 0 0 1 3 2 4 2 2 -2255 1930 0  -3343.4118265276848 1930.0000000000005 1360.7346417165593  -3343.4118265276843 1929.9999999999995 3639.2653582834419  -2255 1930 5000  
-2048 1100 0  -2876.054321261171 62.48512938907681 1360.7346417165593  -2876.0543212611701 62.485129389077841 3639.2653582834419  -2048 1100 5000  

6 2
7 2

0 4
1 4

9 0 0 0 0 1 3 2 4 2 2 -2048 1100 0  -2876.054321261171 62.48512938907681 1360.7346417165593  -2876.0543212611701 62.485129389077841 3639.2653582834419  -2048 1100 5000  
-1548 600 0  -2767.5693667747273 -45.999825097367214 1360.7346417165593  -2767.5693667747246 -45.999825097366596 3639.2653582834419  -1548 600 5000  

7 2
8 2

0 4
1 4

Triangulations 0

TShapes 69
Ve
1e-07
0 600 0
0 0

0101101
*
Ve
1e-07
1548 600 0
0 0

0101101
*
Ed
 1e-07 1 1 0
1  1 0 0 1
2  1 1 0 0 1
4 C0 1 0 2 0
2  2 2 0 0 1
2  3 3 0 0 1
0

0101000
+69 0 -68 0 *
Ve
1e-07
1548 600 5000
0 0

0101101
*
Ed
 1e-07 1 1 0
1  2 0 0 1
2  4 1 0 0 1
2  5 4 0 0 1
4 C0 1 0 4 0
0

0101000
+68 0 -66 0 *
Ve
1e-07
0 600 5000
0 0

0101101
*
Ed
 1e-07 1 1 0
1  3 0 0 1
2  6 1 0 0 1
4 C0 1 0 5 0
2  7 5 0 0 1
2  8 6 0 0 1
0

0101000
+64 0 -66 0 *
Ed
 1e-07 1 1 0
1  4 0 0 1
2  9 1 0 0 1
2  10 7 0 0 1
4 C2 1 0 7 0
0

0101000
+69 0 -64 0 *
Wi

0101000
+67 0 +65 0 -63 0 -62 0 *
Fa
0  1e-07 1 0

0101000
+61 0 *
Ve
1e-07
2048 1100 0
0 0

0101101
*
Ed
 1e-07 1 1 0
1  5 0 1 2
2  11 4 0 1 2
4 C0 4 0 2 0
2  12 2 0 1 2
2  13 3 0 1 2
0

0101000
+68 0 -59 0 *
Ve
1e-07
2048 1100 5000
0 0

0101101
*
Ed
 1e-07 1 1 0
1  6 0 0 1
2  14 4 0 0 1
2  15 8 0 0 1
4 C0 4 0 8 0
0

0101000
+59 0 -57 0 *
Ed
 1e-07 1 1 0
1  7 0 1 2
2  16 4 0 1 2
4 C0 4 0 5 0
2  17 5 0 1 2
2  18 6 0 1 2
0

0101000
+66 0 -57 0 *
Wi

0101000
+58 0 +56 0 -55 0 -65 0 *
Fa
0  1e-07 4 0

0101000
+54 0 *
Ve
1e-07
2255 1930 0
0 0

0101101
*
Ed
 1e-07 1 1 0
1  8 0 2 3
2  19 8 0 2 3
4 C0 8 0 2 0
2  20 2 0 2 3
2  21 3 0 2 3
0

0101000
+59 0 -52 0 *
Ve
1e-07
2255 1930 5000
0 0

0101101
*
Ed
 1e-07 1 1 0
1  9 0 0 1
2  22 8 0 0 1
2  23 9 0 0 1
4 C0 8 0 9 0
0

0101000
+52 0 -50 0 *
Ed
 1e-07 1 1 0
1  10 0 2 3
2  24 8 0 2 3
4 C0 8 0 5 0
2  25 5 0 2 3
2  26 6 0 2 3
0

0101000
+57 0 -50 0 *
Wi

0101000
+51 0 +49 0 -48 0 -56 0 *
Fa
0  1e-07 8 0

0101000
+47 0 *
Ve
1e-07
1355 2460 0
0 0

0101101
*
Ed
 1e-07 1 1 0
1  11 0 3 4
2  27 9 0 3 4
4 C0 9 0 2 0
2  28 2 0 3 4
2  29 3 0 3 4
0

0101000
+52 0 -45 0 *
Ve
1e-07
1355 2460 5000
0 0

0101101
*
Ed
 1e-07 1 1 0
1  12 0 0 1
2  30 9 0 0 1
2  31 10 0 0 1
4 C0 9 0 10 0
0

0101000
+45 0 -43 0 *
Ed
 1e-07 1 1 0
1  13 0 3 4
2  32 9 0 3 4
4 C0 9 0 5 0
2  33 5 0 3 4
2  34 6 0 3 4
0

0101000
+50 0 -43 0 *
Wi

0101000
+44 0 +42 0 -41 0 -49 0 *
Fa
0  1e-07 9 0

0101000
+40 0 *
Ve
1e-07
-1355 2460 0
0 0

0101101
*
Ed
 1e-07 1 1 0
1  14 0 4 5
2  35 10 0 4 5
4 C0 10 0 2 0
2  36 2 0 4 5
2  37 3 0 4 5
0

0101000
+45 0 -38 0 *
Ve
1e-07
-1355 2460 5000
0 0

0101101
*
Ed
 1e-07 1 1 0
1  15 0 0 1
2  38 10 0 0 1
2  39 11 0 0 1
4 C0 10 0 11 0
0

0101000
+38 0 -36 0 *
Ed
 1e-07 1 1 0
1  16 0 4 5
2  40 10 0 4 5
4 C0 10 0 5 0
2  41 5 0 4 5
2  42 6 0 4 5
0

0101000
+43 0 -36 0 *
Wi

0101000
+37 0 +35 0 -34 0 -42 0 *
Fa
0  1e-07 10 0

0101000
+33 0 *
Ve
1e-07
-2255 1930 0
0 0

0101101
*
Ed
 1e-07 1 1 0
1  17 0 5 6
2  43 11 0 5 6
4 C0 11 0 2 0
2  44 2 0 5 6
2  45 3 0 5 6
0

0101000
+38 0 -31 0 *
Ve
1e-07
-2255 1930 5000
0 0

0101101
*
Ed
 1e-07 1 1 0
1  18 0 0 1
2  46 11 0 0 1
2  47 12 0 0 1
4 C0 11 0 12 0
0

0101000
+31 0 -29 0 *
Ed
 1e-07 1 1 0
1  19 0 5 6
2  48 11 0 5 6
4 C0 11 0 5 0
2  49 5 0 5 6
2  50 6 0 5 6
0

0101000
+36 0 -29 0 *
Wi

0101000
+30 0 +28 0 -27 0 -35 0 *
Fa
0  1e-07 11 0

0101000
+26 0 *
Ve
1e-07
-2048 1100 0
0 0

0101101
*
Ed
 1e-07 1 1 0
1  20 0 6 7
2  51 12 0 6 7
4 C0 12 0 2 0
2  52 2 0 6 7
2  53 3 0 6 7
0

0101000
+31 0 -24 0 *
Ve
1e-07
-2048 1100 5000
0 0

0101101
*
Ed
 1e-07 1 1 0
1  21 0 0 1
2  54 12 0 0 1
2  55 13 0 0 1
4 C0 12 0 13 0
0

0101000
+24 0 -22 0 *
Ed
 1e-07 1 1 0
1  22 0 6 7
2  56 12 0 6 7
4 C0 12 0 5 0
2  57 5 0 6 7
2  58 6 0 6 7
0

0101000
+29 0 -22 0 *
Wi

0101000
+23 0 +21 0 -20 0 -28 0 *
Fa
0  1e-07 12 0

0101000
+19 0 *
Ve
1e-07
-1548 600 0
0 0

0101101
*
Ed
 1e-07 1 1 0
1  23 0 7 8
2  59 13 0 7 8
4 C0 13 0 2 0
2  60 2 0 7 8
2  61 3 0 7 8
0

0101000
+24 0 -17 0 *
Ve
1e-07
-1548 600 5000
0 0

0101101
*
Ed
 1e-07 1 1 0
1  24 0 0 1
2  62 13 0 0 1
2  63 7 0 0 1
4 C0 13 0 7 0
0

0101000
+17 0 -15 0 *
Ed
 1e-07 1 1 0
1  25 0 7 8
2  64 13 0 7 8
4 C0 13 0 5 0
2  65 5 0 7 8
2  66 6 0 7 8
0

0101000
+22 0 -15 0 *
Wi

0101000
+16 0 +14 0 -13 0 -21 0 *
Fa
0  1e-07 13 0

0101000
+12 0 *
Ed
 1e-07 1 1 0
1  26 0 8 9
2  67 7 0 8 9
4 C0 7 0 2 0
2  68 2 0 8 9
2  69 3 0 8 9
0

0101000
+17 0 -69 0 *
Ed
 1e-07 1 1 0
1  27 0 8 9
2  70 7 0 8 9
4 C0 7 0 5 0
2  71 5 0 8 9
2  72 6 0 8 9
0

0101000
+15 0 -64 0 *
Wi

0101000
+10 0 +62 0 -9 0 -14 0 *
Fa
0  1e-07 7 0

0101000
+8 0 *
Wi

0101000
-67 0 -58 0 -51 0 -44 0 -37 0 -30 0 -23 0 -16 0 -10 0 *
Fa
0  1e-07 2 0

0101000
-6 0 *
Wi

0101000
+63 0 +55 0 +48 0 +41 0 +34 0 +27 0 +20 0 +13 0 +9 0 *
Fa
0  1e-07 5 0

0101000
+4 0 *
Sh

0101100
+60 0 +53 0 +46 0 +39 0 +32 0 +25 0 +18 0 +11 0 +7 0 -5 0 
+3 0 *
So

0100100
+2 0 *

+1 0 